<svg width="620" height="649" viewBox="0 0 620 649" fill="none" xmlns="http://www.w3.org/2000/svg">
<mask id="path-1-inside-1_553_37322" fill="white">
<path d="M176.637 363.907C176.803 364.052 176.834 364.317 176.701 364.493C175.709 365.796 174.744 367.075 173.748 368.383C155.301 392.802 141.447 419.428 132.654 448.399C128.455 462.264 127.02 476.543 127.917 490.925C128.563 501.514 130.142 512.033 134.664 521.897C135.454 523.656 136.351 525.415 137.212 527.14C143.529 539.521 153.686 547.04 167.898 549.351C169.441 549.593 170.985 549.937 172.528 550.213C181.895 551.972 189.288 556.525 194.098 564.561C197.328 569.942 200.45 575.356 203.573 580.771C207.126 586.98 211.145 592.808 216.78 597.499C221.661 601.569 227.116 604.88 233.576 605.19C238.637 605.432 243.877 604.673 248.83 603.569C253.962 602.431 258.951 600.569 263.867 598.672C269.502 596.464 275.245 595.016 281.382 594.947C283.356 594.912 285.401 594.567 287.268 593.912C300.296 589.256 311.816 582.668 319.64 571.114C327.285 559.802 332.668 547.558 336.76 534.693C337.149 533.434 338.978 533.576 339.207 534.874C339.483 536.441 339.749 537.882 340.062 539.315C341.784 547.109 344.943 554.387 349.967 560.664C355.781 567.872 358.94 575.908 360.375 584.772C360.95 588.428 362.026 592.015 362.923 595.636C365.974 607.777 372.506 618.262 380.366 627.919C389.518 639.163 402.259 645.06 416.543 647.889C428.207 650.165 439.62 648.82 450.782 644.991C464.958 640.128 477.053 632.127 487.964 622.366C492.881 617.951 497.618 613.295 502.176 608.536C507.165 603.328 512.656 598.741 518.937 595.016C519.798 594.498 520.588 593.912 521.485 593.464C539.968 583.806 550.125 568.321 555.652 549.317C560.066 534.21 560.712 518.931 559.241 503.445C558.996 500.747 562.147 499.996 563.322 502.437C563.373 502.543 563.425 502.649 563.476 502.755C572.448 521.483 586.445 535.624 605.646 544.798C618.172 550.8 631.344 552.352 644.838 547.868C652.16 545.454 658.512 541.453 663.932 536.21C679.615 521 690.167 503.273 692.715 481.613C693.72 473.128 694.474 464.54 696.735 456.332C699.678 445.571 703.841 435.121 707.717 424.601C711.127 415.358 713.854 405.977 714.752 396.182C715.577 387.421 714.285 378.868 711.773 370.452C706.138 351.621 697.489 334.203 685.645 318.2C672.366 300.334 654.672 287.78 634.394 278.192C617.705 270.294 600.227 264.741 581.923 261.602C580.71 261.39 581.034 259.875 582.218 259.538C582.762 259.383 583.309 259.238 583.861 259.119C608.231 254.083 628.975 242.598 647.063 226.354C647.709 225.802 648.355 225.25 648.894 224.595C656.395 215.11 666.731 208.729 676.134 201.279C679.903 198.279 683.707 195.347 687.332 192.243C699.929 181.413 709.189 168.411 712.742 152.373C715.649 139.37 713.495 126.988 705.671 115.607C696.053 101.638 683.025 92.5328 666.085 88.394C656.789 86.1177 647.602 83.393 638.522 80.4614C626.032 76.3916 616.449 68.9418 610.85 57.1807C610.24 55.9391 609.523 54.7319 608.912 53.4903C602.452 40.1082 590.609 34.314 576.217 32.348C559.995 30.1407 544.526 33.7276 529.452 38.8321C498.731 49.2825 472.746 66.3895 452.146 90.7738C447.695 96.0508 443.819 101.673 441.199 108.019C440.82 108.869 439.525 108.689 439.145 107.84C438.898 107.29 438.682 106.779 438.507 106.26C428.315 77.7367 412.774 52.1797 392.353 29.3474C387.975 24.4498 382.95 20.0696 377.89 15.7929C370.819 9.82617 362.421 5.8598 353.664 2.65228C343.328 -1.1416 332.776 -0.486328 322.368 2.23834C304.961 6.75653 287.591 11.5506 270.22 16.2412C262.217 18.4141 254.07 20.38 245.743 20.4146C238.493 20.449 231.172 19.6212 223.958 18.621C214.16 17.2415 204.47 15.103 194.528 15.8618C190.724 16.1378 186.848 16.8621 183.187 17.9313C177.158 19.7247 173.21 23.8635 171.666 29.7613C170.805 33.0723 170.267 36.5213 170.051 39.9358C169.764 43.9022 170.087 47.9374 169.944 51.9382C169.477 64.0442 168.867 76.1846 168.436 88.2905C167.97 101.914 166.534 115.572 168.293 129.196C170.339 145.268 173.928 160.995 181.644 175.515C184.551 180.999 188.642 185.897 192.195 191.036C193.077 192.264 192.125 193.91 190.645 193.602C188.147 193.082 185.846 192.604 183.546 192.14C166.247 188.76 149.199 190.519 132.654 195.554C99.9945 205.556 70.17 220.525 46.0879 244.564C25.9537 264.672 11.8131 288.297 2.58943 314.648C0.364262 320.959 -0.389425 327.512 0.184813 334.203C0.90261 342.826 5.20939 347.068 14.4331 347.482C20.1755 347.723 25.9178 347.792 31.6602 347.447C38.3357 347.034 42.6425 349.482 45.9085 355.173C57.1061 374.763 74.6204 385.731 97.554 388.973C117.904 391.87 136.961 388.214 154.547 378.04C161.294 374.143 167.611 369.555 174.143 365.279C174.827 364.809 175.541 364.368 176.231 363.903C176.359 363.817 176.52 363.805 176.637 363.907ZM343.264 415.274C344.675 415.764 345.742 417.074 345.66 418.566C344.835 427.464 343.758 436.362 343.22 445.295C342.682 454.228 342.502 463.195 342.43 472.163C342.323 487.097 340.636 501.824 337.98 516.517C334.929 533.21 329.295 548.972 320.825 563.871C313.575 576.598 302.772 585.117 288.883 590.187C285.473 591.429 281.705 592.291 278.044 592.429C272.912 592.636 268.21 593.946 263.473 595.671C257.73 597.74 251.88 599.672 245.994 601.362C234.689 604.604 225.035 601.534 217.031 593.567C214.16 590.704 211.576 587.531 209.351 584.186C206.48 579.909 204.219 575.287 201.527 570.873C199.122 566.941 196.682 563.078 193.99 559.319C190.652 554.628 186.094 551.317 180.459 549.558C177.481 548.627 174.466 547.558 171.379 547.144C154.045 544.971 143.314 535.245 136.997 520.104C133.767 512.343 131.936 504.307 131.183 496.064C129.639 479.475 130.896 463.023 135.992 447.02C144.318 420.876 156.593 396.492 172.887 374.108C178.629 366.21 185.089 358.76 191.765 351.586C197.687 345.275 204.254 339.48 210.751 333.72C221.302 324.374 231.854 315.027 242.728 306.06C250.696 299.507 259.453 293.954 269.143 289.918C269.77 289.657 270.404 289.418 271.067 289.181C273.003 288.489 275.011 290.32 274.455 292.298C269.538 309.853 268.067 327.547 272.553 345.378C275.962 358.933 282.566 370.59 295.594 377.936C296.372 378.385 296.551 379.439 296.604 380.335C296.979 386.664 299.951 391.814 306.074 394.836C318.767 401.099 329.535 410.507 343.264 415.274ZM475.681 334.905C475.707 334.655 475.899 334.46 476.147 334.419C476.37 334.382 476.603 334.461 476.736 334.643C477.622 335.862 478.461 337.126 479.422 338.273C486.815 347.172 492.414 357.036 496.577 367.727C502.427 382.696 508.421 397.561 514.558 412.426C519.547 424.498 526.689 435.397 536.559 444.191C543.521 450.4 547.684 457.78 549.945 466.334C555.472 487.235 558.667 508.412 556.765 530.071C555.616 543.177 549.299 552.697 536.559 557.905C533.544 559.146 530.421 560.181 527.335 561.285C520.911 563.595 514.343 565.665 508.026 568.217C495.752 573.149 487.21 581.703 482.508 593.671C480.427 598.948 478.525 604.293 476.587 609.605C472.926 619.607 467.542 628.643 460.077 636.472C458.678 637.956 456.883 639.301 455.017 640.128C444.393 644.681 433.375 647.337 421.603 645.716C405.991 643.543 392.461 637.576 382.376 625.574C374.659 616.365 370.101 605.535 365.902 594.567C365.22 592.774 364.933 590.842 364.467 588.945C359.622 569.286 361.99 572.114 350.685 556.042C341.569 543.108 340.169 528.347 341.748 513.171C343.005 500.996 344.62 488.821 345.337 476.612C346.127 463.264 346.055 449.882 346.45 436.5C346.594 432.223 346.952 427.981 347.455 423.739C347.596 422.637 347.867 421.551 348.175 420.47C348.722 418.547 350.622 417.303 352.615 417.467C365.751 418.549 377.836 416.681 388.374 410.151C389.277 409.592 390.355 409.367 391.392 409.593C394.503 410.269 397.237 410.983 399.998 411.219C409.58 412.047 417.799 408.425 424.869 402.7C436.139 393.526 447.516 384.386 458.067 374.487C467.471 365.658 473.608 354.759 475.007 341.86C475.244 339.49 475.449 337.181 475.681 334.905ZM452.887 199.704C450.282 200.188 447.972 198.044 448.29 195.413C448.899 190.366 449.526 185.571 449.633 180.758C449.813 172.377 449.31 163.961 448.987 155.546C448.485 142.957 445.757 130.713 442.527 118.573C441.738 115.572 441.845 112.916 443.03 110.123C445.685 103.949 449.382 98.3961 453.725 93.2227C472.244 71.1836 495.429 55.1458 522.562 44.316C537.743 38.2457 553.427 34.1415 570.116 34.5209C575.427 34.6243 579.842 36.3833 583.359 40.2806C587.773 45.1093 591.47 50.4552 592.834 56.7668C594.413 64.1476 595.526 71.6664 596.279 79.1852C597.141 87.8422 598.469 96.3612 601.232 104.673C605.216 116.607 613.363 124.401 625.745 128.195C635.327 131.127 645.125 131.679 655.067 131.058C658.369 130.851 661.67 130.782 664.972 130.713C667.951 130.644 670.284 131.782 671.54 134.507C673.335 138.404 676.278 141.37 679.615 144.026C681.374 145.44 683.133 146.854 684.784 148.406C695.766 158.615 698.35 172.687 688.301 185.173C684.568 189.794 680.01 193.933 675.416 197.83C669.925 202.452 663.932 206.556 658.225 210.971C656.323 212.42 654.493 214.006 652.913 215.765C630.159 241.253 601.053 255.084 566.634 259.119C556.37 260.326 546.141 261.533 536.81 266.258C535.653 266.814 534.355 265.667 533.992 264.436C533.433 262.537 532.903 260.708 532.431 258.843C528.878 245.15 524.177 231.906 516.424 219.8C511.4 212.006 504.617 205.97 496.613 201.141C492.055 198.382 486.959 196.727 481.539 196.968C474.684 197.244 467.829 197.761 461.01 198.451C458.298 198.727 455.612 199.198 452.887 199.704ZM224.048 202.874C223.196 204.268 221.571 205.005 219.983 204.622C205.707 201.174 194.06 190.856 190.509 175.515C187.458 162.375 188.176 149.234 190.939 136.162C193.488 124.022 196.215 111.951 198.62 99.7757C199.804 93.7745 199.266 87.7387 197.615 81.772C195.461 73.9772 190.724 67.6312 185.879 61.2505C182.254 56.4564 178.88 51.5244 175.686 46.4544C172.851 42.0052 172.671 37.1422 174.071 32.0721C176.763 22.1735 182.541 21.3112 190.042 22.4494C191.837 22.7253 193.667 23.3807 195.318 24.2084C198.871 26.0019 202.46 27.7609 205.762 29.9337C214.052 35.3831 222.128 41.1429 230.346 46.6613C239.498 52.766 249.332 57.5601 260.279 59.7675C266.703 61.0436 273.271 62.0093 279.803 62.5267C289.026 63.2165 298.142 62.1473 306.792 58.7328C311.888 56.7324 312.857 54.7319 311.314 49.6964C310.381 46.6613 309.196 43.6952 308.227 40.6946C307.764 39.3105 309.27 38.0463 310.683 38.4119C313.674 39.1859 316.475 39.942 319.317 40.3842C324.916 41.2464 330.048 39.2805 335.145 37.418C344.476 34.0035 354.059 33.2448 363.892 34.8658C384.457 38.2458 400.069 49.4895 413.672 63.8718C415.215 65.4928 416.507 67.3552 417.655 69.2522C427.92 85.9798 435.313 103.88 440.41 122.608C444.429 137.439 446.798 152.58 446.619 167.928C446.511 176.861 445.973 185.793 445.434 194.726C445.336 196.377 444.852 197.996 444.384 199.593C443.985 200.951 442.952 202.053 441.608 202.498C429.414 206.533 418.28 212.004 407.99 219.026C406.484 220.053 404.485 219.968 403.012 218.894C394.282 212.524 384.611 210.183 374.182 211.285C372.126 211.503 370.149 210.272 369.595 208.279C368.667 204.941 367.799 201.827 367.051 198.693C364.682 189.104 360.591 180.447 353.197 173.446C347.455 168.031 340.708 164.893 332.525 164.548C327.249 164.306 321.937 163.823 316.984 161.651C307.402 157.443 297.245 156.201 286.801 156.236C267.241 156.305 251.414 163.72 239.785 178.723C234.904 185 230.992 191.967 226.686 198.624C225.769 200.055 224.896 201.487 224.048 202.874ZM536.388 273.062C535.965 271.429 536.676 269.711 538.163 268.915C542.581 266.549 547.066 265.214 551.704 264.223C560.569 262.361 569.434 261.05 578.478 263.258C583.179 264.396 587.953 265.362 592.69 266.431C611.353 270.604 628.149 278.019 641.5 291.677C649.719 300.058 657.148 308.853 661.778 319.649C668.633 335.514 669.494 351.966 667.592 368.762C665.977 382.972 664.219 397.182 662.388 411.392C661.276 420.083 661.706 428.775 663.321 437.328C665.152 447.192 667.592 456.953 669.997 466.713C673.729 481.854 675.668 497.03 673.012 512.55C671.325 522.38 666.157 530.451 658.548 536.762C644.838 548.109 629.011 550.455 612.286 544.212C584.974 534.003 569.828 512.999 560.138 487.683C556.908 479.199 555.006 470.266 552.242 461.574C550.161 455.021 546.608 449.296 541.26 444.571C530.421 434.983 522.346 423.498 516.963 410.357C510.79 395.388 504.796 380.351 498.874 365.279C493.553 351.789 485.569 339.972 476.453 329.829C476.001 329.326 475.677 328.719 475.525 328.059C473.774 320.467 472.776 313.324 470.198 306.749C467.942 300.937 467.984 295.255 468.055 288.902C468.064 288.114 469.221 287.774 469.516 288.504C476.479 307.094 488.323 322.822 501.315 337.756C509.569 347.24 519.834 354.69 531.534 359.933C535.518 361.726 539.86 362.899 544.167 363.727C550.556 364.968 557.698 361.83 559.313 356.898C560.712 352.69 562.327 348.448 562.004 343.792C561.789 340.618 560.425 337.687 560.21 334.652C559.851 329.996 558.559 325.719 556.729 321.546C552.027 310.75 547.182 300.024 542.301 289.298C539.918 284.033 537.855 278.717 536.388 273.062ZM277.871 282.383C277.345 283.674 276.201 284.618 274.833 284.885C273.351 285.175 271.947 285.455 270.543 285.642C259.776 287.021 248.937 288.021 238.242 289.815C223.779 292.264 209.961 296.747 197.184 303.921C186.022 310.164 177.732 318.89 172.42 330.134C170.195 334.893 168.616 339.929 166.57 344.757C164.058 350.62 161.869 356.656 158.674 362.14C151.353 374.591 140.514 382.903 125.584 385.662C115.642 387.49 105.701 387.663 95.7236 385.731C79.2501 382.558 65.1095 375.764 54.8809 362.554C52.1533 359.036 49.641 355.311 47.3441 351.517C44.5447 346.896 40.3814 344.688 35.0339 344.412C32.0191 344.274 29.0044 344.654 25.9896 344.619C21.5393 344.585 17.0889 344.688 12.7104 344.24C7.07566 343.688 4.56337 340.894 3.37901 335.583C2.12286 329.996 3.12778 324.615 4.49159 319.235C9.55206 299.058 20.1396 282.331 38.4075 270.707C44.6164 266.776 51.1843 263.327 57.6445 259.774C61.7359 257.532 66.0427 255.566 70.17 253.359C85.7103 245.047 99.1331 234.217 111.407 221.87C119.231 213.972 128.168 207.177 138.074 201.762C148.446 196.106 159.392 192.312 171.666 193.485C174.645 193.761 177.66 193.864 180.639 194.347C189.97 195.864 199.194 197.692 207.449 202.59C210.571 204.452 214.232 205.418 217.641 206.832C219.297 207.539 219.981 209.473 219.102 211.044C218.921 211.368 218.745 211.687 218.575 212.006C215.452 217.835 213.335 223.974 213.191 230.527C213.012 237.459 217.103 241.253 224.245 241.529C229.413 241.736 234.151 240.287 238.78 238.39C243.805 236.321 248.686 234.045 253.747 232.113C262.181 228.871 270.758 226.733 280.126 228.043C289.959 229.423 299.578 231.251 308.766 234.976C310.499 235.675 310.568 238.145 309.09 239.291C294.223 250.82 284.729 265.534 277.871 282.383ZM345.109 336.871C344.815 336.824 344.513 336.87 344.254 337.015C343.735 337.306 343.084 337.193 342.693 336.745C340.715 334.483 338.697 332.215 336.796 329.892C332.955 325.167 330.264 319.856 328.218 314.234C323.373 300.921 322.835 287.297 324.773 273.432C327.931 250.841 339.164 233.114 358.796 220.214C365.615 215.731 372.973 213.765 381.084 214.11C393.214 214.661 402.582 219.904 408.611 229.906C418.194 245.771 419.773 262.982 416.722 280.71C414.389 294.23 408.396 306.473 400.823 317.924C398.419 321.58 395.153 324.891 391.707 327.719C386.324 332.168 379.935 333.307 373.152 330.961C367.661 329.064 362.493 329.375 357.432 332.099C355.422 333.169 353.126 333.858 351.403 335.238C349.449 336.954 347.401 337.241 345.109 336.871ZM413.252 222.448C411.924 221.992 411.541 220.015 412.739 219.283C425.228 211.488 438.507 205.418 453.186 202.728C460.077 201.486 467.112 201.038 474.003 199.865C478.345 199.141 481.539 200.555 484.446 203.349C489.794 208.557 493.957 214.489 495.501 221.697C498.013 233.527 500.453 245.426 502.391 257.36C504.832 272.604 510.646 286.228 521.449 297.748C527.119 303.783 533.077 309.578 538.568 315.751C543.234 320.959 547.792 326.305 551.776 332.03C554.539 335.997 556.549 340.515 558.2 345.033C561.179 353.104 555.114 360.898 546.321 361.002C541.727 361.036 537.563 359.691 533.58 357.794C521.377 351.931 511.005 344.033 502.212 333.893C489.256 318.959 478.238 303.024 471.167 284.676C468.009 276.433 464.815 268.155 460.867 260.223C451.212 240.805 436.246 227.285 413.708 222.594C413.555 222.549 413.404 222.5 413.252 222.448ZM317.352 234.053C316.111 234.711 314.623 234.72 313.371 234.083C305.473 230.065 297.057 227.972 288.488 226.319C275.926 223.905 263.688 224.526 251.88 229.596C247.286 231.561 242.8 233.734 238.099 235.424C234.258 236.804 230.239 237.977 226.183 238.666C222.323 239.328 219.735 238.359 217.629 235.659C216.791 234.585 216.797 233.105 217.411 231.889C218.017 230.689 218.664 229.431 219.4 228.216C225.681 217.766 235.191 210.73 246.461 206.073C260.243 200.383 271.979 192.036 283.427 182.896C289.672 177.895 296.707 173.791 303.633 169.618C308.335 166.789 313.647 165.582 319.281 166.203C322.978 166.617 326.675 166.893 330.371 167.1C339.416 167.583 346.952 170.928 352.946 177.55C359.837 185.173 363.569 194.14 365.508 203.901C365.883 205.793 366.074 207.73 366.232 209.442C366.372 210.969 365.656 212.462 364.357 213.276C360.658 215.592 357.395 217.552 354.31 219.731C350.917 222.131 347.724 224.749 344.248 227.489C343.429 228.134 342.389 228.418 341.35 228.347C332.983 227.776 325.062 229.965 317.352 234.053ZM675.614 517.592C675.478 517.769 675.236 517.827 675.035 517.73C674.855 517.644 674.749 517.453 674.768 517.254C674.821 516.71 674.866 516.17 674.986 515.654C677.067 506.998 677.641 498.237 676.888 489.408C675.955 478.543 673.514 467.955 670.643 457.436C667.592 446.226 665.224 434.948 665.008 423.291C664.721 407.08 667.485 391.215 669.71 375.246C671.325 363.451 671.899 351.69 670.356 339.825C668.31 324.236 662.245 310.336 651.657 298.368C647.961 294.161 643.833 290.332 639.885 286.331C639.486 285.914 639.086 285.505 638.683 285.096C638.083 284.488 638.423 283.465 639.168 283.883C649.504 289.366 659.481 295.299 667.951 303.3C678.754 313.509 687.762 324.96 694.689 337.997C700.324 348.586 705.348 359.312 708.794 370.763C711.773 380.696 712.598 390.698 711.091 400.976C709.763 409.909 706.641 418.29 703.626 426.774C700.073 436.776 696.125 446.744 693.505 456.987C691.28 465.748 690.777 474.922 689.342 483.889C687.619 494.754 684.138 505.032 678 514.378C677.279 515.45 676.438 516.521 675.614 517.592ZM298.905 370.82C297.737 372.965 295.055 373.998 293.074 372.57C287.773 368.75 283.977 363.867 280.915 358.346C276.07 349.551 273.917 339.998 273.271 330.168C272.553 318.545 273.522 307.025 276.68 295.747C281.705 277.605 290.103 261.154 303.921 247.634C311.601 240.149 320.43 234.355 331.305 232.079C332.786 231.768 334.288 231.419 335.885 231.272C337.999 231.077 338.991 233.502 337.693 235.183C331.125 243.529 326.28 252.669 323.804 262.913C320.932 274.674 319.784 286.504 321.435 298.575C323.337 312.095 327.536 324.546 337.19 334.997C341.856 340.067 346.271 341.377 352.695 338.721C353.034 338.579 353.371 338.439 353.706 338.301C355.49 337.563 357.596 338.186 358.455 339.914C360.375 343.781 360.354 346.703 358.378 349.61C357.458 350.965 355.657 351.255 354.109 350.724C343.358 347.031 332.601 348.444 322.153 352.793C312.697 356.718 303.929 361.593 298.905 370.82ZM412.128 229.734C410.822 227.608 412.694 225.038 415.113 225.649C423.446 227.754 430.77 230.918 437.18 235.907C455.232 249.876 464.312 268.328 465.281 290.401C465.784 301.714 461.513 311.647 454.263 320.545C450.818 324.753 447.803 329.306 444.681 333.755C443.568 335.341 442.886 337.238 441.738 338.756C433.985 348.896 423.9 355.828 411.124 358.864C403.335 360.726 395.476 360.795 387.795 358.484C382.448 356.863 379.505 351.793 381.299 346.758C383.452 340.722 386.862 335.273 392.317 331.341C396.875 328.064 400.751 324.201 403.658 319.58C415.574 300.714 423.147 280.744 420.634 258.084C419.522 248.117 417.297 238.563 412.128 229.734ZM308.631 51.9656C308.887 53.6328 307.776 55.1387 306.199 55.738C304.045 56.5566 301.983 57.3629 299.829 57.905C289.242 60.5952 278.546 59.9399 267.815 58.3878C253.459 56.2839 240.79 50.4552 229.054 42.4191C221.589 37.2801 214.088 32.21 206.48 27.2435C201.599 24.0359 196.359 21.4837 190.473 20.4835C189.716 20.3514 190.194 19.0779 190.959 19.0092C199.408 18.2507 207.338 18.7861 215.237 20.0352C222.307 21.1733 229.377 22.3115 236.484 22.9323C250.122 24.1394 263.221 21.2078 276.249 17.6208C292.759 13.0682 309.304 8.58447 325.921 4.44568C336.15 1.89343 346.414 2.34186 356.176 6.72205C366.118 11.1712 375.377 16.5861 383.129 24.1739C390.81 31.6582 397.808 39.6599 403.981 48.3513C404.599 49.2256 403.594 50.2559 402.674 49.7094C400.118 48.1917 397.78 46.4864 395.404 44.7989C382.268 35.4866 367.553 31.0029 351.187 31.3478C343.866 31.4858 337.011 33.3482 330.371 35.9694C323.947 38.4872 317.81 38.0389 311.601 35.5211C310.273 34.9692 308.981 34.3484 307.617 34.0035C305.771 33.5599 304.101 35.4261 304.339 37.3102C304.974 42.3454 307.832 46.7675 308.631 51.9656ZM697.518 177.093C697.369 177.308 697.106 177.415 696.853 177.351C696.508 177.265 696.277 176.926 696.323 176.573C696.417 175.867 696.498 175.143 696.663 174.481C698.888 166.307 696.986 158.822 691.962 152.2C689.378 148.786 686.112 145.785 682.881 142.923C679.364 139.818 675.919 136.818 673.873 132.541C672.437 129.471 669.782 128.161 666.229 128.195C659.338 128.333 652.447 128.506 645.592 128.264C640.603 128.092 635.543 127.643 630.698 126.574C617.095 123.539 607.656 115.917 603.744 102.638C602.883 99.7412 601.806 96.8441 601.376 93.8779C600.083 84.6346 599.043 75.3224 597.894 66.0446C596.674 56.284 593.408 47.3166 586.517 39.7634C585.823 39.0133 586.759 37.8503 587.712 38.2189C595.449 41.2117 601.259 45.6938 604.965 52.6625C606.651 55.8356 608.374 59.0087 610.169 62.1818C613.291 67.7346 617.49 72.3563 622.838 76.0121C628.257 79.7371 634.143 82.4963 640.531 84.3242C648.463 86.6006 656.431 88.9459 664.434 90.9808C679.544 94.7747 691.854 102.328 701.113 114.606C709.44 125.609 712.491 137.542 710.014 150.855C708.21 160.612 703.128 168.962 697.518 177.093ZM465.096 308.552C465.641 307.262 467.795 307.138 468.081 308.508C469.516 315.51 471.275 322.477 472.136 329.547C472.71 334.272 472.639 339.273 471.741 343.964C469.48 356.001 463.164 366.141 453.868 374.384C444.896 382.351 435.636 389.973 426.448 397.665C421.998 401.39 417.261 404.701 411.626 406.701C402.725 409.909 394.399 408.977 386.97 403.149C380.294 397.906 376.239 390.905 374.229 383.006C373.008 378.247 373.116 372.935 377.495 369.659C380.581 367.383 383.381 365.21 385.175 361.899C385.468 361.336 386.372 361.514 387.005 361.56C387.363 361.586 387.732 361.621 388.082 361.692C399.065 364.416 409.652 363.175 420.06 359.139C431.114 354.863 439.441 347.516 445.973 338.135C447.947 335.307 449.239 331.996 451.32 329.237C456.212 322.691 461.718 316.556 465.096 308.552ZM383.66 404.398C385.171 405.952 385.047 408.728 383.094 409.667C373.044 414.53 362.313 415.737 351.331 414.185C343.399 413.082 336.437 409.426 329.725 405.39C323.158 401.459 316.554 397.596 309.986 393.664C308.299 392.664 306.576 391.629 304.997 390.422C300.547 386.973 299.075 382.489 300.224 377.143C301.48 371.176 304.602 366.451 309.771 362.968C318.061 357.346 326.89 352.828 337.155 351.862C348.352 350.827 358.33 352.759 364.431 363.313C365.292 364.83 367.338 365.727 368.881 366.831C369.195 367.053 369.514 367.263 369.833 367.465C371.382 368.445 372.089 370.293 371.682 372.081C368.649 385.419 374.81 395.291 383.66 404.398ZM152.272 376.296C151.991 376.486 151.614 376.443 151.383 376.195C151.114 375.906 151.146 375.448 151.447 375.192C160.89 367.164 165.218 356.305 169.477 345.413C171.128 341.17 172.564 336.825 174.43 332.686C180.244 319.959 189.827 310.681 202.639 304.266C219.4 295.885 237.381 291.815 255.936 289.539C257.124 289.392 258.311 289.244 259.494 289.102C260.819 288.943 261.539 290.187 260.422 290.919C256.223 293.54 251.916 296.023 247.861 298.851C234.904 307.819 223.563 318.579 212.007 329.064C206.695 333.858 201.85 339.101 196.359 343.723C188.822 350.103 181.106 356.242 173.138 362.14C166.404 367.095 159.259 371.588 152.272 376.296ZM487.233 202.004C486.718 201.609 487.328 200.76 487.971 200.848C490.707 201.227 492.954 202.402 495.07 203.728C503.002 208.626 509.713 214.696 514.594 222.629C521.521 233.872 525.935 246.013 529.237 258.636C532.934 272.949 537.42 286.918 544.203 300.265C548.905 309.509 552.422 319.304 556.298 328.926C557.321 331.417 557.761 334.125 558.449 336.756C558.51 336.993 558.399 337.24 558.169 337.323C557.947 337.404 557.702 337.286 557.607 337.069C553.32 327.242 546.298 319.344 538.855 311.681C533.257 305.956 527.73 300.162 522.418 294.195C514.163 284.917 508.6 274.329 506.483 262.188C504.617 251.359 502.678 240.529 500.597 229.699C498.628 219.446 495.337 209.708 487.34 202.094C487.302 202.057 487.275 202.036 487.233 202.004ZM172.82 59.9572C172.975 56.1898 177.796 54.7513 180.018 57.7974C182.554 61.2744 185.047 64.6625 187.602 68.0106C195.713 78.6679 198.01 90.4979 195.39 103.259C193.523 112.296 191.442 121.263 189.324 130.265C186.058 144.199 184.371 158.202 187.279 172.411C187.862 175.346 188.708 178.186 189.471 181.083C189.531 181.311 189.413 181.551 189.2 181.654C188.986 181.757 188.734 181.672 188.614 181.467C187.268 179.144 185.781 176.875 184.587 174.481C175.614 156.581 170.913 137.611 170.877 117.848C170.805 99.9481 172.025 82.0479 172.671 64.1476C172.711 62.7554 172.762 61.3605 172.82 59.9572ZM304.357 160.682C307.561 161.253 307.544 164.868 304.56 166.166C302.384 167.113 300.285 168.105 298.322 169.307C292.149 173.032 286.083 177.033 280.484 181.517C269.861 190.001 258.986 198.037 246.066 203.107C243.41 204.142 240.97 205.625 238.457 206.97C229.449 211.764 222.451 218.524 217.426 227.181C217.094 227.755 216.204 227.408 216.274 226.749C216.551 224.142 217.073 221.636 217.857 219.214C218.754 216.489 219.723 213.627 221.302 211.247C228.408 200.59 235.407 189.829 243.087 179.551C249.512 170.963 258.448 165.203 268.964 161.857C279.121 158.615 289.457 158.271 299.937 159.995C301.403 160.221 302.888 160.42 304.357 160.682ZM467.309 633.9C467.091 634.031 466.811 633.987 466.644 633.795C466.495 633.623 466.475 633.375 466.591 633.179C466.985 632.515 467.368 631.822 467.829 631.23C472.711 624.849 476.479 617.951 479.171 610.467C481.001 605.397 482.939 600.362 484.877 595.326C489.543 583.289 498.12 574.874 510.538 570.148C516.783 567.769 523.136 565.596 529.488 563.492C537.276 560.905 544.67 557.732 550.52 551.869C550.815 551.585 551.371 552.098 551.365 552.507C551.364 552.55 551.358 552.59 551.345 552.628C546.787 566.355 539.681 578.357 526.761 586.462C523.746 588.359 520.803 590.291 517.752 592.119C510.897 596.223 504.796 601.189 499.413 606.984C490.907 616.158 481.611 624.539 471.06 631.575C469.853 632.421 468.558 633.153 467.309 633.9ZM28.6455 274.846C27.263 275.953 25.6182 274.742 26.5065 273.21C34.5977 259.252 56.3117 237.403 74.0461 225.56C88.8941 215.663 113.186 204.594 129.073 199.471C132.88 198.243 133.919 201.302 130.545 203.451C130.206 203.667 129.868 203.886 129.532 204.108C121.744 209.247 114.709 215.213 108.034 221.732C92.4576 236.976 74.5845 249.289 54.4144 258.498C45.083 262.775 36.5053 268.293 28.6455 274.846Z"/>
</mask>
<path d="M176.637 363.907C176.803 364.052 176.834 364.317 176.701 364.493C175.709 365.796 174.744 367.075 173.748 368.383C155.301 392.802 141.447 419.428 132.654 448.399C128.455 462.264 127.02 476.543 127.917 490.925C128.563 501.514 130.142 512.033 134.664 521.897C135.454 523.656 136.351 525.415 137.212 527.14C143.529 539.521 153.686 547.04 167.898 549.351C169.441 549.593 170.985 549.937 172.528 550.213C181.895 551.972 189.288 556.525 194.098 564.561C197.328 569.942 200.45 575.356 203.573 580.771C207.126 586.98 211.145 592.808 216.78 597.499C221.661 601.569 227.116 604.88 233.576 605.19C238.637 605.432 243.877 604.673 248.83 603.569C253.962 602.431 258.951 600.569 263.867 598.672C269.502 596.464 275.245 595.016 281.382 594.947C283.356 594.912 285.401 594.567 287.268 593.912C300.296 589.256 311.816 582.668 319.64 571.114C327.285 559.802 332.668 547.558 336.76 534.693C337.149 533.434 338.978 533.576 339.207 534.874C339.483 536.441 339.749 537.882 340.062 539.315C341.784 547.109 344.943 554.387 349.967 560.664C355.781 567.872 358.94 575.908 360.375 584.772C360.95 588.428 362.026 592.015 362.923 595.636C365.974 607.777 372.506 618.262 380.366 627.919C389.518 639.163 402.259 645.06 416.543 647.889C428.207 650.165 439.62 648.82 450.782 644.991C464.958 640.128 477.053 632.127 487.964 622.366C492.881 617.951 497.618 613.295 502.176 608.536C507.165 603.328 512.656 598.741 518.937 595.016C519.798 594.498 520.588 593.912 521.485 593.464C539.968 583.806 550.125 568.321 555.652 549.317C560.066 534.21 560.712 518.931 559.241 503.445C558.996 500.747 562.147 499.996 563.322 502.437C563.373 502.543 563.425 502.649 563.476 502.755C572.448 521.483 586.445 535.624 605.646 544.798C618.172 550.8 631.344 552.352 644.838 547.868C652.16 545.454 658.512 541.453 663.932 536.21C679.615 521 690.167 503.273 692.715 481.613C693.72 473.128 694.474 464.54 696.735 456.332C699.678 445.571 703.841 435.121 707.717 424.601C711.127 415.358 713.854 405.977 714.752 396.182C715.577 387.421 714.285 378.868 711.773 370.452C706.138 351.621 697.489 334.203 685.645 318.2C672.366 300.334 654.672 287.78 634.394 278.192C617.705 270.294 600.227 264.741 581.923 261.602C580.71 261.39 581.034 259.875 582.218 259.538C582.762 259.383 583.309 259.238 583.861 259.119C608.231 254.083 628.975 242.598 647.063 226.354C647.709 225.802 648.355 225.25 648.894 224.595C656.395 215.11 666.731 208.729 676.134 201.279C679.903 198.279 683.707 195.347 687.332 192.243C699.929 181.413 709.189 168.411 712.742 152.373C715.649 139.37 713.495 126.988 705.671 115.607C696.053 101.638 683.025 92.5328 666.085 88.394C656.789 86.1177 647.602 83.393 638.522 80.4614C626.032 76.3916 616.449 68.9418 610.85 57.1807C610.24 55.9391 609.523 54.7319 608.912 53.4903C602.452 40.1082 590.609 34.314 576.217 32.348C559.995 30.1407 544.526 33.7276 529.452 38.8321C498.731 49.2825 472.746 66.3895 452.146 90.7738C447.695 96.0508 443.819 101.673 441.199 108.019C440.82 108.869 439.525 108.689 439.145 107.84C438.898 107.29 438.682 106.779 438.507 106.26C428.315 77.7367 412.774 52.1797 392.353 29.3474C387.975 24.4498 382.95 20.0696 377.89 15.7929C370.819 9.82617 362.421 5.8598 353.664 2.65228C343.328 -1.1416 332.776 -0.486328 322.368 2.23834C304.961 6.75653 287.591 11.5506 270.22 16.2412C262.217 18.4141 254.07 20.38 245.743 20.4146C238.493 20.449 231.172 19.6212 223.958 18.621C214.16 17.2415 204.47 15.103 194.528 15.8618C190.724 16.1378 186.848 16.8621 183.187 17.9313C177.158 19.7247 173.21 23.8635 171.666 29.7613C170.805 33.0723 170.267 36.5213 170.051 39.9358C169.764 43.9022 170.087 47.9374 169.944 51.9382C169.477 64.0442 168.867 76.1846 168.436 88.2905C167.97 101.914 166.534 115.572 168.293 129.196C170.339 145.268 173.928 160.995 181.644 175.515C184.551 180.999 188.642 185.897 192.195 191.036C193.077 192.264 192.125 193.91 190.645 193.602C188.147 193.082 185.846 192.604 183.546 192.14C166.247 188.76 149.199 190.519 132.654 195.554C99.9945 205.556 70.17 220.525 46.0879 244.564C25.9537 264.672 11.8131 288.297 2.58943 314.648C0.364262 320.959 -0.389425 327.512 0.184813 334.203C0.90261 342.826 5.20939 347.068 14.4331 347.482C20.1755 347.723 25.9178 347.792 31.6602 347.447C38.3357 347.034 42.6425 349.482 45.9085 355.173C57.1061 374.763 74.6204 385.731 97.554 388.973C117.904 391.87 136.961 388.214 154.547 378.04C161.294 374.143 167.611 369.555 174.143 365.279C174.827 364.809 175.541 364.368 176.231 363.903C176.359 363.817 176.52 363.805 176.637 363.907ZM343.264 415.274C344.675 415.764 345.742 417.074 345.66 418.566C344.835 427.464 343.758 436.362 343.22 445.295C342.682 454.228 342.502 463.195 342.43 472.163C342.323 487.097 340.636 501.824 337.98 516.517C334.929 533.21 329.295 548.972 320.825 563.871C313.575 576.598 302.772 585.117 288.883 590.187C285.473 591.429 281.705 592.291 278.044 592.429C272.912 592.636 268.21 593.946 263.473 595.671C257.73 597.74 251.88 599.672 245.994 601.362C234.689 604.604 225.035 601.534 217.031 593.567C214.16 590.704 211.576 587.531 209.351 584.186C206.48 579.909 204.219 575.287 201.527 570.873C199.122 566.941 196.682 563.078 193.99 559.319C190.652 554.628 186.094 551.317 180.459 549.558C177.481 548.627 174.466 547.558 171.379 547.144C154.045 544.971 143.314 535.245 136.997 520.104C133.767 512.343 131.936 504.307 131.183 496.064C129.639 479.475 130.896 463.023 135.992 447.02C144.318 420.876 156.593 396.492 172.887 374.108C178.629 366.21 185.089 358.76 191.765 351.586C197.687 345.275 204.254 339.48 210.751 333.72C221.302 324.374 231.854 315.027 242.728 306.06C250.696 299.507 259.453 293.954 269.143 289.918C269.77 289.657 270.404 289.418 271.067 289.181C273.003 288.489 275.011 290.32 274.455 292.298C269.538 309.853 268.067 327.547 272.553 345.378C275.962 358.933 282.566 370.59 295.594 377.936C296.372 378.385 296.551 379.439 296.604 380.335C296.979 386.664 299.951 391.814 306.074 394.836C318.767 401.099 329.535 410.507 343.264 415.274ZM475.681 334.905C475.707 334.655 475.899 334.46 476.147 334.419C476.37 334.382 476.603 334.461 476.736 334.643C477.622 335.862 478.461 337.126 479.422 338.273C486.815 347.172 492.414 357.036 496.577 367.727C502.427 382.696 508.421 397.561 514.558 412.426C519.547 424.498 526.689 435.397 536.559 444.191C543.521 450.4 547.684 457.78 549.945 466.334C555.472 487.235 558.667 508.412 556.765 530.071C555.616 543.177 549.299 552.697 536.559 557.905C533.544 559.146 530.421 560.181 527.335 561.285C520.911 563.595 514.343 565.665 508.026 568.217C495.752 573.149 487.21 581.703 482.508 593.671C480.427 598.948 478.525 604.293 476.587 609.605C472.926 619.607 467.542 628.643 460.077 636.472C458.678 637.956 456.883 639.301 455.017 640.128C444.393 644.681 433.375 647.337 421.603 645.716C405.991 643.543 392.461 637.576 382.376 625.574C374.659 616.365 370.101 605.535 365.902 594.567C365.22 592.774 364.933 590.842 364.467 588.945C359.622 569.286 361.99 572.114 350.685 556.042C341.569 543.108 340.169 528.347 341.748 513.171C343.005 500.996 344.62 488.821 345.337 476.612C346.127 463.264 346.055 449.882 346.45 436.5C346.594 432.223 346.952 427.981 347.455 423.739C347.596 422.637 347.867 421.551 348.175 420.47C348.722 418.547 350.622 417.303 352.615 417.467C365.751 418.549 377.836 416.681 388.374 410.151C389.277 409.592 390.355 409.367 391.392 409.593C394.503 410.269 397.237 410.983 399.998 411.219C409.58 412.047 417.799 408.425 424.869 402.7C436.139 393.526 447.516 384.386 458.067 374.487C467.471 365.658 473.608 354.759 475.007 341.86C475.244 339.49 475.449 337.181 475.681 334.905ZM452.887 199.704C450.282 200.188 447.972 198.044 448.29 195.413C448.899 190.366 449.526 185.571 449.633 180.758C449.813 172.377 449.31 163.961 448.987 155.546C448.485 142.957 445.757 130.713 442.527 118.573C441.738 115.572 441.845 112.916 443.03 110.123C445.685 103.949 449.382 98.3961 453.725 93.2227C472.244 71.1836 495.429 55.1458 522.562 44.316C537.743 38.2457 553.427 34.1415 570.116 34.5209C575.427 34.6243 579.842 36.3833 583.359 40.2806C587.773 45.1093 591.47 50.4552 592.834 56.7668C594.413 64.1476 595.526 71.6664 596.279 79.1852C597.141 87.8422 598.469 96.3612 601.232 104.673C605.216 116.607 613.363 124.401 625.745 128.195C635.327 131.127 645.125 131.679 655.067 131.058C658.369 130.851 661.67 130.782 664.972 130.713C667.951 130.644 670.284 131.782 671.54 134.507C673.335 138.404 676.278 141.37 679.615 144.026C681.374 145.44 683.133 146.854 684.784 148.406C695.766 158.615 698.35 172.687 688.301 185.173C684.568 189.794 680.01 193.933 675.416 197.83C669.925 202.452 663.932 206.556 658.225 210.971C656.323 212.42 654.493 214.006 652.913 215.765C630.159 241.253 601.053 255.084 566.634 259.119C556.37 260.326 546.141 261.533 536.81 266.258C535.653 266.814 534.355 265.667 533.992 264.436C533.433 262.537 532.903 260.708 532.431 258.843C528.878 245.15 524.177 231.906 516.424 219.8C511.4 212.006 504.617 205.97 496.613 201.141C492.055 198.382 486.959 196.727 481.539 196.968C474.684 197.244 467.829 197.761 461.01 198.451C458.298 198.727 455.612 199.198 452.887 199.704ZM224.048 202.874C223.196 204.268 221.571 205.005 219.983 204.622C205.707 201.174 194.06 190.856 190.509 175.515C187.458 162.375 188.176 149.234 190.939 136.162C193.488 124.022 196.215 111.951 198.62 99.7757C199.804 93.7745 199.266 87.7387 197.615 81.772C195.461 73.9772 190.724 67.6312 185.879 61.2505C182.254 56.4564 178.88 51.5244 175.686 46.4544C172.851 42.0052 172.671 37.1422 174.071 32.0721C176.763 22.1735 182.541 21.3112 190.042 22.4494C191.837 22.7253 193.667 23.3807 195.318 24.2084C198.871 26.0019 202.46 27.7609 205.762 29.9337C214.052 35.3831 222.128 41.1429 230.346 46.6613C239.498 52.766 249.332 57.5601 260.279 59.7675C266.703 61.0436 273.271 62.0093 279.803 62.5267C289.026 63.2165 298.142 62.1473 306.792 58.7328C311.888 56.7324 312.857 54.7319 311.314 49.6964C310.381 46.6613 309.196 43.6952 308.227 40.6946C307.764 39.3105 309.27 38.0463 310.683 38.4119C313.674 39.1859 316.475 39.942 319.317 40.3842C324.916 41.2464 330.048 39.2805 335.145 37.418C344.476 34.0035 354.059 33.2448 363.892 34.8658C384.457 38.2458 400.069 49.4895 413.672 63.8718C415.215 65.4928 416.507 67.3552 417.655 69.2522C427.92 85.9798 435.313 103.88 440.41 122.608C444.429 137.439 446.798 152.58 446.619 167.928C446.511 176.861 445.973 185.793 445.434 194.726C445.336 196.377 444.852 197.996 444.384 199.593C443.985 200.951 442.952 202.053 441.608 202.498C429.414 206.533 418.28 212.004 407.99 219.026C406.484 220.053 404.485 219.968 403.012 218.894C394.282 212.524 384.611 210.183 374.182 211.285C372.126 211.503 370.149 210.272 369.595 208.279C368.667 204.941 367.799 201.827 367.051 198.693C364.682 189.104 360.591 180.447 353.197 173.446C347.455 168.031 340.708 164.893 332.525 164.548C327.249 164.306 321.937 163.823 316.984 161.651C307.402 157.443 297.245 156.201 286.801 156.236C267.241 156.305 251.414 163.72 239.785 178.723C234.904 185 230.992 191.967 226.686 198.624C225.769 200.055 224.896 201.487 224.048 202.874ZM536.388 273.062C535.965 271.429 536.676 269.711 538.163 268.915C542.581 266.549 547.066 265.214 551.704 264.223C560.569 262.361 569.434 261.05 578.478 263.258C583.179 264.396 587.953 265.362 592.69 266.431C611.353 270.604 628.149 278.019 641.5 291.677C649.719 300.058 657.148 308.853 661.778 319.649C668.633 335.514 669.494 351.966 667.592 368.762C665.977 382.972 664.219 397.182 662.388 411.392C661.276 420.083 661.706 428.775 663.321 437.328C665.152 447.192 667.592 456.953 669.997 466.713C673.729 481.854 675.668 497.03 673.012 512.55C671.325 522.38 666.157 530.451 658.548 536.762C644.838 548.109 629.011 550.455 612.286 544.212C584.974 534.003 569.828 512.999 560.138 487.683C556.908 479.199 555.006 470.266 552.242 461.574C550.161 455.021 546.608 449.296 541.26 444.571C530.421 434.983 522.346 423.498 516.963 410.357C510.79 395.388 504.796 380.351 498.874 365.279C493.553 351.789 485.569 339.972 476.453 329.829C476.001 329.326 475.677 328.719 475.525 328.059C473.774 320.467 472.776 313.324 470.198 306.749C467.942 300.937 467.984 295.255 468.055 288.902C468.064 288.114 469.221 287.774 469.516 288.504C476.479 307.094 488.323 322.822 501.315 337.756C509.569 347.24 519.834 354.69 531.534 359.933C535.518 361.726 539.86 362.899 544.167 363.727C550.556 364.968 557.698 361.83 559.313 356.898C560.712 352.69 562.327 348.448 562.004 343.792C561.789 340.618 560.425 337.687 560.21 334.652C559.851 329.996 558.559 325.719 556.729 321.546C552.027 310.75 547.182 300.024 542.301 289.298C539.918 284.033 537.855 278.717 536.388 273.062ZM277.871 282.383C277.345 283.674 276.201 284.618 274.833 284.885C273.351 285.175 271.947 285.455 270.543 285.642C259.776 287.021 248.937 288.021 238.242 289.815C223.779 292.264 209.961 296.747 197.184 303.921C186.022 310.164 177.732 318.89 172.42 330.134C170.195 334.893 168.616 339.929 166.57 344.757C164.058 350.62 161.869 356.656 158.674 362.14C151.353 374.591 140.514 382.903 125.584 385.662C115.642 387.49 105.701 387.663 95.7236 385.731C79.2501 382.558 65.1095 375.764 54.8809 362.554C52.1533 359.036 49.641 355.311 47.3441 351.517C44.5447 346.896 40.3814 344.688 35.0339 344.412C32.0191 344.274 29.0044 344.654 25.9896 344.619C21.5393 344.585 17.0889 344.688 12.7104 344.24C7.07566 343.688 4.56337 340.894 3.37901 335.583C2.12286 329.996 3.12778 324.615 4.49159 319.235C9.55206 299.058 20.1396 282.331 38.4075 270.707C44.6164 266.776 51.1843 263.327 57.6445 259.774C61.7359 257.532 66.0427 255.566 70.17 253.359C85.7103 245.047 99.1331 234.217 111.407 221.87C119.231 213.972 128.168 207.177 138.074 201.762C148.446 196.106 159.392 192.312 171.666 193.485C174.645 193.761 177.66 193.864 180.639 194.347C189.97 195.864 199.194 197.692 207.449 202.59C210.571 204.452 214.232 205.418 217.641 206.832C219.297 207.539 219.981 209.473 219.102 211.044C218.921 211.368 218.745 211.687 218.575 212.006C215.452 217.835 213.335 223.974 213.191 230.527C213.012 237.459 217.103 241.253 224.245 241.529C229.413 241.736 234.151 240.287 238.78 238.39C243.805 236.321 248.686 234.045 253.747 232.113C262.181 228.871 270.758 226.733 280.126 228.043C289.959 229.423 299.578 231.251 308.766 234.976C310.499 235.675 310.568 238.145 309.09 239.291C294.223 250.82 284.729 265.534 277.871 282.383ZM345.109 336.871C344.815 336.824 344.513 336.87 344.254 337.015C343.735 337.306 343.084 337.193 342.693 336.745C340.715 334.483 338.697 332.215 336.796 329.892C332.955 325.167 330.264 319.856 328.218 314.234C323.373 300.921 322.835 287.297 324.773 273.432C327.931 250.841 339.164 233.114 358.796 220.214C365.615 215.731 372.973 213.765 381.084 214.11C393.214 214.661 402.582 219.904 408.611 229.906C418.194 245.771 419.773 262.982 416.722 280.71C414.389 294.23 408.396 306.473 400.823 317.924C398.419 321.58 395.153 324.891 391.707 327.719C386.324 332.168 379.935 333.307 373.152 330.961C367.661 329.064 362.493 329.375 357.432 332.099C355.422 333.169 353.126 333.858 351.403 335.238C349.449 336.954 347.401 337.241 345.109 336.871ZM413.252 222.448C411.924 221.992 411.541 220.015 412.739 219.283C425.228 211.488 438.507 205.418 453.186 202.728C460.077 201.486 467.112 201.038 474.003 199.865C478.345 199.141 481.539 200.555 484.446 203.349C489.794 208.557 493.957 214.489 495.501 221.697C498.013 233.527 500.453 245.426 502.391 257.36C504.832 272.604 510.646 286.228 521.449 297.748C527.119 303.783 533.077 309.578 538.568 315.751C543.234 320.959 547.792 326.305 551.776 332.03C554.539 335.997 556.549 340.515 558.2 345.033C561.179 353.104 555.114 360.898 546.321 361.002C541.727 361.036 537.563 359.691 533.58 357.794C521.377 351.931 511.005 344.033 502.212 333.893C489.256 318.959 478.238 303.024 471.167 284.676C468.009 276.433 464.815 268.155 460.867 260.223C451.212 240.805 436.246 227.285 413.708 222.594C413.555 222.549 413.404 222.5 413.252 222.448ZM317.352 234.053C316.111 234.711 314.623 234.72 313.371 234.083C305.473 230.065 297.057 227.972 288.488 226.319C275.926 223.905 263.688 224.526 251.88 229.596C247.286 231.561 242.8 233.734 238.099 235.424C234.258 236.804 230.239 237.977 226.183 238.666C222.323 239.328 219.735 238.359 217.629 235.659C216.791 234.585 216.797 233.105 217.411 231.889C218.017 230.689 218.664 229.431 219.4 228.216C225.681 217.766 235.191 210.73 246.461 206.073C260.243 200.383 271.979 192.036 283.427 182.896C289.672 177.895 296.707 173.791 303.633 169.618C308.335 166.789 313.647 165.582 319.281 166.203C322.978 166.617 326.675 166.893 330.371 167.1C339.416 167.583 346.952 170.928 352.946 177.55C359.837 185.173 363.569 194.14 365.508 203.901C365.883 205.793 366.074 207.73 366.232 209.442C366.372 210.969 365.656 212.462 364.357 213.276C360.658 215.592 357.395 217.552 354.31 219.731C350.917 222.131 347.724 224.749 344.248 227.489C343.429 228.134 342.389 228.418 341.35 228.347C332.983 227.776 325.062 229.965 317.352 234.053ZM675.614 517.592C675.478 517.769 675.236 517.827 675.035 517.73C674.855 517.644 674.749 517.453 674.768 517.254C674.821 516.71 674.866 516.17 674.986 515.654C677.067 506.998 677.641 498.237 676.888 489.408C675.955 478.543 673.514 467.955 670.643 457.436C667.592 446.226 665.224 434.948 665.008 423.291C664.721 407.08 667.485 391.215 669.71 375.246C671.325 363.451 671.899 351.69 670.356 339.825C668.31 324.236 662.245 310.336 651.657 298.368C647.961 294.161 643.833 290.332 639.885 286.331C639.486 285.914 639.086 285.505 638.683 285.096C638.083 284.488 638.423 283.465 639.168 283.883C649.504 289.366 659.481 295.299 667.951 303.3C678.754 313.509 687.762 324.96 694.689 337.997C700.324 348.586 705.348 359.312 708.794 370.763C711.773 380.696 712.598 390.698 711.091 400.976C709.763 409.909 706.641 418.29 703.626 426.774C700.073 436.776 696.125 446.744 693.505 456.987C691.28 465.748 690.777 474.922 689.342 483.889C687.619 494.754 684.138 505.032 678 514.378C677.279 515.45 676.438 516.521 675.614 517.592ZM298.905 370.82C297.737 372.965 295.055 373.998 293.074 372.57C287.773 368.75 283.977 363.867 280.915 358.346C276.07 349.551 273.917 339.998 273.271 330.168C272.553 318.545 273.522 307.025 276.68 295.747C281.705 277.605 290.103 261.154 303.921 247.634C311.601 240.149 320.43 234.355 331.305 232.079C332.786 231.768 334.288 231.419 335.885 231.272C337.999 231.077 338.991 233.502 337.693 235.183C331.125 243.529 326.28 252.669 323.804 262.913C320.932 274.674 319.784 286.504 321.435 298.575C323.337 312.095 327.536 324.546 337.19 334.997C341.856 340.067 346.271 341.377 352.695 338.721C353.034 338.579 353.371 338.439 353.706 338.301C355.49 337.563 357.596 338.186 358.455 339.914C360.375 343.781 360.354 346.703 358.378 349.61C357.458 350.965 355.657 351.255 354.109 350.724C343.358 347.031 332.601 348.444 322.153 352.793C312.697 356.718 303.929 361.593 298.905 370.82ZM412.128 229.734C410.822 227.608 412.694 225.038 415.113 225.649C423.446 227.754 430.77 230.918 437.18 235.907C455.232 249.876 464.312 268.328 465.281 290.401C465.784 301.714 461.513 311.647 454.263 320.545C450.818 324.753 447.803 329.306 444.681 333.755C443.568 335.341 442.886 337.238 441.738 338.756C433.985 348.896 423.9 355.828 411.124 358.864C403.335 360.726 395.476 360.795 387.795 358.484C382.448 356.863 379.505 351.793 381.299 346.758C383.452 340.722 386.862 335.273 392.317 331.341C396.875 328.064 400.751 324.201 403.658 319.58C415.574 300.714 423.147 280.744 420.634 258.084C419.522 248.117 417.297 238.563 412.128 229.734ZM308.631 51.9656C308.887 53.6328 307.776 55.1387 306.199 55.738C304.045 56.5566 301.983 57.3629 299.829 57.905C289.242 60.5952 278.546 59.9399 267.815 58.3878C253.459 56.2839 240.79 50.4552 229.054 42.4191C221.589 37.2801 214.088 32.21 206.48 27.2435C201.599 24.0359 196.359 21.4837 190.473 20.4835C189.716 20.3514 190.194 19.0779 190.959 19.0092C199.408 18.2507 207.338 18.7861 215.237 20.0352C222.307 21.1733 229.377 22.3115 236.484 22.9323C250.122 24.1394 263.221 21.2078 276.249 17.6208C292.759 13.0682 309.304 8.58447 325.921 4.44568C336.15 1.89343 346.414 2.34186 356.176 6.72205C366.118 11.1712 375.377 16.5861 383.129 24.1739C390.81 31.6582 397.808 39.6599 403.981 48.3513C404.599 49.2256 403.594 50.2559 402.674 49.7094C400.118 48.1917 397.78 46.4864 395.404 44.7989C382.268 35.4866 367.553 31.0029 351.187 31.3478C343.866 31.4858 337.011 33.3482 330.371 35.9694C323.947 38.4872 317.81 38.0389 311.601 35.5211C310.273 34.9692 308.981 34.3484 307.617 34.0035C305.771 33.5599 304.101 35.4261 304.339 37.3102C304.974 42.3454 307.832 46.7675 308.631 51.9656ZM697.518 177.093C697.369 177.308 697.106 177.415 696.853 177.351C696.508 177.265 696.277 176.926 696.323 176.573C696.417 175.867 696.498 175.143 696.663 174.481C698.888 166.307 696.986 158.822 691.962 152.2C689.378 148.786 686.112 145.785 682.881 142.923C679.364 139.818 675.919 136.818 673.873 132.541C672.437 129.471 669.782 128.161 666.229 128.195C659.338 128.333 652.447 128.506 645.592 128.264C640.603 128.092 635.543 127.643 630.698 126.574C617.095 123.539 607.656 115.917 603.744 102.638C602.883 99.7412 601.806 96.8441 601.376 93.8779C600.083 84.6346 599.043 75.3224 597.894 66.0446C596.674 56.284 593.408 47.3166 586.517 39.7634C585.823 39.0133 586.759 37.8503 587.712 38.2189C595.449 41.2117 601.259 45.6938 604.965 52.6625C606.651 55.8356 608.374 59.0087 610.169 62.1818C613.291 67.7346 617.49 72.3563 622.838 76.0121C628.257 79.7371 634.143 82.4963 640.531 84.3242C648.463 86.6006 656.431 88.9459 664.434 90.9808C679.544 94.7747 691.854 102.328 701.113 114.606C709.44 125.609 712.491 137.542 710.014 150.855C708.21 160.612 703.128 168.962 697.518 177.093ZM465.096 308.552C465.641 307.262 467.795 307.138 468.081 308.508C469.516 315.51 471.275 322.477 472.136 329.547C472.71 334.272 472.639 339.273 471.741 343.964C469.48 356.001 463.164 366.141 453.868 374.384C444.896 382.351 435.636 389.973 426.448 397.665C421.998 401.39 417.261 404.701 411.626 406.701C402.725 409.909 394.399 408.977 386.97 403.149C380.294 397.906 376.239 390.905 374.229 383.006C373.008 378.247 373.116 372.935 377.495 369.659C380.581 367.383 383.381 365.21 385.175 361.899C385.468 361.336 386.372 361.514 387.005 361.56C387.363 361.586 387.732 361.621 388.082 361.692C399.065 364.416 409.652 363.175 420.06 359.139C431.114 354.863 439.441 347.516 445.973 338.135C447.947 335.307 449.239 331.996 451.32 329.237C456.212 322.691 461.718 316.556 465.096 308.552ZM383.66 404.398C385.171 405.952 385.047 408.728 383.094 409.667C373.044 414.53 362.313 415.737 351.331 414.185C343.399 413.082 336.437 409.426 329.725 405.39C323.158 401.459 316.554 397.596 309.986 393.664C308.299 392.664 306.576 391.629 304.997 390.422C300.547 386.973 299.075 382.489 300.224 377.143C301.48 371.176 304.602 366.451 309.771 362.968C318.061 357.346 326.89 352.828 337.155 351.862C348.352 350.827 358.33 352.759 364.431 363.313C365.292 364.83 367.338 365.727 368.881 366.831C369.195 367.053 369.514 367.263 369.833 367.465C371.382 368.445 372.089 370.293 371.682 372.081C368.649 385.419 374.81 395.291 383.66 404.398ZM152.272 376.296C151.991 376.486 151.614 376.443 151.383 376.195C151.114 375.906 151.146 375.448 151.447 375.192C160.89 367.164 165.218 356.305 169.477 345.413C171.128 341.17 172.564 336.825 174.43 332.686C180.244 319.959 189.827 310.681 202.639 304.266C219.4 295.885 237.381 291.815 255.936 289.539C257.124 289.392 258.311 289.244 259.494 289.102C260.819 288.943 261.539 290.187 260.422 290.919C256.223 293.54 251.916 296.023 247.861 298.851C234.904 307.819 223.563 318.579 212.007 329.064C206.695 333.858 201.85 339.101 196.359 343.723C188.822 350.103 181.106 356.242 173.138 362.14C166.404 367.095 159.259 371.588 152.272 376.296ZM487.233 202.004C486.718 201.609 487.328 200.76 487.971 200.848C490.707 201.227 492.954 202.402 495.07 203.728C503.002 208.626 509.713 214.696 514.594 222.629C521.521 233.872 525.935 246.013 529.237 258.636C532.934 272.949 537.42 286.918 544.203 300.265C548.905 309.509 552.422 319.304 556.298 328.926C557.321 331.417 557.761 334.125 558.449 336.756C558.51 336.993 558.399 337.24 558.169 337.323C557.947 337.404 557.702 337.286 557.607 337.069C553.32 327.242 546.298 319.344 538.855 311.681C533.257 305.956 527.73 300.162 522.418 294.195C514.163 284.917 508.6 274.329 506.483 262.188C504.617 251.359 502.678 240.529 500.597 229.699C498.628 219.446 495.337 209.708 487.34 202.094C487.302 202.057 487.275 202.036 487.233 202.004ZM172.82 59.9572C172.975 56.1898 177.796 54.7513 180.018 57.7974C182.554 61.2744 185.047 64.6625 187.602 68.0106C195.713 78.6679 198.01 90.4979 195.39 103.259C193.523 112.296 191.442 121.263 189.324 130.265C186.058 144.199 184.371 158.202 187.279 172.411C187.862 175.346 188.708 178.186 189.471 181.083C189.531 181.311 189.413 181.551 189.2 181.654C188.986 181.757 188.734 181.672 188.614 181.467C187.268 179.144 185.781 176.875 184.587 174.481C175.614 156.581 170.913 137.611 170.877 117.848C170.805 99.9481 172.025 82.0479 172.671 64.1476C172.711 62.7554 172.762 61.3605 172.82 59.9572ZM304.357 160.682C307.561 161.253 307.544 164.868 304.56 166.166C302.384 167.113 300.285 168.105 298.322 169.307C292.149 173.032 286.083 177.033 280.484 181.517C269.861 190.001 258.986 198.037 246.066 203.107C243.41 204.142 240.97 205.625 238.457 206.97C229.449 211.764 222.451 218.524 217.426 227.181C217.094 227.755 216.204 227.408 216.274 226.749C216.551 224.142 217.073 221.636 217.857 219.214C218.754 216.489 219.723 213.627 221.302 211.247C228.408 200.59 235.407 189.829 243.087 179.551C249.512 170.963 258.448 165.203 268.964 161.857C279.121 158.615 289.457 158.271 299.937 159.995C301.403 160.221 302.888 160.42 304.357 160.682ZM467.309 633.9C467.091 634.031 466.811 633.987 466.644 633.795C466.495 633.623 466.475 633.375 466.591 633.179C466.985 632.515 467.368 631.822 467.829 631.23C472.711 624.849 476.479 617.951 479.171 610.467C481.001 605.397 482.939 600.362 484.877 595.326C489.543 583.289 498.12 574.874 510.538 570.148C516.783 567.769 523.136 565.596 529.488 563.492C537.276 560.905 544.67 557.732 550.52 551.869C550.815 551.585 551.371 552.098 551.365 552.507C551.364 552.55 551.358 552.59 551.345 552.628C546.787 566.355 539.681 578.357 526.761 586.462C523.746 588.359 520.803 590.291 517.752 592.119C510.897 596.223 504.796 601.189 499.413 606.984C490.907 616.158 481.611 624.539 471.06 631.575C469.853 632.421 468.558 633.153 467.309 633.9ZM28.6455 274.846C27.263 275.953 25.6182 274.742 26.5065 273.21C34.5977 259.252 56.3117 237.403 74.0461 225.56C88.8941 215.663 113.186 204.594 129.073 199.471C132.88 198.243 133.919 201.302 130.545 203.451C130.206 203.667 129.868 203.886 129.532 204.108C121.744 209.247 114.709 215.213 108.034 221.732C92.4576 236.976 74.5845 249.289 54.4144 258.498C45.083 262.775 36.5053 268.293 28.6455 274.846Z" stroke="url(#paint0_linear_553_37322)" stroke-opacity="0.1" stroke-width="6" mask="url(#path-1-inside-1_553_37322)"/>
<defs>
<linearGradient id="paint0_linear_553_37322" x1="498512" y1="31394.5" x2="147063" y2="21410.5" gradientUnits="userSpaceOnUse">
<stop stop-color="#AB8D60"/>
<stop offset="0.1745" stop-color="#C4A673"/>
<stop offset="0.5111" stop-color="#F2D495"/>
<stop offset="1" stop-color="#AB8D60"/>
</linearGradient>
</defs>
</svg>
