<svg width="22" height="25" viewBox="0 0 22 25" fill="none" xmlns="http://www.w3.org/2000/svg">
<path d="M1.71436 6.05721L4.95245 1.71436H17.9048L21.1429 6.05721M1.71436 6.05721V21.2572C1.71436 21.8331 1.94179 22.3854 2.34663 22.7926C2.75147 23.1999 3.30055 23.4286 3.87309 23.4286H18.9842C19.5567 23.4286 20.1058 23.1999 20.5106 22.7926C20.9155 22.3854 21.1429 21.8331 21.1429 21.2572V6.05721M1.71436 6.05721H21.1429M15.7461 10.4001C15.7461 11.5519 15.2912 12.6565 14.4815 13.4709C13.6719 14.2854 12.5737 14.7429 11.4286 14.7429C10.2836 14.7429 9.18542 14.2854 8.37574 13.4709C7.56605 12.6565 7.11118 11.5519 7.11118 10.4001" stroke="#EBEBEB" stroke-width="1.5" stroke-linecap="round" stroke-linejoin="round"/>
</svg>
