<svg width="47" height="49" viewBox="0 0 47 49" fill="none" xmlns="http://www.w3.org/2000/svg">
<path d="M23.9631 25.2727C28.3473 24.0614 31.5656 19.0005 31.5656 13.1172C31.5656 6.26273 27.2453 0.686523 21.9347 0.686523C16.6244 0.686523 12.3037 6.26273 12.3037 13.1172C12.3037 19.0005 15.5225 24.0614 19.9066 25.2727L19.2487 27.2863C19.1818 27.491 19.2168 27.715 19.3432 27.8895C19.4696 28.0636 19.6717 28.1669 19.887 28.1669H21.2636C21.2636 28.1752 21.2623 28.1835 21.2623 28.1918V47.8439C21.2623 48.2149 21.5628 48.5158 21.9342 48.5158C22.3052 48.5158 22.6062 48.2149 22.6062 47.8439V28.1918C22.6062 28.1835 22.6053 28.1752 22.6048 28.1669H23.9815C24.1963 28.1669 24.3988 28.0636 24.5248 27.8895C24.6513 27.715 24.6867 27.491 24.6198 27.2863L23.9631 25.2727ZM20.8139 26.8234L21.4137 24.987C21.474 24.8011 21.4508 24.5981 21.3498 24.431C21.2487 24.2635 21.0799 24.1484 20.8874 24.1161C16.76 23.4153 13.6476 18.6868 13.6476 13.1167C13.6476 7.00378 17.3659 2.02994 21.9347 2.02994C26.5039 2.02994 30.2218 7.00378 30.2218 13.1167C30.2218 18.6868 27.1097 23.4153 22.9828 24.1161C22.7899 24.1484 22.621 24.2635 22.52 24.431C22.4189 24.5981 22.3957 24.8011 22.4566 24.987L23.0559 26.8234H20.8139Z" fill="#AE8646"/>
<path d="M22.8824 5.60576C23.4104 5.81486 24.5701 6.62634 25.5701 8.34115C26.3737 9.71869 27.2849 12.0906 27.0618 15.5696C27.0378 15.9397 27.3186 16.2595 27.6887 16.2831C27.7036 16.284 27.7184 16.2844 27.7324 16.2844C28.0868 16.284 28.3794 16.0093 28.4022 15.6558C28.6471 11.8386 27.6283 9.20293 26.7307 7.66398C25.6235 5.76456 24.2319 4.69542 23.3776 4.3564C23.0329 4.21991 22.6422 4.38877 22.5053 4.73348C22.3688 5.07863 22.5377 5.46928 22.8824 5.60576Z" fill="#AE8646"/>
<path d="M38.284 15.5957C33.591 15.5957 29.7729 20.5127 29.7729 26.5565C29.7729 31.7045 32.574 36.1385 36.4025 37.2496L35.854 38.9294C35.787 39.1341 35.8225 39.3581 35.9485 39.5322C36.0749 39.7068 36.277 39.81 36.4922 39.81H37.6121V47.8443C37.6121 48.2152 37.9131 48.5162 38.284 48.5162C38.655 48.5162 38.9559 48.2152 38.9559 47.8443V39.8096H40.0758C40.2911 39.8091 40.4932 39.7059 40.6196 39.5318C40.746 39.3577 40.781 39.1333 40.7141 38.929L40.1655 37.2492C43.9941 36.1376 46.7951 31.7036 46.7951 26.5561C46.7951 20.5131 42.977 15.5957 38.284 15.5957ZM39.1869 36.0978C38.994 36.1306 38.8252 36.2452 38.7241 36.4128C38.623 36.5799 38.5999 36.7828 38.6607 36.9688L39.1493 38.4657H37.4192L37.9078 36.9688C37.9686 36.7828 37.945 36.5799 37.8439 36.4128C37.7429 36.2452 37.574 36.1306 37.3816 36.0978C33.8102 35.4915 31.1168 31.3895 31.1168 26.5565C31.1168 21.2537 34.3321 16.9396 38.284 16.9396C42.236 16.9396 45.4512 21.2537 45.4512 26.5565C45.4512 31.3895 42.7583 35.4915 39.1869 36.0978Z" fill="#AE8646"/>
<path d="M39.5783 18.8132C39.2336 18.6763 38.8429 18.8451 38.706 19.1903C38.5695 19.5354 38.7384 19.9256 39.0831 20.0625C40.3534 20.5665 43.0245 23.4392 42.6873 28.6974C42.6636 29.0675 42.9445 29.3868 43.3146 29.4109C43.329 29.4118 43.3439 29.4122 43.3583 29.4122C43.7122 29.4118 44.0053 29.1366 44.028 28.7836C44.2437 25.4222 43.3456 23.0998 42.5538 21.7428C41.5739 20.0625 40.3386 19.1146 39.5783 18.8132Z" fill="#AE8646"/>
<path d="M7.60262 19.7866C3.52732 19.7866 0.211426 24.0443 0.211426 29.2776C0.211426 33.6902 2.5951 37.4978 5.86813 38.507L5.42892 39.8526C5.36243 40.0573 5.39743 40.2817 5.52385 40.4558C5.65027 40.6299 5.85238 40.7332 6.0676 40.7332H6.93114V47.844C6.93114 48.2149 7.23167 48.5159 7.60306 48.5159C7.97402 48.5159 8.27499 48.2149 8.27499 47.844V40.7332H9.13808C9.35331 40.7332 9.55541 40.6299 9.68184 40.4558C9.80826 40.2817 9.84326 40.0573 9.77676 39.8526L9.33756 38.507C12.6106 37.4973 14.9938 33.6897 14.9938 29.2776C14.9938 24.0443 11.6779 19.7866 7.60262 19.7866ZM8.36029 37.3613C8.16781 37.3941 7.99896 37.5087 7.89747 37.6762C7.79642 37.8434 7.77323 38.0463 7.83404 38.2322L8.212 39.3893H6.99325L7.37121 38.2322C7.43202 38.0463 7.40883 37.8434 7.30778 37.6762C7.20673 37.5087 7.03744 37.3941 6.84496 37.3613C3.82916 36.8495 1.55528 33.3743 1.55528 29.2776C1.55528 24.7854 4.26836 21.1305 7.60262 21.1305C10.9373 21.1305 13.65 24.7854 13.65 29.2776C13.65 33.3743 11.3757 36.8495 8.36029 37.3613Z" fill="#AE8646"/>
<path d="M8.74747 22.5512C8.40232 22.4147 8.01167 22.5836 7.87519 22.9283C7.73827 23.2735 7.90712 23.6641 8.25227 23.8006C8.92901 24.0696 11.5944 26.2123 11.2808 31.1069C11.2571 31.477 11.538 31.7963 11.9081 31.8204C11.9225 31.8213 11.9374 31.8217 11.9518 31.8217C12.3057 31.8213 12.5988 31.5461 12.6215 31.1927C12.9846 25.5364 9.86778 22.9952 8.74747 22.5512Z" fill="#AE8646"/>
</svg>
