<svg width="42" height="54" viewBox="0 0 42 54" fill="none" xmlns="http://www.w3.org/2000/svg">
<path d="M40.25 13C38.7057 13.0229 37.1639 13.1337 35.6321 13.3316C35.8416 12.5711 36.0706 11.7851 36.3171 10.9801C36.7131 10.7489 37.042 10.4184 37.2713 10.0214C37.5007 9.62431 37.6226 9.17432 37.625 8.71578V6.875C37.625 6.64294 37.5328 6.42038 37.3687 6.25628C37.2046 6.09219 36.9821 6 36.75 6C36.6798 6 36.0422 6.00197 35.0252 6.06355C35.0278 5.74209 35.0287 5.4248 35.0273 5.1145C35.0228 4.4207 34.7445 3.75676 34.2529 3.26719C33.7612 2.77762 33.0962 2.50204 32.4023 2.50044H28.8872C28.4789 1.95817 27.9504 1.51791 27.3433 1.2142C26.7362 0.910495 26.067 0.751605 25.3881 0.75H16.7508C16.072 0.75163 15.4028 0.910486 14.7958 1.21411C14.1887 1.51773 13.6602 1.95787 13.2518 2.5H9.66426C9.31152 2.50011 8.96242 2.57129 8.6378 2.70928C8.31317 2.84728 8.01967 3.04927 7.77483 3.30319C7.52998 3.55711 7.3388 3.85776 7.21271 4.18719C7.08661 4.51662 7.02818 4.86808 7.04091 5.22059C7.05141 5.50366 7.06326 5.7861 7.07645 6.06792C6.02394 6.00284 5.35041 6 5.25 6C5.01794 6 4.79538 6.09219 4.63128 6.25628C4.46719 6.42038 4.375 6.64294 4.375 6.875V8.71578C4.37737 9.17418 4.49929 9.62402 4.72873 10.0209C4.95816 10.4177 5.28716 10.7479 5.68323 10.9786C5.92812 11.7787 6.15628 12.5632 6.36584 13.325C4.83461 13.1295 3.29352 13.021 1.75 13C1.51794 13 1.29538 13.0922 1.13128 13.2563C0.967187 13.4204 0.875 13.6429 0.875 13.875V15.7158C0.878476 16.2915 1.06995 16.8504 1.42028 17.3073C1.77061 17.7643 2.26062 18.0942 2.81575 18.247C3.83567 20.8793 4.375 23.2948 4.375 25.25C4.375 27.1895 4.70641 29.9712 6.28512 32.2077C7.75677 34.2925 9.9657 35.4649 12.8604 35.7035C12.7352 35.7957 12.6168 35.8969 12.5063 36.0063C7.92761 40.5849 7.875 45.1815 7.875 45.375C7.875 45.5586 7.93278 45.7376 8.04016 45.8866C8.14754 46.0356 8.29908 46.147 8.4733 46.2051C8.64752 46.2632 8.8356 46.265 9.0109 46.2102C9.18619 46.1554 9.33981 46.0469 9.45 45.9C9.47592 45.8655 12.0697 42.4176 14.6187 39.8687C15.7015 38.7859 17.1211 37.8498 18.375 37.1397V41.5125L16.8813 43.0063C16.8 43.0875 16.7356 43.184 16.6916 43.2901C16.6476 43.3963 16.625 43.5101 16.625 43.625C16.625 43.7399 16.6476 43.8537 16.6916 43.9599C16.7356 44.066 16.8 44.1625 16.8813 44.2437L18.375 45.7375V52.375C18.375 52.6071 18.4672 52.8296 18.6313 52.9937C18.7954 53.1578 19.0179 53.25 19.25 53.25H22.75C22.9821 53.25 23.2046 53.1578 23.3687 52.9937C23.5328 52.8296 23.625 52.6071 23.625 52.375V49.2375L25.1187 47.7437C25.2 47.6625 25.2644 47.566 25.3084 47.4599C25.3524 47.3537 25.375 47.2399 25.375 47.125C25.375 47.0101 25.3524 46.8963 25.3084 46.7901C25.2644 46.684 25.2 46.5875 25.1187 46.5063L23.625 45.0125V37.1397C24.8789 37.8498 26.298 38.7855 27.3813 39.8687C29.9297 42.4172 32.5241 45.8655 32.5501 45.9C32.6603 46.0469 32.8139 46.1554 32.9892 46.2101C33.1645 46.2648 33.3525 46.263 33.5267 46.2049C33.7009 46.1469 33.8524 46.0355 33.9598 45.8865C34.0672 45.7376 34.125 45.5586 34.125 45.375C34.125 45.1815 34.0724 40.5844 29.4937 36.0063C29.3832 35.8969 29.2648 35.7957 29.1396 35.7035C32.0343 35.4649 34.2432 34.2926 35.7149 32.2077C37.2936 29.9712 37.625 27.1895 37.625 25.25C37.625 22.8312 38.4344 20.1825 39.1824 18.2485C39.7381 18.0959 40.2286 17.7658 40.5793 17.3086C40.93 16.8514 41.1216 16.292 41.125 15.7158V13.875C41.125 13.6429 41.0328 13.4204 40.8687 13.2563C40.7046 13.0922 40.4821 13 40.25 13ZM29.505 14.5663C25.7274 15.668 22.8769 17.2751 21.0047 19.3249C20.3133 18.575 19.5362 17.909 18.6893 17.3405C23.9897 12.8639 31.7861 11.684 34.3613 11.4079C34.139 12.1619 33.9326 12.8973 33.7445 13.6077C32.3139 13.8448 30.8984 14.1648 29.505 14.5663ZM35.875 8.71578C35.8764 8.93418 35.7955 9.14511 35.6484 9.30651C35.5012 9.4679 35.2987 9.56792 35.081 9.58663C34.5006 9.62392 23.7863 10.3933 17.1123 16.3938L17.0672 16.3701C19.6 8.99884 32.3921 7.92959 35.875 7.7757V8.71578ZM14.2599 7.10534C14.2236 6.6638 14.191 6.21623 14.1614 5.76627C14.5461 6.0534 14.954 6.3081 15.3809 6.52773C16.9517 7.33875 18.8421 7.75 21 7.75C24.496 7.75 26.6976 6.66719 28.0011 5.63906C27.9885 6.11528 27.9718 6.59062 27.9501 7.06225C27.5748 7.14822 27.1964 7.24133 26.8149 7.34159C24.5801 7.93112 22.6324 8.69062 21 9.6085C18.909 8.43283 16.5275 7.63964 14.2599 7.10534ZM33.2773 5.12205C33.2788 5.47456 33.2773 5.83692 33.2735 6.2042C32.2318 6.30789 31.0173 6.46452 29.7168 6.70055C29.7365 6.20563 29.7521 5.70764 29.7618 5.2102C29.7678 4.88786 29.7382 4.56584 29.6734 4.25H32.4023C32.6337 4.25063 32.8555 4.34262 33.0193 4.50594C33.1832 4.66926 33.2759 4.89069 33.2773 5.12205ZM16.7508 2.5H25.3881C25.8199 2.50091 26.2448 2.60776 26.6256 2.81118C27.0064 3.0146 27.3314 3.30836 27.5722 3.6667C26.7203 4.58906 24.7953 6 21 6C19.6491 6 16.4356 5.77141 14.5101 3.75716C14.7455 3.37403 15.0749 3.05743 15.4671 2.83741C15.8592 2.61739 16.3011 2.50124 16.7508 2.5ZM8.78992 5.15781C8.78562 5.0402 8.80506 4.92293 8.84709 4.813C8.88912 4.70307 8.95288 4.60274 9.03455 4.51801C9.11622 4.43327 9.21414 4.36586 9.32245 4.31982C9.43075 4.27377 9.54723 4.25002 9.66492 4.25H12.4663C12.3899 4.62269 12.3623 5.00375 12.3844 5.38356C12.4112 5.83462 12.4418 6.28448 12.4755 6.7303C11.1496 6.48344 9.90609 6.31992 8.83641 6.21175C8.81883 5.86197 8.80334 5.51066 8.78992 5.15781ZM6.125 7.77505C8.38261 7.87348 14.5546 8.35386 19.3131 10.6974C18.7564 11.1067 18.2336 11.5603 17.7499 12.0537C12.6486 10.0324 7.18178 9.60577 6.92245 9.58663C6.70423 9.56873 6.50082 9.46907 6.35295 9.30759C6.20508 9.14611 6.12366 8.93473 6.125 8.71578V7.77505ZM7.64214 11.4179C9.27675 11.6066 13.0084 12.1516 16.5798 13.4794C16.1246 14.1425 15.7544 14.8602 15.4779 15.6156C13.0935 14.6003 10.5208 13.9788 8.25234 13.5988C8.06542 12.8915 7.86133 12.1625 7.64214 11.4179ZM2.625 14.7754C5.64211 14.9076 15.6469 15.7234 19.9165 20.7343C19.6816 21.099 19.4714 21.479 19.2874 21.8718C13.7386 17.4017 3.77562 16.6138 3.42256 16.5875C3.20418 16.5696 3.00063 16.4698 2.85272 16.3082C2.70481 16.1465 2.62347 15.9349 2.625 15.7158V14.7754ZM7.71487 31.1986C6.40084 29.337 6.125 26.9362 6.125 25.25C6.125 23.2775 5.67098 21.0103 4.7763 18.4972C7.82545 18.9012 14.8244 20.1726 18.6637 23.6378L18.6689 23.6321C18.471 24.4482 18.3723 25.2852 18.375 26.125C18.375 28.0791 18.8704 30.0406 19.908 31.6779C18.526 33.1981 16.4991 34 14 34C11.1417 34 9.02705 33.0574 7.71487 31.1986ZM13.3813 38.6313C12.4247 39.5879 11.4753 40.6491 10.6483 41.6205C11.4115 39.9891 12.4597 38.5069 13.7436 37.2437C14.2427 36.7447 15.3443 36.3891 16.6059 36.15C15.4949 36.8392 14.3355 37.6771 13.3813 38.6313ZM22.1313 45.9937L23.2626 47.125L22.1313 48.2563C22.05 48.3375 21.9856 48.434 21.9416 48.5401C21.8976 48.6463 21.875 48.7601 21.875 48.875V51.5H20.125V45.375C20.125 45.2601 20.1024 45.1463 20.0584 45.0401C20.0144 44.934 19.95 44.8375 19.8687 44.7563L18.7375 43.625L19.8687 42.4937C19.95 42.4125 20.0144 42.316 20.0584 42.2099C20.1024 42.1037 20.125 41.9899 20.125 41.875V36.227C20.4893 36.052 20.7907 35.9166 21 35.8254C21.2093 35.9166 21.5107 36.0522 21.875 36.227V45.375C21.875 45.4899 21.8976 45.6037 21.9416 45.7099C21.9856 45.816 22.05 45.9125 22.1313 45.9937ZM31.3516 41.6205C30.5246 40.6491 29.5752 39.5879 28.6186 38.6313C27.6644 37.6771 26.505 36.8392 25.3939 36.1504C26.6555 36.3891 27.7571 36.7447 28.2562 37.2442C29.54 38.5073 30.5883 39.9892 31.3517 41.6205H31.3516ZM21 34C20.853 34 20.45 34.0028 19.8907 34.0283C20.2893 33.7425 20.6619 33.422 21.004 33.0705C21.3462 33.4223 21.719 33.7429 22.1179 34.0287C21.5543 34.0028 21.1478 34 21 34ZM34.2851 31.1986C32.9726 33.058 30.8584 34 28 34C22.3477 34 20.2419 29.9886 20.13 26.4269C23.1505 22.7121 27.9139 20.7192 31.4144 19.6983C33.3184 19.1462 35.2619 18.7403 37.2279 18.4843C36.3307 21.0014 35.875 23.2728 35.875 25.25C35.875 26.9362 35.5993 29.337 34.2851 31.1986ZM39.375 15.7158C39.3764 15.9341 39.2955 16.145 39.1484 16.3064C39.0013 16.4678 38.7988 16.5678 38.5813 16.5866C37.9677 16.6259 27.2012 17.4011 20.5335 23.4643C21.6017 20.1976 24.7606 17.7791 29.9638 16.2553C33.7975 15.1328 37.6842 14.8471 39.375 14.7746V15.7158Z" fill="#AE8646"/>
</svg>
