<svg width="44" height="56" viewBox="0 0 44 56" fill="none" xmlns="http://www.w3.org/2000/svg">
<path d="M43.7803 22.3536C43.7071 22.2096 43.5954 22.0888 43.4577 22.0043C43.3201 21.9198 43.1617 21.8751 43.0002 21.875H41.0031C41.2406 21.1941 41.3083 20.4654 41.2002 19.7524C41.0922 19.0393 40.8118 18.3634 40.3832 17.7833C39.9547 17.2033 39.3911 16.7366 38.7412 16.4238C38.0914 16.111 37.375 15.9616 36.6543 15.9885C36.5235 15.6618 36.3533 15.3523 36.1474 15.0668C36.4589 13.9945 36.3347 12.8426 35.8019 11.8613C36.5994 11.3198 37.1993 10.5339 37.5113 9.62181C37.8233 8.70977 37.8305 7.72104 37.5318 6.80455C37.2331 5.88807 36.6446 5.09348 35.8551 4.54048C35.0656 3.98747 34.1177 3.70601 33.1543 3.73848C32.8338 2.89641 32.265 2.17163 31.5232 1.66024C30.7813 1.14885 29.9016 0.875 29.0006 0.875C28.0996 0.875 27.2199 1.14885 26.4781 1.66024C25.7363 2.17163 25.1674 2.89641 24.8469 3.73848C23.8195 3.6983 22.8111 4.02299 22.0002 4.65505C21.189 4.02388 20.181 3.69934 19.154 3.73866C18.8335 2.89658 18.2646 2.17181 17.5228 1.66041C16.781 1.14902 15.9013 0.875175 15.0003 0.875175C14.0993 0.875175 13.2195 1.14902 12.4777 1.66041C11.7359 2.17181 11.167 2.89658 10.8465 3.73866C9.88316 3.70618 8.9353 3.98765 8.14577 4.54065C7.35624 5.09365 6.76779 5.88825 6.46907 6.80473C6.17035 7.72121 6.17753 8.70995 6.48954 9.62199C6.80155 10.534 7.40149 11.32 8.19897 11.8615C7.66615 12.8428 7.54199 13.9947 7.85344 15.067C7.6476 15.3525 7.47738 15.662 7.34655 15.9887C6.75048 15.9715 6.157 16.0738 5.60109 16.2896C5.04519 16.5054 4.53811 16.8303 4.10975 17.2452C3.68138 17.66 3.3404 18.1564 3.1069 18.7051C2.8734 19.2538 2.75211 19.8437 2.75017 20.44C2.75265 20.9287 2.83615 21.4137 2.99727 21.875H1.00017C0.838585 21.875 0.680144 21.9197 0.542413 22.0042C0.404682 22.0887 0.293041 22.2097 0.219865 22.3538C0.146689 22.4979 0.114836 22.6594 0.127837 22.8204C0.140838 22.9815 0.198186 23.1358 0.293523 23.2663L16.6327 45.6248L13.3126 53.9253C13.2595 54.0581 13.2398 54.2018 13.2551 54.344C13.2705 54.4861 13.3204 54.6224 13.4006 54.7407C13.4808 54.8591 13.5888 54.956 13.7151 55.023C13.8414 55.09 13.9822 55.1251 14.1252 55.125H29.8752C30.0182 55.1251 30.159 55.09 30.2853 55.023C30.4116 54.956 30.5195 54.8591 30.5997 54.7407C30.6799 54.6224 30.7299 54.4861 30.7452 54.344C30.7606 54.2018 30.7408 54.0581 30.6878 53.9253L27.3677 45.6248L43.7068 23.2663C43.8022 23.1358 43.8595 22.9814 43.8725 22.8203C43.8855 22.6592 43.8536 22.4977 43.7803 22.3536ZM36.2241 17.8077C36.4113 17.7608 36.6035 17.7369 36.7964 17.7363C37.5132 17.7372 38.2004 18.0224 38.7072 18.5293C39.2141 19.0361 39.4992 19.7233 39.5002 20.44C39.5015 20.9484 39.3567 21.4465 39.0831 21.875H35.1252C35.1252 21.1789 34.8486 20.5112 34.3563 20.0189C33.864 19.5266 33.1964 19.25 32.5002 19.25C31.804 19.25 31.1363 19.5266 30.644 20.0189C30.1517 20.5112 29.8752 21.1789 29.8752 21.875H29.1164C29.0883 21.4392 28.9785 21.0125 28.7926 20.6172C29.6413 20.0273 30.2656 19.1679 30.5644 18.1785C31.3629 18.4202 32.213 18.4341 33.019 18.2185C33.8249 18.0029 34.5546 17.5664 35.1257 16.9583C35.1372 17.0079 35.1471 17.0566 35.1556 17.1071C35.176 17.2251 35.2205 17.3377 35.2862 17.4379C35.352 17.538 35.4376 17.6236 35.5378 17.6893C35.638 17.755 35.7506 17.7994 35.8686 17.8198C35.9867 17.8401 36.1077 17.836 36.2241 17.8077ZM33.3752 21.875H31.6252C31.6252 21.643 31.7174 21.4204 31.8815 21.2563C32.0456 21.0922 32.2681 21 32.5002 21C32.7322 21 32.9548 21.0922 33.1189 21.2563C33.283 21.4204 33.3752 21.643 33.3752 21.875ZM25.2763 5.5577C25.3925 5.58591 25.5132 5.59 25.6311 5.56973C25.7489 5.54945 25.8613 5.50524 25.9614 5.43982C26.0615 5.37439 26.1472 5.28915 26.213 5.18934C26.2789 5.08954 26.3236 4.97729 26.3444 4.85953C26.4532 4.23416 26.7792 3.66725 27.265 3.25867C27.7508 2.8501 28.3652 2.62608 29 2.62608C29.6348 2.62608 30.2492 2.8501 30.735 3.25867C31.2208 3.66725 31.5468 4.23416 31.6556 4.85953C31.6764 4.97729 31.7211 5.08954 31.787 5.18934C31.8528 5.28915 31.9385 5.37439 32.0386 5.43982C32.1387 5.50524 32.2511 5.54945 32.3689 5.56973C32.4868 5.59 32.6075 5.58591 32.7237 5.5577C32.911 5.51081 33.1033 5.48683 33.2964 5.4863C33.9314 5.48498 34.5464 5.70765 35.0334 6.11513C35.5203 6.52261 35.848 7.08878 35.9586 7.71402C36.0693 8.33925 35.9559 8.98348 35.6383 9.53333C35.3208 10.0832 34.8195 10.5034 34.2227 10.7201C34.0883 10.7687 33.9679 10.8496 33.872 10.9555C33.7761 11.0615 33.7077 11.1894 33.6727 11.3279C33.6377 11.4665 33.6372 11.6115 33.6713 11.7503C33.7053 11.8891 33.7729 12.0174 33.8681 12.124C34.316 12.6155 34.5646 13.2563 34.5652 13.9213C34.5642 14.3759 34.4485 14.8229 34.2288 15.2209C34.0091 15.6189 33.6925 15.9549 33.3083 16.198C32.9241 16.441 32.4848 16.5831 32.031 16.6112C31.5773 16.6392 31.1238 16.5523 30.7126 16.3584H30.7122C30.5711 15.2615 30.0257 14.2568 29.1826 13.541C28.3396 12.8252 27.2597 12.4499 26.1544 12.4886C25.9185 11.8775 25.5519 11.3254 25.0804 10.8708C24.6088 10.4162 24.0437 10.0701 23.4244 9.85666C23.6762 9.23132 23.7829 8.55702 23.7365 7.88449C23.6901 7.21195 23.4918 6.55869 23.1566 5.97385C23.4574 5.75257 23.8034 5.60052 24.1698 5.52858C24.5363 5.45664 24.9141 5.46658 25.2763 5.5577ZM24.656 13.6095C24.6769 13.7271 24.7216 13.8392 24.7874 13.9389C24.8531 14.0386 24.9386 14.1238 25.0385 14.1892C25.1384 14.2547 25.2507 14.299 25.3683 14.3195C25.486 14.3401 25.6066 14.3363 25.7228 14.3085L25.7364 14.3063C26.404 14.1612 27.1018 14.2754 27.6884 14.6256C28.275 14.9758 28.7065 15.5359 28.8955 16.1925C29.0846 16.849 29.017 17.5528 28.7064 18.1613C28.3959 18.7699 27.8657 19.2376 27.2231 19.4698C27.0888 19.5184 26.9683 19.5992 26.8725 19.7052C26.7766 19.8112 26.7081 19.939 26.6731 20.0776C26.6381 20.2161 26.6376 20.3612 26.6717 20.5C26.7058 20.6388 26.7733 20.7671 26.8685 20.8737C27.1294 21.1466 27.3022 21.4918 27.3643 21.8642V21.8751H16.6364C16.6909 21.497 16.8647 21.1462 17.1325 20.8737C17.2275 20.767 17.2949 20.6387 17.3288 20.4999C17.3627 20.3612 17.3622 20.2163 17.3272 20.0778C17.2923 19.9393 17.2239 19.8115 17.1282 19.7055C17.0324 19.5995 16.9122 19.5186 16.778 19.4698C16.2521 19.2749 15.7992 18.9223 15.4813 18.4603C15.1633 17.9983 14.9959 17.4493 15.0017 16.8885C15.0074 16.4902 15.1017 16.0981 15.2777 15.7408C15.4537 15.3834 15.7071 15.0698 16.0195 14.8225C16.3318 14.5753 16.6953 14.4007 17.0835 14.3114C17.4717 14.2221 17.8749 14.2204 18.2639 14.3063L18.2774 14.3087C18.3936 14.3366 18.5142 14.3404 18.6319 14.3199C18.7496 14.2995 18.8619 14.2551 18.9618 14.1897C19.0617 14.1242 19.1472 14.039 19.213 13.9392C19.2787 13.8395 19.3234 13.7273 19.3442 13.6097C19.4606 12.9905 19.7898 12.4314 20.2747 12.0291C20.7597 11.6268 21.3699 11.4066 22 11.4066C22.6301 11.4066 23.2404 11.6267 23.7254 12.029C24.2103 12.4312 24.5395 12.9903 24.656 13.6095ZM8.00017 8.19005C8.00112 7.47326 8.28629 6.7861 8.79313 6.27926C9.29998 5.77241 9.98714 5.48725 10.7039 5.4863C10.897 5.48699 11.0892 5.51111 11.2764 5.55813C11.3926 5.58635 11.5134 5.59044 11.6312 5.57017C11.7491 5.54989 11.8615 5.50568 11.9616 5.44025C12.0617 5.37483 12.1473 5.28958 12.2132 5.18978C12.2791 5.08997 12.3238 4.97773 12.3445 4.85997C12.4534 4.2346 12.7794 3.66768 13.2652 3.25911C13.751 2.85054 14.3654 2.62652 15.0002 2.62652C15.6349 2.62652 16.2494 2.85054 16.7352 3.25911C17.221 3.66768 17.547 4.2346 17.6558 4.85997C17.6766 4.97773 17.7213 5.08997 17.7872 5.18978C17.853 5.28958 17.9386 5.37483 18.0387 5.44025C18.1388 5.50568 18.2513 5.54989 18.3691 5.57017C18.487 5.59044 18.6077 5.58635 18.7239 5.55813C19.1979 5.43759 19.6965 5.45572 20.1605 5.61037C20.6245 5.76502 21.0343 6.04969 21.3412 6.43051C21.726 6.86861 21.9553 7.42151 21.9936 8.00333C22.0319 8.58515 21.8769 9.16333 21.5529 9.64806C20.7342 9.73716 19.9557 10.0492 19.3021 10.5501C18.6484 11.051 18.1447 11.7216 17.8458 12.4889C16.7508 12.4489 15.6799 12.8166 14.8404 13.5208C14.0009 14.2251 13.4525 15.2157 13.3014 16.301C13.2985 16.3209 13.2907 16.3389 13.2881 16.3589C12.7258 16.6222 12.0898 16.6834 11.4877 16.5321C10.8855 16.3808 10.354 16.0263 9.98299 15.5284C9.61199 15.0305 9.42422 14.4199 9.45141 13.7996C9.47859 13.1793 9.71906 12.5874 10.1322 12.1239C10.2274 12.0173 10.295 11.8889 10.329 11.7502C10.3631 11.6114 10.3626 11.4663 10.3276 11.3278C10.2926 11.1892 10.2242 11.0614 10.1283 10.9554C10.0324 10.8494 9.91203 10.7686 9.77765 10.7199C9.25815 10.5307 8.80918 10.1867 8.49133 9.73432C8.17349 9.28193 8.00206 8.74293 8.00017 8.19005ZM7.77626 17.8073C7.89267 17.8356 8.01365 17.8397 8.13169 17.8193C8.24974 17.7989 8.36234 17.7544 8.46251 17.6888C8.56269 17.6231 8.64831 17.5375 8.71407 17.4374C8.77983 17.3372 8.82433 17.2247 8.84481 17.1066C8.85356 17.0562 8.86319 17.0075 8.87474 16.9579C9.44511 17.5649 10.1734 18.0009 10.9779 18.2169C11.7823 18.4329 12.6311 18.4203 13.4288 18.1806C13.7283 19.1708 14.3555 20.0298 15.2074 20.6168C15.0173 21.0107 14.9074 21.4384 14.884 21.875H14.1252C14.1252 21.1789 13.8486 20.5112 13.3563 20.0189C12.864 19.5266 12.1964 19.25 11.5002 19.25C10.804 19.25 10.1363 19.5266 9.64402 20.0189C9.15173 20.5112 8.87517 21.1789 8.87517 21.875H4.9172C4.64361 21.4465 4.49886 20.9484 4.50017 20.44C4.49962 20.0366 4.58975 19.6381 4.76389 19.2742C4.93803 18.9102 5.19173 18.5901 5.50625 18.3374C5.82077 18.0846 6.18806 17.9058 6.58097 17.8142C6.97388 17.7225 7.38238 17.7203 7.77626 17.8077V17.8073ZM12.3752 21.875H10.6252C10.6252 21.643 10.7174 21.4204 10.8815 21.2563C11.0455 21.0922 11.2681 21 11.5002 21C11.7322 21 11.9548 21.0922 12.1189 21.2563C12.283 21.4204 12.3752 21.643 12.3752 21.875ZM28.5827 53.375H15.4176L18.2176 46.375H25.7827L28.5827 53.375ZM25.9308 44.625H18.0696L2.72322 23.625H41.2771L25.9308 44.625Z" fill="#AE8646"/>
</svg>
