<svg width="38" height="54" viewBox="0 0 38 54" fill="none" xmlns="http://www.w3.org/2000/svg">
<path d="M37.357 36.449C37.3165 36.2516 37.2091 36.0743 37.0529 35.9469C36.8968 35.8196 36.7014 35.75 36.4999 35.75C34.8893 35.7679 33.2811 35.8799 31.6836 36.0855C28.1493 36.5465 25.7345 37.403 24.5062 38.6313C23.2231 39.9145 22.2956 41.5285 21.6249 43.1955V35.0863C22.2897 33.8135 23.6099 31.7983 24.6413 31.2826C26.9191 30.1215 28.9461 28.5234 30.6067 26.5795C32.7448 24.0403 33.8749 21.16 33.8749 18.25C33.8749 16.038 33.6527 12.6995 33.3218 9.94264C33.1896 8.74078 32.9972 7.54632 32.7451 6.36378C32.5508 5.52203 32.2573 4.25 31.2499 4.25C30.0023 4.25 28.7541 4.94081 27.4884 6.33764C27.443 6.14252 27.3973 5.96303 27.3514 5.80269C27.2071 5.29869 26.9069 4.25 25.9999 4.25C24.4622 4.25 23.0814 5.29212 21.8841 7.35188C21.7988 7.26153 21.7125 7.17513 21.6249 7.09386V5.33161L23.2825 2.01634C23.3492 1.88294 23.3807 1.7347 23.374 1.5857C23.3673 1.4367 23.3226 1.29189 23.2442 1.16501C23.1658 1.03814 23.0563 0.933407 22.926 0.860771C22.7958 0.788136 22.6491 0.750005 22.4999 0.75H15.4999C15.3508 0.750005 15.2041 0.788136 15.0738 0.860771C14.9436 0.933407 14.834 1.03814 14.7556 1.16501C14.6772 1.29189 14.6325 1.4367 14.6258 1.5857C14.6191 1.7347 14.6506 1.88294 14.7173 2.01634L16.3749 5.33161V7.09375C16.2874 7.17502 16.2011 7.26142 16.1158 7.35166C14.9186 5.29223 13.5377 4.25 11.9999 4.25C11.0929 4.25 10.7924 5.29869 10.6482 5.80312C10.602 5.96402 10.5563 6.14394 10.5108 6.33906C9.24269 4.94202 7.99231 4.25 6.74992 4.25C5.74258 4.25 5.44902 5.52203 5.25477 6.36378C5.00271 7.54632 4.81022 8.74078 4.67803 9.94264C4.34717 12.6995 4.12492 16.038 4.12492 18.25C4.12492 21.1594 5.25509 24.0402 7.39316 26.5791C9.05374 28.5231 11.0808 30.1212 13.3586 31.2823C14.3901 31.7981 15.7101 33.8135 16.3749 35.086V43.1952C15.7042 41.5282 14.7767 39.9139 13.4937 38.6309C12.2654 37.4027 9.8506 36.5461 6.31625 36.0851C4.71871 35.8797 3.11052 35.7678 1.49992 35.75C1.29841 35.75 1.10308 35.8196 0.946934 35.947C0.790783 36.0743 0.68338 36.2517 0.642867 36.4491C0.602355 36.6465 0.631215 36.8518 0.724574 37.0304C0.817933 37.209 0.970068 37.3498 1.15528 37.4292C1.215 37.4548 7.15396 40.0165 9.63119 42.4933C12.1394 45.0014 16.4419 52.7218 16.4851 52.7995C16.5608 52.936 16.6716 53.0497 16.8061 53.1289C16.9406 53.2082 17.0938 53.25 17.2499 53.25H20.7499C20.906 53.25 21.0591 53.2082 21.1936 53.1291C21.3281 53.0499 21.4389 52.9362 21.5147 52.7998C21.5579 52.7222 25.8592 45.0029 28.3686 42.4936C30.8428 40.0193 36.7849 37.4547 36.8451 37.4296C37.0303 37.3501 37.1824 37.2091 37.2757 37.0304C37.3689 36.8518 37.3976 36.6464 37.357 36.449ZM19.8749 35.75V51.5H18.1249V35.75H19.8749ZM18.9999 7.75C20.5968 7.75 22.0223 9.96397 23.0276 13.9914C21.4579 17.5985 20.0672 21.7132 18.9996 25.1995C18.4627 23.4432 17.8579 21.5729 17.2001 19.7088C16.4476 17.5769 15.7053 15.6687 14.973 13.9844C15.9793 9.96145 17.4048 7.75 18.9999 7.75ZM30.8487 6.05042C31.0417 6.62825 31.3559 8.04958 31.6603 10.8115C31.9426 13.3732 32.1249 16.293 32.1249 18.25C32.1249 24.0395 26.9289 28.1822 23.8586 29.7174C22.7984 30.2476 21.8006 31.4915 21.0783 32.5805C20.792 31.4725 20.3962 29.9883 19.9093 28.2808C21.0919 24.1812 22.9212 18.4203 25.0384 13.7777C27.7585 7.81202 29.7364 6.32014 30.8487 6.05042ZM25.5987 6.05337C25.7034 6.36389 25.8681 6.98777 26.0637 8.19767C25.3561 9.28176 24.7168 10.4089 24.1496 11.5727C23.8546 10.6613 23.4757 9.77916 23.0178 8.9377C23.6484 7.67147 24.5434 6.33392 25.5989 6.05337H25.5987ZM18.0325 4.73366L16.9157 2.5H21.0842L19.9674 4.73366C19.9066 4.85515 19.8749 4.98914 19.8749 5.125V6.10784C19.3005 5.96405 18.6994 5.96405 18.1249 6.10784V5.125C18.1249 4.98914 18.0933 4.85515 18.0325 4.73366ZM12.4023 6.05381C13.4572 6.33512 14.3518 7.67256 14.9825 8.93792C14.5255 9.77739 14.1471 10.6573 13.8522 11.5665C13.2849 10.4039 12.645 9.27804 11.9364 8.1957C12.1305 6.99291 12.2972 6.36586 12.4023 6.05381ZM14.1414 29.7174C11.071 28.1822 5.87492 24.0395 5.87492 18.25C5.87492 16.2928 6.05725 13.3731 6.33955 10.8114C6.64361 8.05286 6.9573 6.63153 7.15046 6.05239C8.52027 6.39627 11.4531 8.68778 15.5456 20.2795C17.5467 25.947 19.0512 31.678 19.6343 34H17.7779C17.1925 32.9305 15.7369 30.5152 14.1413 29.7174H14.1414ZM10.8688 41.2565C9.61183 39.9995 7.6375 38.7642 5.85491 37.7893C8.37852 38.1032 11.1087 38.7215 12.2563 39.8691C14.5233 42.1361 15.5427 45.7406 16.001 48.4987C14.4837 45.9976 12.411 42.7986 10.8687 41.2563L10.8688 41.2565ZM27.1313 41.2565C25.5878 42.8 23.5131 46.0026 21.9957 48.5047C22.4524 45.7474 23.4711 42.1415 25.7438 39.869C26.8897 38.723 29.6189 38.1048 32.1428 37.7908C30.3606 38.765 28.3877 39.9999 27.1312 41.2563L27.1313 41.2565Z" fill="#AE8646"/>
</svg>
