<svg width="54" height="56" viewBox="0 0 54 56" fill="none" xmlns="http://www.w3.org/2000/svg">
<path d="M53.6163 28.969C53.589 28.7217 52.8759 22.8658 48.9526 20.6969C48.6037 20.5066 48.2384 20.348 47.8611 20.2223C48.1749 19.7388 48.431 19.2204 48.6256 18.6779C50.0486 14.5424 47.6215 9.91694 43.1885 8.09257C43.0048 8.01272 42.8211 7.93835 42.6373 7.87272H42.6274C40.3973 7.08085 37.9539 7.13553 35.762 8.02694C35.1615 8.2785 34.5927 8.59788 34.0654 8.9785C32.2684 2.60632 25.2423 2.75288 25.1537 2.75507C22.6796 2.80757 20.2909 3.71538 18.6459 5.17663C18.4971 4.88897 18.3276 4.61335 18.1384 4.35085C15.4423 0.769908 9.54258 0.888034 9.29321 0.892409C8.90055 0.902252 8.5582 1.16038 8.44117 1.53444C8.37336 1.7521 6.9493 6.46616 8.74742 10.0077C6.7393 10.8608 5.08336 12.3768 4.05414 14.3018C3.07305 16.1415 2.86742 18.2973 3.48539 20.289C3.82445 21.3335 4.38883 22.2916 5.13805 23.0944C4.82852 23.2388 4.53988 23.4228 4.24773 23.5987C1.57023 25.2108 0.778359 28.9077 0.511484 30.7988H0.518047C0.445859 31.2866 0.399922 31.7766 0.376953 32.2677H0.387891C0.375859 32.6593 0.614297 33.0148 0.981797 33.1504C2.52289 33.6732 4.13727 33.9488 5.76477 33.9674C7.42508 34.0232 9.06242 33.578 10.4657 32.6899C10.7599 32.4865 11.0366 32.2591 11.2926 32.0086C11.9587 33.356 12.9879 34.4902 14.2654 35.2832C14.5312 35.4429 14.8057 35.5883 15.0868 35.7207C15.6545 36.4633 16.1827 37.2356 16.6684 38.034C14.3113 36.8637 11.8865 37.0507 10.8846 38.6027C10.306 39.6581 10.3421 40.9443 10.9765 41.9671C9.67164 42.4243 8.75617 43.6054 8.63914 44.9837C8.63914 47.0432 11.0596 48.6553 14.1473 48.6553C15.6588 48.7012 17.1441 48.2463 18.3702 47.3614C18.0946 49.0884 17.0698 50.6054 15.5702 51.5067C15.3066 51.6379 15.1229 51.8884 15.0759 52.1793C15.0288 52.4703 15.124 52.7667 15.3318 52.9745C16.6323 54.0617 18.1701 54.8262 19.8206 55.2068L19.8785 55.2232C21.902 55.7625 23.9888 56.0238 26.0823 55.9998C28.1746 56.025 30.2604 55.7636 32.2827 55.2254L32.3397 55.209C33.9913 54.8274 35.5291 54.0629 36.8296 52.9768C37.0373 52.7679 37.1325 52.4726 37.0855 52.1815C37.0385 51.8905 36.8536 51.6401 36.5911 51.5078C34.4943 50.46 33.7724 47.8929 33.5352 45.9079L33.6489 45.8805C34.1411 45.7568 34.4396 45.2582 34.3172 44.767C34.211 44.3623 33.8436 44.0834 33.4258 44.0889V44.0659C33.4258 41.9878 34.455 39.4393 36.3855 36.6799C36.4775 36.6799 36.5747 36.6918 36.67 36.6918C40.241 36.8166 43.4961 34.6565 44.7692 31.3171C44.8217 31.1662 44.86 31.0109 44.9005 30.8589C45.7011 31.0974 46.5323 31.2166 47.368 31.2132C49.3455 31.1596 51.2935 30.7145 53.0992 29.903C53.4534 29.7346 53.6612 29.3583 53.6163 28.969ZM37.6673 11.0162C38.1626 9.90929 39.3056 9.23882 40.5132 9.3471C41.0295 9.34929 41.5413 9.43678 42.0291 9.60522H42.0346L42.0631 9.61616C43.9585 10.2823 45.1037 11.9798 44.6115 13.4082C44.5021 13.7079 44.3271 13.9791 44.0996 14.2033C44.0449 13.6915 43.8502 13.2058 43.5352 12.799C42.9927 12.1208 42.2643 11.6144 41.4385 11.3443C40.1435 10.7963 38.6495 11.0304 37.5831 11.9469C37.5415 11.6341 37.5699 11.3169 37.6673 11.0162ZM42.2763 14.549C42.1615 14.7524 41.9581 14.8902 41.7262 14.923C41.3784 15.0029 41.0175 15.0051 40.6685 14.9296C40.5296 14.8946 40.3919 14.8662 40.2529 14.8202H40.243L40.2321 14.8148C40.0877 14.7644 39.9564 14.6999 39.8208 14.6376C39.054 14.2449 38.6997 13.6554 38.8047 13.3524C38.8867 13.1162 39.2947 12.9116 39.8744 12.9116C40.2036 12.916 40.5295 12.9729 40.8401 13.0833C41.3225 13.2376 41.7512 13.5252 42.075 13.9146C42.237 14.083 42.3113 14.3182 42.2763 14.549ZM32.9991 13.2944C33.5504 11.749 34.7131 10.4999 36.2138 9.83819C36.1033 10.023 36.0093 10.2166 35.9316 10.4179C35.1058 12.811 36.7726 15.5585 39.6437 16.5516C39.9018 16.6413 40.1665 16.7091 40.4366 16.754C40.8643 16.8502 41.3018 16.9016 41.7404 16.9082C43.7388 17.0252 45.5893 15.8593 46.3462 14.0076C46.4129 13.8107 46.4622 13.6094 46.4949 13.4049C47.2583 14.8443 47.4004 16.533 46.8887 18.0796C46.0552 20.2868 44.056 21.8421 41.7109 22.1068C40.9791 21.5391 40.172 21.0765 39.3134 20.7298C39.1406 20.6543 38.9634 20.5832 38.7807 20.5208C37.5404 20.091 36.2279 19.9105 34.9165 19.9893C33.0112 18.3323 32.2598 15.7083 32.9991 13.2944ZM35.0368 23.8415C34.539 23.9673 34.0852 24.2298 33.7286 24.5983C33.6859 24.2823 33.7156 23.9618 33.8139 23.6588C34.0829 22.9599 34.6594 22.424 35.3748 22.2074C35.7915 22.0619 36.23 21.9887 36.6709 21.9908C37.1871 21.993 37.699 22.0816 38.1857 22.2512C38.8584 22.4776 39.4687 22.8571 39.9686 23.3613C40.0321 23.4926 40.126 23.6063 40.2432 23.6927C40.8064 24.3391 41.0033 25.2283 40.7649 26.0519C40.6544 26.3516 40.4772 26.6229 40.2476 26.8449C40.193 26.3341 39.9972 25.8474 39.6833 25.4416C38.5576 24.0777 36.7638 23.4598 35.0368 23.8415ZM38.4241 27.1949C38.3202 27.499 37.6771 27.7451 36.8295 27.5799C36.6851 27.5405 36.5407 27.511 36.3974 27.4607V27.4651H36.3898L36.3788 27.4596C36.2345 27.4104 36.1032 27.3448 35.9687 27.2835C35.202 26.8908 34.8476 26.3013 34.9515 25.9983C35.0674 25.7949 35.2709 25.656 35.5027 25.6232C35.6723 25.5794 35.8472 25.5587 36.0234 25.5598C36.3515 25.563 36.6774 25.6199 36.987 25.7293C37.4693 25.8824 37.8981 26.1712 38.2218 26.5594C38.3848 26.729 38.4591 26.963 38.4241 27.1949ZM16.6202 24.9888C16.2407 25.3377 15.9662 25.784 15.8273 26.2794C15.6413 26.0213 15.5155 25.7238 15.4598 25.4088C15.3624 24.6673 15.6129 23.9213 16.139 23.3887V23.3919C16.7996 22.6908 17.679 22.2337 18.6327 22.0948C18.8941 22.0521 19.1577 22.0302 19.4213 22.0302C20.1159 22.0215 20.8016 22.191 21.412 22.5224C22.0802 22.8582 22.5571 23.4827 22.7037 24.2155C22.7518 24.5316 22.7277 24.8543 22.6326 25.1594C22.3427 24.734 21.9391 24.3982 21.4677 24.1904C19.8304 23.5243 17.9579 23.8327 16.6202 24.9888ZM19.9781 27.4169C19.8293 27.4552 19.6827 27.5001 19.5285 27.5263V27.5296C19.3765 27.5548 19.2277 27.558 19.0779 27.569C18.7257 27.5843 18.3735 27.5219 18.0476 27.3852C17.772 27.2627 17.5948 27.0888 17.5685 26.9269C17.5729 26.6929 17.6845 26.4741 17.8726 26.3341C18.2576 26.006 18.7279 25.7938 19.2299 25.7227C19.3995 25.6943 19.5712 25.6801 19.7429 25.6801C20.0754 25.6735 20.4046 25.7358 20.7109 25.8638C20.9865 25.9874 21.1626 26.1602 21.191 26.3232C21.2424 26.6382 20.7973 27.1577 19.9781 27.4169ZM20.6573 20.1774C20.8979 19.6207 21.0773 19.0388 21.191 18.4427C22.4456 18.9808 23.7985 19.2565 25.1635 19.251C27.3281 19.2696 29.4368 18.5641 31.1551 17.2462C31.4755 18.3826 32.0257 19.4424 32.7706 20.3579C32.4774 20.4465 32.1888 20.5493 31.9054 20.6663C30.138 21.3762 28.6855 22.6996 27.817 24.3949V24.3982C27.1498 23.253 26.2135 22.2873 25.0881 21.5862C23.7526 20.7527 22.229 20.2693 20.6573 20.1774ZM25.1635 4.56303C27.1893 4.56303 28.8363 5.79788 28.8363 7.3171C28.8298 7.63319 28.7543 7.94272 28.6143 8.226C27.9045 7.01085 26.5679 6.30319 25.1635 6.39944C23.7602 6.30319 22.4226 7.01085 21.7127 8.226C21.5727 7.94272 21.4973 7.63319 21.4918 7.3171C21.4918 5.79788 23.139 4.56303 25.1635 4.56303ZM26.9999 9.1535C26.9999 9.47288 26.4738 9.91475 25.6229 10.0373C25.4709 10.0515 25.3221 10.0712 25.1635 10.0712C25.006 10.0712 24.8584 10.0515 24.7052 10.0373C23.8543 9.91475 23.3282 9.47288 23.3282 9.1535C23.3282 8.77944 24.0424 8.23585 25.1635 8.23585C26.2846 8.23585 26.9999 8.77944 26.9999 9.1535ZM19.7112 6.70132C19.6762 6.90475 19.6576 7.11147 19.6554 7.3171C19.6554 9.84803 22.1262 11.9076 25.1635 11.9076C28.202 11.9076 30.6716 9.84803 30.6716 7.3171C30.6704 7.10053 30.6498 6.88288 30.6103 6.6696C31.6723 7.67366 32.334 9.02882 32.4708 10.4835C31.4437 11.7785 30.8762 13.3765 30.8553 15.0291C29.3667 16.5724 27.3083 17.4354 25.1634 17.4157C23.8181 17.4201 22.4936 17.0843 21.3123 16.4412C21.2697 15.8571 21.1581 15.2807 20.9798 14.7229C20.4373 13.0385 19.3272 11.5948 17.8397 10.6366C17.9491 9.1371 18.6174 7.73272 19.7112 6.70132ZM10.026 2.74522C11.5091 2.82507 15.0146 3.25382 16.6716 5.45335C16.9484 5.83616 17.1704 6.25616 17.3301 6.70132C16.9232 7.29741 16.6005 7.946 16.3698 8.6296C15.7463 7.46257 14.8593 6.45741 13.7798 5.69178C13.3751 5.38772 12.7998 5.46975 12.4946 5.87553C12.1905 6.28132 12.2726 6.85663 12.6784 7.16069C13.4954 7.736 14.1768 8.48194 14.6766 9.346C13.3073 9.07475 11.8952 9.09991 10.5346 9.41819C9.25055 7.21647 9.72195 4.0971 10.026 2.74522ZM10.1802 11.4252V11.4285C10.2152 11.4165 10.2491 11.4001 10.2863 11.3891C10.3224 11.3782 10.3509 11.3727 10.3837 11.3629C10.8146 11.2316 11.262 11.1627 11.7126 11.1594C12.9562 11.0468 14.1298 11.7479 14.6198 12.8963C14.7116 13.2026 14.7346 13.5252 14.6843 13.8402C14.3354 13.4618 13.888 13.1883 13.3926 13.0494C12.5526 12.8296 11.6655 12.8602 10.842 13.1348C9.47477 13.4694 8.41492 14.549 8.10649 15.9227C7.88774 15.6952 7.72149 15.4229 7.62086 15.1232C7.17023 13.7013 8.31539 12.0662 10.1802 11.4252ZM12.3874 16.4576C12.243 16.5177 12.1052 16.5844 11.9554 16.6315V16.6348C11.8045 16.6829 11.6557 16.708 11.5059 16.7398C10.6593 16.883 10.0238 16.6216 9.92758 16.3176C9.81383 15.9599 10.3301 15.226 11.3965 14.8848C11.6918 14.7874 12.0002 14.7371 12.312 14.7338C12.9223 14.7338 13.351 14.9537 13.4287 15.2008C13.526 15.5049 13.1596 16.0824 12.3874 16.4576ZM10.6232 29.9271C10.6232 29.9501 10.6341 29.9707 10.6374 29.9938C10.3071 30.452 9.90242 30.8513 9.43867 31.1739C7.15711 32.7293 3.69539 32.0183 2.26805 31.6257C2.2943 31.3632 2.3282 31.0974 2.36977 30.8403C2.37414 30.8042 2.37633 30.7703 2.37633 30.7353H2.38289C2.65086 29.0979 3.50256 26.177 5.28899 25.1101C5.73742 24.8159 6.22961 24.5961 6.74695 24.4593C7.53227 24.9592 8.39195 25.33 9.2943 25.5607C7.81664 26.4456 6.45492 27.5109 5.23977 28.7303C5.00133 28.9611 4.90508 29.3024 4.9893 29.6228C5.07352 29.9444 5.32398 30.1949 5.64555 30.2791C5.96602 30.3634 6.30727 30.2671 6.53805 30.0286C7.7882 28.7731 9.21008 27.7 10.761 26.8414C10.5018 27.849 10.4548 28.9001 10.6232 29.9271ZM12.1195 23.9946C10.4515 24.1171 8.79117 23.661 7.41961 22.704C6.39039 21.9777 5.62367 20.9365 5.23649 19.7377C4.76617 18.2087 4.92914 16.556 5.68711 15.1473C5.70133 15.1177 5.72102 15.0926 5.73524 15.0641C5.76367 15.2719 5.80852 15.4776 5.87086 15.6777C6.60805 17.5951 8.50242 18.8124 10.5521 18.6888C10.9579 18.6844 11.3615 18.6407 11.7585 18.5587C12.2715 18.4788 12.7691 18.3202 13.2329 18.0873C14.2545 17.6432 15.1305 16.9224 15.7627 16.0069C16.5229 14.9427 16.746 13.5865 16.3687 12.3341C16.2954 12.1318 16.2057 11.9349 16.0996 11.7468C17.5838 12.4435 18.717 13.7199 19.231 15.2774C19.7341 16.9552 19.4881 18.7687 18.554 20.2507C18.4807 20.2605 18.4074 20.2649 18.3341 20.2769C15.9913 20.6379 13.864 21.8465 12.3546 23.673C12.2704 23.778 12.1982 23.8885 12.1195 23.9946ZM15.2487 33.729C13.7601 32.8333 12.732 31.3369 12.4312 29.6263C12.2201 28.2963 12.4749 26.9335 13.152 25.7698C13.3357 25.7085 13.4484 25.6779 13.4538 25.6779C13.5184 25.656 13.5807 25.6276 13.6376 25.5915C13.643 25.6298 13.643 25.6669 13.6496 25.7052C13.8815 26.9904 14.6952 28.0962 15.8535 28.6999C16.7395 29.1854 17.7359 29.437 18.7465 29.4282C19.1096 29.4271 19.4716 29.3965 19.8304 29.3364C20.0732 29.2948 20.3138 29.2346 20.549 29.1581C21.6395 28.8715 22.626 28.2809 23.3949 27.4551C24.2995 26.5123 24.7151 25.2031 24.5226 23.9114C24.4876 23.7068 24.4351 23.5067 24.3684 23.3109C25.7235 24.2132 26.6499 25.6318 26.931 27.2364C27.5063 30.7331 24.7282 34.1128 20.7284 34.7701C18.8362 35.1071 16.886 34.7363 15.2487 33.729ZM14.1473 46.8201C12.0451 46.8201 10.4755 45.8499 10.4755 44.9837C10.4755 44.1174 12.0451 43.1473 14.1473 43.1473C16.2495 43.1473 17.8201 44.1174 17.8201 44.9837C17.8201 45.8499 16.2495 46.8201 14.1473 46.8201ZM14.1473 41.3119C13.689 41.3119 13.2318 41.3502 12.7801 41.4257C12.3415 40.9204 12.208 40.2193 12.4301 39.5893H12.4312C12.9026 38.8619 14.7477 38.9024 16.5141 40.0432C17.3334 40.5485 18.006 41.2605 18.4621 42.1082C18.5234 42.3466 18.5813 42.585 18.6218 42.8223C17.3662 41.7866 15.7737 41.2485 14.1473 41.3119ZM34.5566 52.3457C33.7866 52.7669 32.974 53.1037 32.1318 53.3509C30.4661 52.6245 29.2388 51.1579 28.8177 49.3904C28.7608 49.0611 28.5301 48.7888 28.2139 48.6782C27.8989 48.5689 27.5478 48.639 27.2996 48.8621C27.0513 49.0852 26.9431 49.4265 27.0185 49.7524C27.3521 51.4007 28.2676 52.8751 29.5976 53.9065C27.2668 54.2465 24.8977 54.2465 22.5659 53.9065C23.8948 52.8773 24.8102 51.4051 25.146 49.7568C25.2204 49.4319 25.1132 49.0907 24.8638 48.8676C24.6156 48.6444 24.2656 48.5744 23.9495 48.6838C23.6334 48.7943 23.4026 49.0666 23.3457 49.3959C22.9246 51.1621 21.6963 52.6279 20.0316 53.353C19.1905 53.1069 18.3768 52.7701 17.6079 52.349C19.4541 50.774 20.1662 48.2737 20.4298 46.2743C22.2946 46.6166 24.1857 46.7993 26.0823 46.8201C27.9788 46.7982 29.8689 46.6132 31.7348 46.2688C31.9973 48.2704 32.7093 50.7718 34.5566 52.3457ZM31.5904 44.0659V44.4324C29.7738 44.7759 27.9307 44.9607 26.0823 44.9837C24.2338 44.9607 22.3898 44.7759 20.5741 44.4324V44.0659C20.5741 41.4782 19.3557 38.8203 17.959 36.6218C18.4195 36.6875 18.8832 36.7214 19.348 36.7214C19.908 36.7203 20.467 36.6742 21.0204 36.5836C21.3682 36.5256 21.7138 36.4479 22.054 36.3528C22.8929 37.8709 23.3315 39.577 23.3282 41.3118C23.3282 41.8182 23.7384 42.2295 24.2459 42.2295C24.7534 42.2295 25.1635 41.8182 25.1635 41.3118C25.1679 39.3573 24.6954 37.4323 23.7865 35.7031C25.5988 34.8412 27.0776 33.4085 27.9963 31.6245C28.0237 31.677 28.0454 31.7307 28.0751 31.7842C28.4918 32.5203 29.0081 33.1962 29.6085 33.7923C27.9132 35.9317 26.9946 38.5818 26.9999 41.3118C26.9999 41.8182 27.4112 42.2295 27.9176 42.2295C28.4252 42.2295 28.8363 41.8182 28.8363 41.3118C28.8396 39.0095 29.6107 36.7739 31.0271 34.9593C31.7631 35.4538 32.5606 35.8507 33.3984 36.1384C33.7123 36.2467 34.0284 36.3342 34.3445 36.414C32.5157 39.2141 31.5904 41.7844 31.5904 44.0659ZM43.0332 30.7201C41.8793 34.0702 37.8281 35.7229 33.9966 34.4027C32.1734 33.7989 30.6357 32.5466 29.6752 30.883C28.7959 29.4382 28.5859 27.6815 29.101 26.0705C29.6162 24.4583 30.8051 23.1491 32.3593 22.4808C32.2499 22.6657 32.1559 22.8604 32.0782 23.0605C31.2524 25.4537 32.9193 28.2023 35.7915 29.1954C36.0529 29.2851 36.3209 29.354 36.5943 29.3999C37.0187 29.494 37.4518 29.5454 37.8871 29.5521C39.8854 29.669 41.7371 28.5019 42.494 26.6491C42.5606 26.4533 42.6099 26.251 42.6426 26.0465C43.4062 27.4858 43.5473 29.1746 43.0332 30.7201ZM45.177 29.0237C45.1999 27.5929 44.8422 26.1832 44.1411 24.9363C45.0248 25.2568 45.8408 25.738 46.5506 26.3538C46.9104 26.7016 47.4836 26.6973 47.8368 26.3429C48.1912 25.9885 48.1967 25.4165 47.8489 25.0555C46.8908 24.2068 45.7784 23.5516 44.5709 23.1283C45.2938 22.7816 45.9622 22.331 46.5539 21.7907C47.08 21.8826 47.5897 22.0554 48.0633 22.3037C50.4761 23.6369 51.3904 27.0483 51.6781 28.5052C50.4149 28.9832 47.5034 29.8757 45.177 29.0237Z" fill="#AE8646"/>
</svg>
