<svg width="38" height="56" viewBox="0 0 38 56" fill="none" xmlns="http://www.w3.org/2000/svg">
<path d="M35.3423 18.7185V2.59259C35.3415 1.90524 35.0681 1.24626 34.582 0.760224C34.096 0.274189 33.437 0.000789099 32.7497 0H4.74967C4.06232 0.000789099 3.40334 0.274189 2.91731 0.760224C2.43127 1.24626 2.15787 1.90524 2.15708 2.59259V18.7185C1.57184 18.8388 1.04598 19.1572 0.668153 19.62C0.29033 20.0828 0.0836649 20.6618 0.0830078 21.2593V53.4074C0.0837969 54.0948 0.357198 54.7537 0.843232 55.2398C1.32927 55.7258 1.98824 55.9992 2.6756 56H34.8237C35.5111 55.9992 36.1701 55.7258 36.6561 55.2398C37.1422 54.7537 37.4156 54.0948 37.4163 53.4074V21.2593C37.4157 20.6618 37.209 20.0828 36.8312 19.62C36.4534 19.1572 35.9275 18.8388 35.3423 18.7185ZM35.3423 36.2963H21.7505C21.6899 36.0571 21.6039 35.8251 21.4939 35.6042C21.4407 35.497 21.4129 35.379 21.4129 35.2593C21.4129 35.1396 21.4407 35.0215 21.4939 34.9143C21.6039 34.6934 21.6899 34.4614 21.7505 34.2222H35.3423V36.2963ZM19.9235 41.5521H18.7497C18.532 41.5521 18.3199 41.6206 18.1433 41.7479C17.9668 41.8751 17.8347 42.0547 17.7659 42.2612L17.4744 43.1359L15.4142 39.4275L16.5979 40.1377C16.9906 40.3744 17.4263 40.5308 17.8799 40.5977C18.3335 40.6646 18.7958 40.6407 19.2401 40.5274L19.9235 41.5521ZM9.6546 43.1359L9.36306 42.2612C9.29423 42.0547 9.16219 41.8751 8.98563 41.7479C8.80907 41.6206 8.59694 41.5521 8.3793 41.5521H7.20589L7.82449 40.6241C7.91004 40.6305 7.99573 40.6347 8.08167 40.6347C8.71153 40.6346 9.32944 40.4628 9.86901 40.1379L11.8972 38.9209C11.9216 38.9365 11.9459 38.952 11.9708 38.9669L9.6546 43.1359ZM2.15708 36.2963V34.2222H4.71675C4.77735 34.4614 4.86335 34.6934 4.97328 34.9143C5.02656 35.0215 5.05428 35.1396 5.05428 35.2593C5.05428 35.379 5.02656 35.497 4.97328 35.6042C4.86335 35.8251 4.77735 36.0571 4.71675 36.2963H2.15708ZM6.82841 33.9867C6.69213 33.7155 6.64766 33.4074 6.7017 33.1088C6.75574 32.8101 6.90536 32.5371 7.12803 32.3309C7.35069 32.1247 7.63433 31.9964 7.93624 31.9654C8.23814 31.9343 8.54195 32.0023 8.80189 32.1589L10.6115 33.2447C10.5067 33.5599 10.4533 33.89 10.4534 34.2222V36.2963C10.4533 36.6284 10.5067 36.9583 10.6115 37.2734L8.80189 38.3594C8.54191 38.5155 8.23828 38.583 7.93664 38.5517C7.635 38.5205 7.35165 38.3922 7.12917 38.1861C6.90668 37.9801 6.75708 37.7074 6.70285 37.409C6.64861 37.1107 6.69268 36.8027 6.82841 36.5316C7.02488 36.1362 7.12711 35.7007 7.12711 35.2591C7.12711 34.8176 7.02488 34.3821 6.82841 33.9867ZM8.79023 17.963C8.66243 17.8585 8.55933 17.7269 8.48829 17.5779C8.41725 17.4288 8.38004 17.2659 8.3793 17.1007C8.37857 16.9356 8.41435 16.7723 8.48406 16.6227C8.55378 16.473 8.65571 16.3405 8.78258 16.2348C9.03768 16.0203 9.36412 15.9097 9.69705 15.9248C10.03 15.9399 10.345 16.0798 10.5796 16.3165L11.0817 16.8185C11.178 16.9148 11.2923 16.9912 11.4181 17.0434C11.544 17.0955 11.6788 17.1223 11.815 17.1223C11.9512 17.1223 12.0861 17.0955 12.2119 17.0434C12.3377 16.9912 12.452 16.9148 12.5483 16.8185L13.0504 16.3164C13.285 16.0796 13.6001 15.9398 13.9331 15.9248C14.266 15.9097 14.5925 16.0204 14.8476 16.2349C14.9744 16.3407 15.0763 16.4731 15.146 16.6228C15.2157 16.7725 15.2515 16.9357 15.2507 17.1009C15.2499 17.266 15.2127 17.4289 15.1416 17.5779C15.0706 17.727 14.9675 17.8585 14.8397 17.963L13.9793 18.6667H9.67236L8.79023 17.963ZM19.6388 36.5318C19.7751 36.803 19.8196 37.1111 19.7655 37.4098C19.7115 37.7084 19.5618 37.9814 19.3392 38.1876C19.1165 38.3939 18.8329 38.5221 18.531 38.5532C18.2291 38.5842 17.9253 38.5163 17.6653 38.3596L16.3907 37.5948C16.5787 37.1878 16.6759 36.7447 16.6756 36.2963V34.2222C16.6758 33.7739 16.5785 33.3309 16.3904 32.924L17.6651 32.1592C17.925 32.0031 18.2287 31.9356 18.5303 31.9668C18.8319 31.998 19.1153 32.1263 19.3378 32.3324C19.5603 32.5384 19.7099 32.8111 19.7641 33.1095C19.8183 33.4079 19.7743 33.7158 19.6385 33.9869C19.4421 34.3824 19.3399 34.8179 19.34 35.2594C19.34 35.7009 19.4423 36.1365 19.6388 36.5318ZM14.6015 34.2222V36.2963C14.6015 36.5713 14.4923 36.8351 14.2978 37.0296C14.1033 37.2241 13.8395 37.3333 13.5645 37.3333C13.2894 37.3333 13.0257 37.2241 12.8312 37.0296C12.6367 36.8351 12.5274 36.5713 12.5274 36.2963V34.2222C12.5274 33.9472 12.6367 33.6834 12.8312 33.4889C13.0257 33.2944 13.2894 33.1852 13.5645 33.1852C13.8395 33.1852 14.1033 33.2944 14.2978 33.4889C14.4923 33.6834 14.6015 33.9472 14.6015 34.2222ZM14.6015 20.7407V31.2895C13.9306 31.0517 13.1984 31.0517 12.5274 31.2895V20.7407H14.6015ZM21.6404 32.1481C21.4664 31.6763 21.1917 31.248 20.8355 30.8931C20.4792 30.5381 20.05 30.2649 19.5775 30.0925C19.1051 29.9202 18.6008 29.8527 18.0997 29.8949C17.5985 29.9371 17.1126 30.0878 16.6756 30.3367V20.7407H34.8237C34.9613 20.7407 35.0932 20.7954 35.1904 20.8926C35.2876 20.9899 35.3423 21.1217 35.3423 21.2593V32.1481H21.6404ZM22.6601 17.963C22.5323 17.8585 22.4291 17.727 22.3581 17.5779C22.287 17.4288 22.2498 17.2659 22.249 17.1008C22.2483 16.9356 22.284 16.7724 22.3538 16.6227C22.4235 16.473 22.5254 16.3405 22.6523 16.2348C22.9074 16.0203 23.2338 15.9096 23.5668 15.9248C23.8997 15.9399 24.2148 16.0797 24.4494 16.3165L24.9514 16.8185C25.0477 16.9148 25.162 16.9912 25.2879 17.0434C25.4137 17.0955 25.5485 17.1223 25.6847 17.1223C25.8209 17.1223 25.9558 17.0955 26.0816 17.0434C26.2074 16.9912 26.3217 16.9148 26.418 16.8185L26.9201 16.3164C27.1548 16.0797 27.4699 15.9399 27.8028 15.9249C28.1357 15.9098 28.4622 16.0205 28.7173 16.2349C28.8441 16.3407 28.946 16.4731 29.0157 16.6228C29.0854 16.7725 29.1212 16.9357 29.1204 17.1008C29.1197 17.2659 29.0824 17.4288 29.0114 17.5779C28.9404 17.727 28.8373 17.8585 28.7095 17.963L27.8497 18.6667H23.5416L22.6601 17.963ZM4.23116 2.59259C4.23116 2.45507 4.28578 2.32318 4.38303 2.22594C4.48027 2.1287 4.61215 2.07407 4.74967 2.07407H32.7497C32.8872 2.07407 33.0191 2.1287 33.1163 2.22594C33.2136 2.32318 33.2682 2.45507 33.2682 2.59259V18.6667H30.7814C31.149 18.0156 31.2765 17.2562 31.1419 16.5207C31.0073 15.7852 30.619 15.1202 30.0446 14.6415C29.4343 14.1281 28.6625 13.8464 27.865 13.8458C27.0675 13.8452 26.2953 14.1259 25.6843 14.6384C25.0733 14.1259 24.3012 13.8452 23.5037 13.8458C22.7062 13.8463 21.9344 14.128 21.3241 14.6414C20.7495 15.12 20.361 15.785 20.2266 16.5207C20.0921 17.2563 20.2201 18.0158 20.5883 18.6667H16.912C17.2796 18.0156 17.4072 17.2562 17.2726 16.5207C17.1379 15.7852 16.7497 15.1203 16.1754 14.6415C15.565 14.1282 14.7933 13.8464 13.9957 13.8458C13.1982 13.8453 12.426 14.1259 11.815 14.6384C11.204 14.1259 10.4319 13.8452 9.63435 13.8457C8.83684 13.8462 8.06506 14.128 7.45478 14.6414C6.88014 15.12 6.49172 15.785 6.35725 16.5207C6.22279 17.2563 6.35081 18.0158 6.71901 18.6667H4.23116V2.59259ZM2.6756 20.7407H10.4534V30.7314L9.86901 30.3808C9.43204 30.117 8.94219 29.953 8.43447 29.9005C7.92676 29.8481 7.41372 29.9084 6.93204 30.0773C6.45036 30.2461 6.01194 30.5193 5.64812 30.8773C5.2843 31.2353 5.00406 31.6693 4.82745 32.1481H2.15708V21.2593C2.15708 21.1217 2.21171 20.9899 2.30895 20.8926C2.40619 20.7954 2.53808 20.7407 2.6756 20.7407ZM2.15708 53.4074V38.3704H4.82745C5.03687 38.9399 5.39354 39.4438 5.86112 39.8307L4.40564 42.0139C4.30152 42.17 4.24173 42.3515 4.23265 42.539C4.22356 42.7264 4.26553 42.9129 4.35406 43.0784C4.44259 43.2438 4.57438 43.3822 4.73537 43.4787C4.89635 43.5752 5.08051 43.6262 5.26819 43.6262H7.63186L8.43258 46.0282C8.49622 46.2192 8.61405 46.3875 8.7717 46.5126C8.92935 46.6377 9.12001 46.7143 9.32041 46.7329C9.35256 46.7359 9.38523 46.7373 9.4166 46.7373C9.60149 46.7373 9.78301 46.6878 9.94235 46.594C10.1017 46.5002 10.233 46.3655 10.3228 46.2039L10.4534 45.9689V53.9259H2.6756C2.53808 53.9259 2.40619 53.8713 2.30895 53.7741C2.21171 53.6768 2.15708 53.5449 2.15708 53.4074ZM12.5274 53.9259V42.2355L13.5645 40.3689L14.6015 42.2355V53.9259H12.5274ZM34.8237 53.9259H16.6756V45.9684L16.8064 46.2039C16.8962 46.3655 17.0275 46.5002 17.1869 46.594C17.3462 46.6878 17.5277 46.7373 17.7126 46.7373C17.7447 46.7373 17.7774 46.7358 17.8089 46.7329C18.0094 46.7143 18.2 46.6377 18.3577 46.5126C18.5153 46.3875 18.6331 46.2192 18.6968 46.0282L19.4975 43.6262H21.8608C22.0485 43.6262 22.2327 43.5753 22.3937 43.4788C22.5548 43.3824 22.6866 43.244 22.7752 43.0785C22.8638 42.913 22.9058 42.7266 22.8967 42.5391C22.8877 42.3516 22.8279 42.1701 22.7237 42.0139L21.0074 39.4394C21.1047 39.3273 21.1947 39.2091 21.2771 39.0857C21.4255 38.8621 21.5475 38.6221 21.6404 38.3704H35.3423V53.4074C35.3423 53.5449 35.2876 53.6768 35.1904 53.7741C35.0932 53.8713 34.9613 53.9259 34.8237 53.9259ZM7.47695 9.86481L11.1584 12.8769C11.3437 13.0285 11.5757 13.1113 11.8151 13.1113C12.0545 13.1113 12.2866 13.0285 12.4718 12.8769L16.1533 9.86481C16.5177 9.56673 16.8116 9.19181 17.0142 8.76686C17.2168 8.34192 17.3229 7.87746 17.325 7.40671C17.3272 6.93597 17.2252 6.47057 17.0265 6.04381C16.8278 5.61705 16.5373 5.23948 16.1756 4.93811C15.5653 4.42473 14.7935 4.14297 13.996 4.14238C13.1985 4.14179 12.4263 4.4224 11.8153 4.93487C11.2042 4.42237 10.4321 4.14172 9.63459 4.14229C8.83709 4.14286 8.06533 4.42461 7.45504 4.93798C7.09339 5.23935 6.80281 5.61693 6.6041 6.04369C6.40538 6.47046 6.30343 6.93586 6.30555 7.40662C6.30767 7.87738 6.4138 8.34185 6.61635 8.76681C6.8189 9.19176 7.1126 9.56671 7.47695 9.86481ZM8.78258 6.53139C9.03764 6.31683 9.3641 6.20612 9.69706 6.22125C10.03 6.23638 10.3451 6.37625 10.5796 6.61305L11.0817 7.11511C11.178 7.21141 11.2923 7.28781 11.4181 7.33993C11.544 7.39205 11.6788 7.41887 11.815 7.41887C11.9512 7.41887 12.0861 7.39205 12.2119 7.33993C12.3377 7.28781 12.452 7.21141 12.5483 7.11511L13.0504 6.61305C13.285 6.37631 13.6001 6.2365 13.9331 6.22142C14.266 6.20633 14.5925 6.31708 14.8476 6.53165C14.9744 6.63736 15.0763 6.7698 15.146 6.9195C15.2157 7.06919 15.2515 7.23244 15.2507 7.39756C15.2499 7.56268 15.2127 7.72559 15.1416 7.87464C15.0706 8.02369 14.9675 8.15519 14.8397 8.25974L11.8145 10.7344L8.79023 8.25961C8.66243 8.15503 8.55933 8.0235 8.48829 7.87443C8.41725 7.72536 8.38004 7.56243 8.3793 7.3973C8.37857 7.23217 8.41435 7.06892 8.48406 6.91923C8.55378 6.76953 8.65571 6.63709 8.78258 6.53139ZM21.3463 9.86481L25.0278 12.8769C25.213 13.0285 25.4451 13.1113 25.6845 13.1113C25.9239 13.1113 26.1559 13.0285 26.3412 12.8769L30.0227 9.86481C30.387 9.56672 30.681 9.19179 30.8835 8.76684C31.0861 8.34189 31.1922 7.87743 31.1943 7.40668C31.1964 6.93594 31.0945 6.47054 30.8958 6.04379C30.697 5.61703 30.4065 5.23947 30.0448 4.93811C29.4345 4.42472 28.6628 4.14295 27.8653 4.14235C27.0678 4.14176 26.2956 4.42238 25.6846 4.93487C25.0736 4.42241 24.3014 4.1418 23.5039 4.14237C22.7064 4.14294 21.9347 4.42465 21.3244 4.93798C20.9627 5.23935 20.6721 5.61693 20.4734 6.04369C20.2747 6.47046 20.1728 6.93586 20.1749 7.40662C20.177 7.87738 20.2831 8.34185 20.4857 8.76681C20.6882 9.19176 20.9819 9.56671 21.3463 9.86481ZM22.6515 6.53139C22.9066 6.31683 23.233 6.20612 23.566 6.22125C23.899 6.23638 24.214 6.37625 24.4486 6.61305L24.9506 7.11511C25.0469 7.21141 25.1613 7.28781 25.2871 7.33993C25.4129 7.39205 25.5478 7.41887 25.684 7.41887C25.8201 7.41887 25.955 7.39205 26.0808 7.33993C26.2066 7.28781 26.321 7.21141 26.4173 7.11511L26.9193 6.61305C27.154 6.37636 27.4691 6.23659 27.802 6.22151C28.135 6.20643 28.4614 6.31714 28.7165 6.53165C28.8433 6.63736 28.9452 6.7698 29.0149 6.91949C29.0846 7.06918 29.1204 7.23241 29.1196 7.39753C29.1189 7.56264 29.0817 7.72555 29.0106 7.8746C28.9396 8.02365 28.8365 8.15517 28.7087 8.25974L25.6849 10.7344L22.6602 8.25961C22.5324 8.15505 22.4292 8.02354 22.3582 7.87447C22.2871 7.7254 22.2499 7.56247 22.2491 7.39733C22.2484 7.23219 22.2842 7.06893 22.3539 6.91923C22.4236 6.76953 22.5246 6.63709 22.6515 6.53139Z" fill="#AE8646"/>
</svg>
