<svg width="44" height="56" viewBox="0 0 44 56" fill="none" xmlns="http://www.w3.org/2000/svg">
<path d="M43.8799 11.5553C43.8092 11.424 43.7061 11.3128 43.5804 11.2325C43.4547 11.1522 43.3106 11.1053 43.1617 11.0964C42.5222 11.0566 41.8807 11.0617 41.2419 11.1116C41.3875 10.2354 41.2617 9.33554 40.8813 8.53284C40.5009 7.73014 39.8842 7.06295 39.1138 6.62077C38.3434 6.1786 37.4562 5.98258 36.5712 6.05901C35.6863 6.13544 34.8458 6.48067 34.1627 7.04839C33.8926 6.46504 33.5811 5.90174 33.2307 5.36279C33.1461 5.24058 33.033 5.1409 32.9011 5.07244C32.7692 5.00398 32.6225 4.96881 32.4739 4.97C32.3248 4.97463 32.1793 5.01725 32.0512 5.0938C31.9232 5.17036 31.8167 5.27833 31.7421 5.4075L30.7661 7.09791L24.6483 1.855C23.9019 1.24203 22.9661 0.906898 22.0003 0.906738C21.0345 0.906579 20.0986 1.2414 19.3521 1.85413L13.2342 7.09783L12.2581 5.4075C12.1834 5.27833 12.077 5.17036 11.9489 5.0938C11.8208 5.01725 11.6754 4.97463 11.5262 4.97C11.3776 4.96846 11.2309 5.00351 11.099 5.07205C10.9671 5.1406 10.8541 5.24053 10.77 5.36305C10.4199 5.90145 10.1087 6.46416 9.83888 7.0469C9.15521 6.47989 8.31457 6.13537 7.42961 6.05953C6.54465 5.98368 5.65765 6.18012 4.88746 6.62254C4.11728 7.06495 3.50072 7.73219 3.12039 8.53485C2.74006 9.33751 2.61415 10.2372 2.75952 11.1135C2.12041 11.0628 1.47853 11.0572 0.838629 11.0967C0.689761 11.1056 0.54565 11.1525 0.419979 11.2328C0.294307 11.3131 0.191246 11.4241 0.120579 11.5555C0.0499122 11.6868 0.0139859 11.834 0.0162107 11.9831C0.0184355 12.1323 0.0587379 12.2783 0.133291 12.4075L2.9409 17.2702C2.85247 17.3899 2.79647 17.5303 2.77833 17.678C2.67666 18.7103 2.94513 19.7451 3.53582 20.5978L14.9187 36.934C14.7137 37.0142 14.5195 37.1195 14.3405 37.2475C14.0014 37.489 13.7253 37.8085 13.5355 38.1791C13.3458 38.5497 13.2479 38.9604 13.2502 39.3768V43.2705C13.251 43.9652 13.5266 44.6313 14.0167 45.1236C14.5068 45.6158 15.1718 45.8943 15.8664 45.8981C16.1516 45.8978 16.4348 45.8513 16.7051 45.7606L17.1102 45.6255L15.0258 54.04C14.9939 54.1689 14.9918 54.3034 15.0196 54.4332C15.0474 54.563 15.1044 54.6848 15.1862 54.7894C15.2681 54.8939 15.3726 54.9785 15.492 55.0366C15.6114 55.0948 15.7424 55.125 15.8752 55.125H28.1252C28.2579 55.125 28.389 55.0948 28.5083 55.0366C28.6277 54.9785 28.7322 54.8939 28.8141 54.7894C28.8959 54.6848 28.9529 54.563 28.9807 54.4332C29.0085 54.3034 29.0064 54.1689 28.9745 54.04L26.8899 45.6257L27.295 45.7608C27.5654 45.8516 27.8486 45.898 28.1337 45.8984C28.8284 45.8946 29.4934 45.6161 29.9836 45.1238C30.4738 44.6315 30.7493 43.9653 30.7502 43.2706V39.3769C30.7525 38.9605 30.6546 38.5497 30.4648 38.1791C30.2751 37.8085 29.999 37.489 29.6598 37.2474C29.481 37.1196 29.287 37.0144 29.0823 36.9342L40.4645 20.5975C41.0823 19.7119 41.3498 18.6287 41.2155 17.5572C41.1994 17.435 41.1575 17.3176 41.0924 17.2128L43.867 12.4072C43.9415 12.2781 43.9817 12.132 43.984 11.983C43.9862 11.8339 43.9504 11.6867 43.8799 11.5553ZM38.2419 8.14931C38.79 8.46304 39.2053 8.9653 39.4105 9.56253C39.6157 10.1598 39.5968 10.8112 39.3574 11.3956C37.981 11.7048 36.6623 12.2302 35.4503 12.952C35.4689 11.5543 35.2703 10.1621 34.8617 8.82534C35.248 8.32275 35.8034 7.97727 36.4249 7.85296C37.0465 7.72865 37.6921 7.83395 38.2419 8.14931ZM32.4993 7.5964C33.5138 9.65729 33.903 11.97 33.6188 14.2495C32.4221 15.2656 31.4098 16.4805 30.6263 17.8409L29.5785 19.6559C29.3888 19.7271 29.1927 19.8072 29.001 19.8817V13.6571L32.4993 7.5964ZM20.4911 3.18299C20.9165 2.8338 21.4499 2.64302 22.0003 2.64318C22.5507 2.64334 23.084 2.83443 23.5092 3.18386L29.8759 8.63984L29.0002 10.1566V9.625C29.0002 9.47584 28.9621 9.32914 28.8894 9.19885C28.8168 9.06857 28.7121 8.95901 28.5852 8.88059C28.4583 8.80216 28.3135 8.75748 28.1644 8.75078C28.0154 8.74408 27.8672 8.77559 27.7338 8.84231C27.1601 9.13428 26.608 9.46693 26.0818 9.83772C25.7729 9.00607 25.2173 8.28864 24.4893 7.78148C23.7614 7.27432 22.896 7.00164 22.0088 6.99995C21.1216 6.99825 20.2551 7.26763 19.5253 7.772C18.7954 8.27638 18.2371 8.99168 17.925 9.82214C17.3957 9.45716 16.8416 9.12969 16.2665 8.84214C16.1331 8.77541 15.9848 8.7439 15.8358 8.75061C15.6868 8.75732 15.542 8.80201 15.4151 8.88046C15.2882 8.9589 15.1834 9.06848 15.1108 9.19879C15.0382 9.32911 15.0001 9.47582 15.0002 9.625V10.1566L14.1245 8.63984L20.4911 3.18299ZM22.9525 16.3468C23.8462 14.2297 25.3402 12.4205 27.2502 11.1426V20.5942C26.1076 21.0814 24.9381 21.6211 23.7502 22.2304V20.9513C23.7517 19.3819 23.4819 17.8241 22.9525 16.3468ZM19.412 11.0105C19.4968 10.3828 19.8067 9.80733 20.2842 9.39119C20.7617 8.97505 21.3741 8.74659 22.0074 8.74837C22.6408 8.75015 23.2519 8.98203 23.7271 9.40085C24.2022 9.81966 24.5089 10.3969 24.5902 11.025C23.5668 11.9794 22.698 13.0871 22.0149 14.3084C21.3259 13.0791 20.4475 11.9661 19.412 11.0105ZM22.0002 20.9513V23.1706C21.6691 23.3567 21.337 23.5537 21.005 23.7502C19.5764 22.9086 18.147 22.1574 16.7502 21.4874V11.14C18.3701 12.2118 19.6981 13.6697 20.6145 15.3824C21.531 17.0951 22.0072 19.0088 22.0002 20.9513ZM11.501 7.5964L15.0002 13.6571V20.656L13.3745 17.8413C12.5911 16.4817 11.5788 15.2676 10.382 14.2528C10.097 11.9723 10.486 9.6583 11.501 7.5964ZM4.53515 9.74295C4.66115 9.27091 4.91673 8.84355 5.27298 8.50922C5.62923 8.17489 6.07194 7.94692 6.55101 7.85111C7.03009 7.75531 7.52642 7.79548 7.98385 7.9671C8.44129 8.13871 8.84156 8.43491 9.1394 8.82219C8.72996 10.161 8.53112 11.5552 8.55 12.9551C7.33831 12.2338 6.02031 11.7084 4.6447 11.3983C4.42813 10.8733 4.38965 10.2919 4.53515 9.74295ZM2.40663 12.8439C4.34548 12.9625 6.22443 13.5612 7.87441 14.5863C9.52438 15.6114 10.8936 17.0306 11.8589 18.7163L12.3607 19.5852C9.92528 18.6331 7.43539 17.8267 4.90423 17.1702L2.40663 12.8439ZM16.1516 44.1012C16.0201 44.1446 15.8802 44.1563 15.7434 44.1354C15.6065 44.1144 15.4766 44.0615 15.3641 43.9807C15.2509 43.9002 15.1588 43.7937 15.0955 43.6701C15.0321 43.5465 14.9994 43.4095 15.0002 43.2706V39.3769C14.9994 39.238 15.032 39.101 15.0953 38.9774C15.1586 38.8538 15.2506 38.7473 15.3637 38.6667C15.4763 38.5859 15.6064 38.5329 15.7434 38.512C15.8804 38.4911 16.0204 38.5028 16.152 38.5462L19.0246 39.5039C18.8451 39.7971 18.7102 40.1154 18.6244 40.4484H17.6252C17.3931 40.4484 17.1705 40.5406 17.0064 40.7047C16.8423 40.8687 16.7502 41.0913 16.7502 41.3234C16.7502 41.5554 16.8423 41.778 17.0064 41.9421C17.1705 42.1062 17.3931 42.1984 17.6252 42.1984H18.6244C18.7103 42.5315 18.8453 42.85 19.025 43.1434L16.1516 44.1012ZM27.0071 53.375H16.9932L19.0757 44.9705L20.5267 44.4868C20.9864 44.7083 21.49 44.8233 22.0002 44.8233C22.5105 44.8233 23.0141 44.7083 23.4737 44.4868L24.9248 44.9705L27.0071 53.375ZM20.2502 41.3233C20.2502 40.9772 20.3528 40.6388 20.5451 40.351C20.7374 40.0633 21.0107 39.839 21.3305 39.7065C21.6502 39.574 22.0021 39.5394 22.3416 39.6069C22.681 39.6744 22.9929 39.8411 23.2376 40.0858C23.4823 40.3306 23.649 40.6424 23.7165 40.9819C23.7841 41.3213 23.7494 41.6732 23.6169 41.993C23.4845 42.3128 23.2602 42.5861 22.9724 42.7784C22.6846 42.9706 22.3463 43.0733 22.0002 43.0733C21.5362 43.0728 21.0914 42.8882 20.7633 42.5601C20.4352 42.2321 20.2507 41.7873 20.2502 41.3233ZM29.0002 43.2706C29.0009 43.4094 28.9683 43.5464 28.905 43.67C28.8417 43.7936 28.7497 43.9002 28.6366 43.9807C28.5241 44.0614 28.3941 44.1144 28.2573 44.1353C28.1204 44.1563 27.9806 44.1446 27.8491 44.1012L24.9752 43.1433C25.1548 42.8499 25.2898 42.5314 25.3757 42.1983H26.3752C26.6072 42.1983 26.8298 42.1061 26.9939 41.942C27.158 41.7779 27.2502 41.5554 27.2502 41.3233C27.2502 41.0912 27.158 40.8687 26.9939 40.7046C26.8298 40.5405 26.6072 40.4483 26.3752 40.4483H25.3759C25.2901 40.1153 25.1552 39.797 24.9757 39.5038L27.8487 38.5461C27.9803 38.5023 28.1204 38.4904 28.2575 38.5114C28.3945 38.5323 28.5246 38.5856 28.6371 38.6667C28.7495 38.7478 28.8411 38.8545 28.9042 38.978C28.9673 39.1014 29.0002 39.2381 29.0002 39.3768V43.2706ZM26.8883 37.0223L23.473 38.1598C23.0136 37.9386 22.5101 37.8237 22.0002 37.8237C21.4902 37.8237 20.9868 37.9386 20.5273 38.1598L17.1125 37.0223L4.97143 19.5978C4.82405 19.3854 4.7094 19.1521 4.63132 18.9056C9.68234 20.2188 21.7894 24.144 29.7286 32.9458L26.8883 37.0223ZM39.0289 19.5978L30.7621 31.4628C28.3646 28.9067 25.6527 26.6648 22.6914 24.7907C27.9023 21.8672 33.5553 19.8133 39.4275 18.71C39.3511 19.0281 39.2159 19.3293 39.0289 19.5978ZM39.2104 16.9719C36.8057 17.4161 34.4329 18.0185 32.1075 18.7751L32.1417 18.7159C33.1068 17.0302 34.476 15.611 36.1259 14.5859C37.7759 13.5609 39.6549 12.9622 41.5937 12.8439L39.2104 16.9719Z" fill="#AE8646"/>
</svg>
