<svg width="42" height="56" viewBox="0 0 42 56" fill="none" xmlns="http://www.w3.org/2000/svg">
<path d="M21.0003 8.74993C15.5456 8.74993 13.5864 6.94918 13.3817 6.74355C13.2593 6.62118 13.176 6.46529 13.1423 6.29558C13.1085 6.12587 13.1259 5.94997 13.1921 5.7901C13.2583 5.63024 13.3704 5.4936 13.5143 5.39745C13.6581 5.3013 13.8273 5.24996 14.0003 5.24993C17.7733 5.24993 20.1944 0.530178 20.2181 0.482928C20.299 0.347723 20.4136 0.235809 20.5507 0.158103C20.6878 0.0803961 20.8427 0.0395508 21.0003 0.0395508C21.1579 0.0395508 21.3128 0.0803961 21.4499 0.158103C21.587 0.235809 21.7016 0.347723 21.7826 0.482928C21.8062 0.530178 24.2264 5.24993 28.0003 5.24993C28.1733 5.24996 28.3425 5.3013 28.4863 5.39745C28.6302 5.4936 28.7423 5.63024 28.8085 5.7901C28.8747 5.94997 28.8921 6.12587 28.8583 6.29558C28.8246 6.46529 28.7413 6.62118 28.6189 6.74355C28.4142 6.94918 26.4551 8.74993 21.0003 8.74993ZM16.6166 6.44693C18.0436 6.84102 19.5201 7.02727 21.0003 6.99993C22.4803 7.02755 23.9565 6.8413 25.3832 6.44693C23.5957 5.57526 22.0802 4.23192 21.0003 2.56193C19.9206 4.23236 18.4047 5.5758 16.6166 6.44693Z" fill="#AE8646"/>
<path d="M14.8753 14.0001C10.7917 14.0001 9.71281 10.9087 9.67081 10.7766C9.62702 10.6451 9.61509 10.5051 9.63598 10.3681C9.65688 10.2312 9.71001 10.1011 9.79101 9.98866C9.872 9.87622 9.97854 9.78463 10.1019 9.72143C10.2252 9.65822 10.3617 9.6252 10.5003 9.6251C13.5103 9.6251 15.9026 6.50572 15.9253 6.4751L17.3253 7.5251C15.9725 9.27316 14.1097 10.5574 11.9948 11.2001C12.38 11.5594 12.8335 11.8375 13.3283 12.0179C13.8232 12.1983 14.3493 12.2772 14.8753 12.2501V14.0001Z" fill="#AE8646"/>
<path d="M27.1253 14.0001V12.2501C27.6525 12.2787 28.1801 12.2004 28.6763 12.0199C29.1725 11.8395 29.6271 11.5606 30.0128 11.2001C27.8951 10.5592 26.0296 9.27473 24.6753 7.5251L26.0753 6.4751C26.0989 6.50747 28.4912 9.6251 31.5003 9.6251C31.6389 9.6252 31.7754 9.65822 31.8988 9.72143C32.0221 9.78463 32.1286 9.87622 32.2096 9.98866C32.2906 10.1011 32.3437 10.2312 32.3646 10.3681C32.3855 10.5051 32.3736 10.6451 32.3298 10.7766C32.2878 10.9087 31.2089 14.0001 27.1253 14.0001Z" fill="#AE8646"/>
<path d="M28.0003 18.375C27.1688 18.3662 26.3522 18.1528 25.6228 17.7536C24.8933 17.3544 24.2734 16.7816 23.8178 16.086C23.2176 17.3635 22.2481 18.375 21.0003 18.375C19.7526 18.375 18.7831 17.3635 18.1828 16.086C17.7272 16.7816 17.1073 17.3544 16.3778 17.7536C15.6484 18.1528 14.8318 18.3662 14.0003 18.375C12.1461 18.3409 10.369 17.6269 9.00668 16.3686C8.88434 16.2463 8.80104 16.0904 8.76729 15.9207C8.73354 15.7509 8.75087 15.575 8.81708 15.4152C8.8833 15.2553 8.99542 15.1187 9.13928 15.0225C9.28313 14.9264 9.45227 14.875 9.6253 14.875C12.6589 14.875 15.9104 10.8684 15.9428 10.8281L17.3087 11.9219C15.8384 13.7293 13.978 15.1804 11.8671 16.1665C12.5393 16.4637 13.2653 16.6197 14.0003 16.625C16.4249 16.625 17.5003 14.0875 17.5003 13.125C17.5003 12.8929 17.5925 12.6704 17.7566 12.5063C17.9207 12.3422 18.1432 12.25 18.3753 12.25C18.6074 12.25 18.8299 12.3422 18.994 12.5063C19.1581 12.6704 19.2503 12.8929 19.2503 13.125C19.2503 14.8146 20.2776 16.625 21.0003 16.625C21.7231 16.625 22.7503 14.8146 22.7503 13.125C22.7503 12.8929 22.8425 12.6704 23.0066 12.5063C23.1707 12.3422 23.3932 12.25 23.6253 12.25C23.8574 12.25 24.0799 12.3422 24.244 12.5063C24.4081 12.6704 24.5003 12.8929 24.5003 13.125C24.5003 14.0875 25.5757 16.625 28.0003 16.625C28.7368 16.6211 29.4647 16.466 30.1388 16.1691C28.0256 15.1831 26.1633 13.731 24.6919 11.9219L26.0578 10.8281C26.0902 10.8684 29.3417 14.875 32.3753 14.875C32.5483 14.875 32.7175 14.9264 32.8613 15.0225C33.0052 15.1187 33.1173 15.2553 33.1835 15.4152C33.2497 15.575 33.2671 15.7509 33.2333 15.9207C33.1996 16.0904 33.1163 16.2463 32.9939 16.3686C31.6316 17.6269 29.8545 18.3409 28.0003 18.375Z" fill="#AE8646"/>
<path d="M30.6252 26.2501C29.467 26.2396 28.3282 25.9521 27.3039 25.4116C26.2796 24.871 25.3995 24.0931 24.7373 23.1429C23.9831 24.8886 22.6242 26.2501 21.0002 26.2501C19.3762 26.2501 18.0173 24.8886 17.2631 23.1429C16.6008 24.0931 15.7208 24.871 14.6965 25.4116C13.6722 25.9521 12.5333 26.2396 11.3752 26.2501C10.2168 26.2398 9.07626 25.9638 8.04135 25.4434C7.00645 24.9229 6.10483 24.1718 5.40594 23.2479C5.31511 23.1167 5.26192 22.9631 5.25213 22.8037C5.24235 22.6444 5.27633 22.4854 5.35041 22.344C5.4245 22.2026 5.53585 22.0842 5.67242 22.0015C5.80898 21.9188 5.96556 21.8751 6.12519 21.8751C10.1554 21.8751 13.2293 17.0818 13.2599 17.0337L14.7413 17.9656C14.6144 18.1668 11.9737 22.3021 7.99419 23.3731C8.96929 24.1052 10.1558 24.5007 11.3752 24.5001C14.7877 24.5001 16.6252 21.3947 16.6252 20.1251C16.6252 19.893 16.7174 19.6704 16.8815 19.5063C17.0456 19.3423 17.2681 19.2501 17.5002 19.2501C17.7323 19.2501 17.9548 19.3423 18.1189 19.5063C18.283 19.6704 18.3752 19.893 18.3752 20.1251C18.3752 22.2513 19.7244 24.5001 21.0002 24.5001C22.2759 24.5001 23.6252 22.2513 23.6252 20.1251C23.6252 19.893 23.7174 19.6704 23.8815 19.5063C24.0456 19.3423 24.2681 19.2501 24.5002 19.2501C24.7323 19.2501 24.9548 19.3423 25.1189 19.5063C25.283 19.6704 25.3752 19.893 25.3752 20.1251C25.3752 21.3947 27.2127 24.5001 30.6252 24.5001C31.844 24.4991 33.0297 24.1031 34.0044 23.3713C32.1337 22.784 30.4505 21.7148 29.1237 20.2712L30.3784 19.0523C31.6297 20.3403 33.6002 21.8751 35.8752 21.8751C36.0348 21.8751 36.1914 21.9188 36.328 22.0015C36.4645 22.0842 36.5759 22.2026 36.65 22.344C36.724 22.4854 36.758 22.6444 36.7482 22.8037C36.7385 22.9631 36.6853 23.1167 36.5944 23.2479C35.8955 24.1718 34.9939 24.9229 33.959 25.4434C32.9241 25.9638 31.7836 26.2398 30.6252 26.2501Z" fill="#AE8646"/>
<path d="M32.3752 35C30.9547 34.9706 29.5691 34.5543 28.3676 33.7961C27.1661 33.0378 26.1941 31.9663 25.5563 30.6967C24.6524 33.0548 22.954 35 21.0001 35C19.0463 35 17.3479 33.0548 16.444 30.6967C15.8062 31.9663 14.8342 33.0378 13.6327 33.7961C12.4312 34.5543 11.0456 34.9706 9.62515 35C5.01302 35 2.06077 31.325 1.93827 31.1666C1.8366 31.0376 1.77329 30.8826 1.75559 30.7193C1.73788 30.556 1.7665 30.391 1.83816 30.2432C1.90982 30.0954 2.02163 29.9708 2.16081 29.8835C2.29998 29.7963 2.4609 29.75 2.62515 29.75C5.0466 29.6833 7.34314 28.6605 9.01265 26.9053L10.2376 28.1496C8.69542 29.7265 6.72888 30.8223 4.5764 31.304C5.99011 32.5061 7.77031 33.1923 9.62515 33.25C13.8671 33.25 15.7501 28.812 15.7501 27.125C15.7501 26.8929 15.8423 26.6703 16.0064 26.5062C16.1705 26.3421 16.3931 26.25 16.6251 26.25C16.8572 26.25 17.0798 26.3421 17.2439 26.5062C17.408 26.6703 17.5001 26.8929 17.5001 27.125C17.5001 29.9302 19.3971 33.25 21.0001 33.25C22.6031 33.25 24.5001 29.9302 24.5001 27.125C24.5001 26.8929 24.5923 26.6703 24.7564 26.5062C24.9205 26.3421 25.1431 26.25 25.3751 26.25C25.6072 26.25 25.8298 26.3421 25.9939 26.5062C26.158 26.6703 26.2501 26.8929 26.2501 27.125C26.2501 28.812 28.1332 33.25 32.3752 33.25C34.2281 33.1923 36.0065 32.5068 37.4187 31.3057C32.5887 30.3336 29.9925 26.0251 29.8718 25.8195L31.3777 24.9287C31.4074 24.9768 34.3054 29.75 39.3752 29.75C39.5394 29.75 39.7003 29.7963 39.8395 29.8835C39.9787 29.9708 40.0905 30.0954 40.1621 30.2432C40.2338 30.391 40.2624 30.556 40.2447 30.7193C40.227 30.8826 40.1637 31.0376 40.062 31.1666C39.9395 31.325 36.9873 35 32.3752 35Z" fill="#AE8646"/>
<path d="M41.125 40.25C31.2515 40.25 28.3745 37.4868 28.2563 37.3686L29.4813 36.1209C29.5041 36.1419 31.5656 37.9943 38.297 38.4151C36.6282 37.1155 35.2396 35.4916 34.2151 33.6411L35.7814 32.8589C37.3931 36.0833 41.5327 38.5998 41.5739 38.6251C41.7376 38.7236 41.8647 38.873 41.9356 39.0505C42.0064 39.228 42.0173 39.4238 41.9664 39.608C41.9155 39.7922 41.8057 39.9547 41.6537 40.0706C41.5018 40.1866 41.3161 40.2496 41.125 40.25Z" fill="#AE8646"/>
<path d="M31.5 42C25.0075 42 22.197 40.0356 21 38.549C19.803 40.0356 16.9925 42 10.5 42C10.3164 42 10.1374 41.9422 9.98838 41.8348C9.8394 41.7275 9.72798 41.5759 9.6699 41.4017C9.61183 41.2275 9.61004 41.0394 9.6648 40.8641C9.71956 40.6888 9.82808 40.5352 9.975 40.425C10.1001 40.3288 13.125 37.9444 13.125 32.375H14.875C14.9503 35.1558 14.1368 37.8881 12.5528 40.1748C19.3104 39.6498 20.1381 36.5951 20.1451 36.5619C20.1875 36.3638 20.2986 36.1872 20.4588 36.0632C20.6189 35.9393 20.8178 35.876 21.0201 35.8846C21.2185 35.8868 21.4101 35.9568 21.5631 36.0831C21.7161 36.2093 21.8212 36.3842 21.861 36.5785C21.8663 36.5969 22.6931 39.6524 29.4508 40.1748C27.8654 37.8885 27.0507 35.1561 27.125 32.375H28.875C28.875 37.9978 31.9935 40.4014 32.025 40.425C32.1719 40.5352 32.2804 40.6888 32.3352 40.8641C32.39 41.0394 32.3882 41.2275 32.3301 41.4017C32.272 41.5759 32.1606 41.7275 32.0116 41.8348C31.8626 41.9422 31.6836 42 31.5 42Z" fill="#AE8646"/>
<path d="M0.875212 40.25C0.68395 40.2499 0.497975 40.1872 0.345748 40.0714C0.193521 39.9556 0.0834263 39.7932 0.0323129 39.6088C-0.0188005 39.4245 -0.00811781 39.2286 0.0627267 39.0509C0.133571 38.8732 0.260675 38.7237 0.424587 38.6251C0.465712 38.5998 4.60534 36.0833 6.21709 32.8589L7.78334 33.6411C6.75811 35.4906 5.36934 37.1136 3.70059 38.4125C10.4425 37.9943 12.4856 36.1489 12.5066 36.1279L13.7438 37.3651C13.6257 37.4868 10.7487 40.25 0.875212 40.25Z" fill="#AE8646"/>
<path d="M23.625 56H18.375C17.6788 56 17.0111 55.7235 16.5188 55.2312C16.0266 54.7389 15.75 54.0712 15.75 53.375V51.7414C15.75 51.6244 15.7576 51.5075 15.7727 51.3914L17.1334 41.874L18.8667 42.1216L17.507 51.6338C17.5022 51.6694 17.4999 51.7054 17.5 51.7414V53.375C17.5 53.6071 17.5922 53.8297 17.7563 53.9937C17.9204 54.1578 18.1429 54.25 18.375 54.25H23.625C23.8571 54.25 24.0796 54.1578 24.2437 53.9937C24.4078 53.8297 24.5 53.6071 24.5 53.375V51.7414C24.5 51.7025 24.4974 51.6636 24.4921 51.625L23.1332 42.1243L24.8666 41.8767L26.2264 51.3862C26.2419 51.5039 26.2498 51.6226 26.25 51.7414V53.375C26.25 53.7197 26.1821 54.0611 26.0502 54.3796C25.9183 54.698 25.7249 54.9874 25.4812 55.2312C25.2374 55.4749 24.948 55.6683 24.6295 55.8002C24.3111 55.9321 23.9697 56 23.625 56Z" fill="#AE8646"/>
</svg>
