<svg width="16" height="20" viewBox="0 0 16 20" fill="none" xmlns="http://www.w3.org/2000/svg">
<path d="M15.1998 8.39995C15.1998 14 7.9998 18.8 7.9998 18.8C7.9998 18.8 0.799805 14 0.799805 8.39995C0.799805 6.49039 1.55837 4.65904 2.90864 3.30878C4.2589 1.95852 6.09025 1.19995 7.9998 1.19995C9.90936 1.19995 11.7407 1.95852 13.091 3.30878C14.4412 4.65904 15.1998 6.49039 15.1998 8.39995Z" stroke="#333333" stroke-width="1.5" stroke-linecap="round" stroke-linejoin="round"/>
<path d="M7.9998 10.8C9.32529 10.8 10.3998 9.72543 10.3998 8.39995C10.3998 7.07447 9.32529 5.99995 7.9998 5.99995C6.67432 5.99995 5.5998 7.07447 5.5998 8.39995C5.5998 9.72543 6.67432 10.8 7.9998 10.8Z" stroke="#333333" stroke-width="1.5" stroke-linecap="round" stroke-linejoin="round"/>
</svg>
