<svg width="25" height="25" viewBox="0 0 25 25" fill="none" xmlns="http://www.w3.org/2000/svg">
<path d="M22.8983 23.8159C23.1912 24.1088 23.6661 24.1088 23.959 23.8159C24.2519 23.523 24.2519 23.0481 23.959 22.7552L22.8983 23.8159ZM18.7114 17.5076C18.4185 17.2147 17.9436 17.2147 17.6507 17.5076C17.3578 17.8005 17.3578 18.2754 17.6507 18.5683L18.7114 17.5076ZM20.2659 11.2221C20.2659 16.1379 16.2809 20.1229 11.3651 20.1229V21.6229C17.1093 21.6229 21.7659 16.9663 21.7659 11.2221H20.2659ZM11.3651 20.1229C6.44938 20.1229 2.46436 16.1379 2.46436 11.2221H0.964355C0.964355 16.9663 5.62095 21.6229 11.3651 21.6229V20.1229ZM2.46436 11.2221C2.46436 6.30631 6.44938 2.32129 11.3651 2.32129V0.821289C5.62095 0.821289 0.964355 5.47788 0.964355 11.2221H2.46436ZM11.3651 2.32129C16.2809 2.32129 20.2659 6.30631 20.2659 11.2221H21.7659C21.7659 5.47788 17.1093 0.821289 11.3651 0.821289V2.32129ZM23.959 22.7552L18.7114 17.5076L17.6507 18.5683L22.8983 23.8159L23.959 22.7552Z" fill="#BABABA"/>
</svg>
