<svg width="78" height="25" viewBox="0 0 78 25" fill="none" xmlns="http://www.w3.org/2000/svg">
<path d="M7.05008 16.5701C6.669 16.2617 6.19264 16.0561 5.71628 15.9533C5.23993 15.7477 4.76357 15.7477 4.28721 15.7477C4.0014 15.7477 3.71559 15.7477 3.42977 15.8505C3.14396 15.9533 2.95341 16.0561 2.76287 16.1589C2.57233 16.2617 2.38179 16.4673 2.28651 16.6729C2.19124 16.8785 2.09597 17.0841 2.09597 17.2897C2.09597 17.4953 2.09597 17.7009 2.19124 17.8037C2.28651 17.9065 2.38179 18.1122 2.57233 18.215C2.76287 18.3178 2.95341 18.4206 3.23923 18.5234C3.52504 18.6262 3.81086 18.6262 4.09667 18.729L4.76357 18.8318C5.14466 18.9346 5.52574 18.9346 5.90683 19.1402C6.28791 19.243 6.57373 19.4486 6.85954 19.6542C7.14536 19.8598 7.43117 20.1682 7.52644 20.4766C7.71698 20.785 7.81226 21.1963 7.81226 21.7103C7.81226 22.2243 7.71698 22.7383 7.52644 23.1495C7.3359 23.5607 7.05008 23.8692 6.669 24.1776C6.28791 24.486 5.90683 24.6916 5.43047 24.7944C4.95411 24.8972 4.47776 25 3.90613 25C3.62031 25 3.23923 25 2.85814 24.8972C2.47706 24.7944 2.19124 24.7944 1.81016 24.5888C1.42907 24.486 1.14326 24.2804 0.857442 24.1776C0.571628 23.972 0.285814 23.7664 0 23.5608L0.857442 22.2243C1.04799 22.4299 1.23853 22.5327 1.42907 22.6355C1.61961 22.7383 1.90543 22.9439 2.19124 23.0467C2.47706 23.1495 2.76287 23.2523 3.04869 23.2523C3.3345 23.3551 3.62031 23.3551 3.90613 23.3551C4.19194 23.3551 4.47776 23.3551 4.76357 23.2523C5.04939 23.1495 5.23993 23.0467 5.43047 22.9439C5.62101 22.8411 5.81156 22.6355 5.90683 22.4299C6.0021 22.2243 6.09737 22.0187 6.09737 21.8131C6.09737 21.4019 5.90683 21.0935 5.52574 20.8879C5.14466 20.6822 4.57303 20.4766 3.90613 20.3738L3.42977 20.271C3.04869 20.1682 2.76287 20.1682 2.38179 19.9626C2.0007 19.8598 1.71489 19.6542 1.42907 19.4486C1.14326 19.243 0.952714 18.9346 0.762172 18.6262C0.571629 18.3178 0.476357 17.9065 0.476357 17.3925C0.476357 16.8785 0.571629 16.3645 0.762172 16.0561C0.952714 15.6449 1.23853 15.3364 1.61961 15.028C2.0007 14.7196 2.38179 14.514 2.85814 14.4112C3.3345 14.3084 3.81086 14.2056 4.28721 14.2056C4.95411 14.2056 5.62101 14.3084 6.19264 14.514C6.76427 14.7196 7.24063 15.028 7.81226 15.3364L7.05008 16.5701ZM12.3853 17.3925C12.8616 17.3925 13.2427 17.4953 13.6238 17.7009C14.0049 17.9065 14.2907 18.1122 14.5765 18.4206C14.8623 18.729 15.0529 19.1402 15.2434 19.5514C15.434 19.9626 15.434 20.4766 15.434 21.0935C15.434 21.1963 15.434 21.2991 15.434 21.4019C15.434 21.5047 15.434 21.6075 15.434 21.7103H10.5751C10.5751 22.0187 10.6704 22.3271 10.8609 22.5327C10.9562 22.7383 11.1468 22.9439 11.3373 23.0467C11.5278 23.1495 11.7184 23.2523 11.9089 23.3551C12.0995 23.4579 12.3853 23.4579 12.5758 23.4579C12.8616 23.4579 13.2427 23.3551 13.5285 23.2523C13.8144 23.1495 14.1954 22.9439 14.4813 22.7383L15.2434 23.8692C14.8623 24.2804 14.386 24.486 14.0049 24.6916C13.5285 24.7944 13.0522 24.8972 12.5758 24.8972C12.0995 24.8972 11.6231 24.7944 11.242 24.5888C10.8609 24.3832 10.4799 24.1776 10.194 23.8692C9.90823 23.5607 9.62241 23.1495 9.52714 22.7383C9.3366 22.3271 9.24133 21.8131 9.24133 21.1963C9.24133 20.6822 9.3366 20.1682 9.52714 19.6542C9.71768 19.243 9.90823 18.8318 10.194 18.4206C10.4799 18.1122 10.8609 17.8037 11.242 17.7009C11.4326 17.4953 11.8137 17.3925 12.3853 17.3925ZM12.29 18.8318C12.0042 18.8318 11.8137 18.8318 11.6231 18.9346C11.4326 19.0374 11.242 19.1402 11.1468 19.3458C10.9562 19.5514 10.8609 19.6542 10.7657 19.8598C10.6704 20.0654 10.5751 20.271 10.5751 20.5794H14.0049C13.9096 20.0654 13.7191 19.5514 13.4333 19.243C13.1475 18.9346 12.7664 18.8318 12.29 18.8318ZM19.9117 17.3925C20.3881 17.3925 20.8644 17.4953 21.2455 17.7009C21.6266 17.9065 22.0077 18.215 22.2935 18.5234L21.3408 19.5514C21.1503 19.3458 20.8644 19.1402 20.5786 19.0374C20.2928 18.9346 20.007 18.8318 19.7212 18.8318C19.4354 18.8318 19.1496 18.9346 18.959 19.0374C18.6732 19.1402 18.4827 19.3458 18.3874 19.5514C18.1968 19.757 18.1016 19.9626 18.0063 20.271C17.911 20.5794 17.8158 20.8879 17.8158 21.1963C17.8158 21.5047 17.911 21.8131 18.0063 22.1215C18.1016 22.4299 18.1968 22.6355 18.3874 22.8411C18.5779 23.0467 18.7685 23.1495 18.959 23.3551C19.1496 23.4579 19.4354 23.5608 19.7212 23.5608C20.007 23.5608 20.2928 23.4579 20.5786 23.3551C20.8644 23.2523 21.055 23.0467 21.3408 22.8411L22.1982 23.8692C21.9124 24.2804 21.5313 24.486 21.1503 24.6916C20.7692 24.8972 20.2928 25 19.8165 25C19.3401 25 18.8637 24.8972 18.3874 24.6916C18.0063 24.486 17.6252 24.2804 17.3394 23.8692C17.0536 23.5607 16.7678 23.1495 16.6725 22.6355C16.482 22.2243 16.3867 21.7103 16.3867 21.1963C16.3867 20.6822 16.482 20.1682 16.6725 19.757C16.863 19.3458 17.0536 18.9346 17.3394 18.5234C17.6252 18.215 18.0063 17.9065 18.3874 17.7009C18.959 17.4953 19.4354 17.3925 19.9117 17.3925ZM29.82 21.7103C29.82 22.2243 29.7247 22.7383 29.5341 23.1495C29.3436 23.5607 29.1531 23.8692 28.8672 24.1776C28.5814 24.486 28.2956 24.5888 27.9145 24.7944C27.5334 24.8972 27.1524 25 26.7713 25C26.3902 25 26.0091 24.8972 25.628 24.7944C25.2469 24.6916 24.9611 24.486 24.6753 24.1776C24.3895 23.972 24.1989 23.5607 24.0084 23.1495C23.8179 22.7383 23.7226 22.2243 23.7226 21.7103V17.5981H25.1517V21.5047C25.1517 21.8131 25.1517 22.1215 25.2469 22.3271C25.3422 22.5327 25.4375 22.7383 25.628 22.9439C25.8186 23.0467 25.9138 23.1495 26.1044 23.2523C26.2949 23.3551 26.4855 23.3551 26.7713 23.3551C26.9618 23.3551 27.2476 23.3551 27.4382 23.2523C27.6287 23.1495 27.8193 23.0467 27.9145 22.9439C28.1051 22.8411 28.2003 22.6355 28.2956 22.3271C28.3909 22.1215 28.3909 21.8131 28.3909 21.5047V17.5981H29.82V21.7103ZM35.0599 17.3925C35.2504 17.3925 35.441 17.3925 35.6315 17.3925C35.8221 17.3925 36.0126 17.4953 36.1079 17.4953L35.7268 19.0374C35.5362 18.9346 35.441 18.9346 35.1552 18.8318C34.9646 18.8318 34.7741 18.729 34.5835 18.729C34.393 18.729 34.1072 18.729 33.9166 18.8318C33.7261 18.9346 33.5355 19.0374 33.4403 19.243C33.345 19.4486 33.1545 19.6542 33.1545 19.8598C33.0592 20.0654 33.0592 20.3738 33.0592 20.6822V24.5888H31.6301V17.4953H33.0592V18.3178C33.2497 18.0093 33.5355 17.7009 33.9166 17.5981C34.2024 17.4953 34.5835 17.3925 35.0599 17.3925ZM39.8235 17.3925C40.2998 17.3925 40.6809 17.4953 41.062 17.7009C41.4431 17.9065 41.7289 18.1122 42.0147 18.4206C42.3005 18.729 42.491 19.1402 42.6816 19.5514C42.8721 19.9626 42.8721 20.4766 42.8721 21.0935C42.8721 21.1963 42.8721 21.2991 42.8721 21.4019C42.8721 21.5047 42.8721 21.6075 42.8721 21.7103H38.1086C38.1086 22.0187 38.2038 22.3271 38.3944 22.5327C38.4897 22.7383 38.6802 22.9439 38.8707 23.0467C39.0613 23.1495 39.2518 23.2523 39.4424 23.3551C39.6329 23.4579 39.9187 23.4579 40.1093 23.4579C40.3951 23.4579 40.7762 23.3551 41.062 23.2523C41.3478 23.1495 41.7289 22.9439 42.0147 22.7383L42.6816 23.8692C42.3005 24.2804 41.8242 24.486 41.4431 24.6916C40.9667 24.7944 40.4903 24.8972 40.014 24.8972C39.5376 24.8972 39.0613 24.7944 38.6802 24.5888C38.2991 24.3832 37.918 24.1776 37.6322 23.8692C37.3464 23.5607 37.0606 23.1495 36.9653 22.7383C36.7748 22.3271 36.6795 21.8131 36.6795 21.1963C36.6795 20.6822 36.7748 20.1682 36.9653 19.6542C37.1558 19.243 37.3464 18.8318 37.6322 18.4206C37.918 18.1122 38.2991 17.8037 38.6802 17.7009C38.8707 17.4953 39.3471 17.3925 39.8235 17.3925ZM39.8235 18.8318C39.5376 18.8318 39.3471 18.8318 39.1565 18.9346C38.966 19.0374 38.7755 19.1402 38.6802 19.3458C38.4897 19.5514 38.3944 19.6542 38.2991 19.8598C38.2038 20.0654 38.1086 20.271 38.1086 20.5794H41.5383C41.4431 20.0654 41.2525 19.5514 40.9667 19.243C40.6809 18.9346 40.2998 18.8318 39.8235 18.8318ZM49.16 14.1028C49.5411 14.1028 50.0175 14.1028 50.3986 14.2056C50.7797 14.3084 51.1607 14.4112 51.5418 14.6168C51.9229 14.8224 52.2087 15.028 52.4945 15.3364C52.7804 15.6449 52.9709 15.9533 53.1614 16.2617L51.8276 17.1869C51.5418 16.6729 51.1607 16.3645 50.6844 16.0561C50.208 15.7477 49.7317 15.6449 49.16 15.6449C48.6837 15.6449 48.2073 15.7477 47.8263 15.9533C47.4452 16.1589 47.0641 16.3645 46.7783 16.7757C46.4925 17.0841 46.2066 17.4953 46.1114 18.0093C45.9208 18.5234 45.8256 18.9346 45.8256 19.5514C45.8256 20.0654 45.9208 20.5794 46.1114 21.0935C46.3019 21.6075 46.4925 21.9159 46.7783 22.3271C47.0641 22.6355 47.4452 22.9439 47.8263 23.0467C48.2073 23.2523 48.6837 23.3551 49.16 23.3551C49.7317 23.3551 50.208 23.2523 50.6844 22.9439C51.1607 22.6355 51.5418 22.3271 51.8276 21.8131L53.0662 22.8411C52.8756 23.1495 52.5898 23.4579 52.304 23.7664C52.0182 24.0748 51.7324 24.2804 51.3513 24.3832C50.9702 24.5888 50.6844 24.6916 50.3033 24.7944C49.9222 24.8972 49.5411 24.8972 49.0648 24.8972C48.3026 24.8972 47.6357 24.7944 47.0641 24.486C46.4925 24.1776 45.9208 23.8692 45.4445 23.3551C44.9681 22.8411 44.6823 22.3271 44.3965 21.6075C44.1107 20.9907 44.0154 20.271 44.0154 19.4486C44.0154 18.6262 44.1107 17.9065 44.3965 17.2897C44.6823 16.6729 44.9681 16.0561 45.4445 15.5421C45.9208 15.028 46.3972 14.7196 47.0641 14.4112C47.731 14.3084 48.3979 14.1028 49.16 14.1028ZM57.6392 17.3925C58.1156 17.3925 58.5919 17.4953 59.0683 17.7009C59.5446 17.9065 59.8304 18.1121 60.2115 18.5234C60.4973 18.8318 60.7832 19.243 60.9737 19.757C61.1642 20.1682 61.2595 20.6822 61.2595 21.1963C61.2595 21.7103 61.1642 22.2243 60.9737 22.6355C60.7832 23.0467 60.5926 23.4579 60.2115 23.8692C59.9257 24.1776 59.5446 24.486 59.0683 24.6916C58.5919 24.8972 58.2108 25 57.6392 25C57.1628 25 56.6865 24.8972 56.2101 24.6916C55.7338 24.486 55.448 24.2804 55.0669 23.8692C54.7811 23.5607 54.4952 23.1495 54.3047 22.6355C54.1142 22.2243 54.0189 21.7103 54.0189 21.1963C54.0189 20.6822 54.1142 20.1682 54.3047 19.757C54.4952 19.3458 54.6858 18.9346 55.0669 18.5234C55.3527 18.215 55.7338 17.9065 56.2101 17.7009C56.6865 17.4953 57.1628 17.3925 57.6392 17.3925ZM57.6392 18.8318C57.3534 18.8318 57.0676 18.9346 56.7818 19.0374C56.4959 19.1402 56.3054 19.3458 56.1149 19.5514C55.9243 19.757 55.829 19.9626 55.6385 20.271C55.5432 20.5794 55.448 20.8879 55.448 21.1963C55.448 21.5047 55.5432 21.8131 55.6385 22.1215C55.7338 22.4299 55.9243 22.6355 56.1149 22.8411C56.3054 23.0467 56.4959 23.1495 56.7818 23.3551C57.0676 23.4579 57.3534 23.5608 57.6392 23.5608C57.925 23.5608 58.2108 23.4579 58.4967 23.3551C58.7825 23.2523 58.973 23.0467 59.1635 22.8411C59.3541 22.6355 59.4494 22.4299 59.6399 22.1215C59.7352 21.8131 59.8304 21.5047 59.8304 21.1963C59.8304 20.8879 59.7352 20.5794 59.6399 20.271C59.5446 19.9626 59.3541 19.757 59.1635 19.5514C58.973 19.3458 58.7825 19.243 58.4967 19.0374C58.2108 18.9346 57.925 18.8318 57.6392 18.8318ZM65.5467 17.3925C66.0231 17.3925 66.4042 17.4953 66.7853 17.7009C67.1663 17.9065 67.4522 18.1122 67.6427 18.4206V14H69.0718V24.6916H67.6427V23.8692C67.4522 24.1776 67.1663 24.486 66.7853 24.5888C66.4042 24.7944 66.0231 24.8972 65.5467 24.8972C65.0704 24.8972 64.6893 24.7944 64.2129 24.5888C63.8319 24.3832 63.4508 24.1776 63.1649 23.7664C62.8791 23.4579 62.5933 23.0467 62.498 22.5327C62.3075 22.1215 62.2122 21.6075 62.2122 20.9907C62.2122 20.4766 62.3075 19.9626 62.498 19.4486C62.6886 19.0374 62.8791 18.6262 63.1649 18.215C63.4508 17.9065 63.8319 17.5981 64.2129 17.3925C64.594 17.4953 65.0704 17.3925 65.5467 17.3925ZM65.642 18.8318C65.3562 18.8318 65.0704 18.9346 64.7846 19.0374C64.4987 19.1402 64.3082 19.3458 64.1177 19.5514C63.9271 19.757 63.8319 19.9626 63.7366 20.271C63.6413 20.5794 63.6413 20.8879 63.6413 21.1963C63.6413 21.5047 63.6413 21.8131 63.7366 22.1215C63.8319 22.4299 63.9271 22.6355 64.1177 22.8411C64.3082 23.0467 64.4987 23.2523 64.7846 23.3551C65.0704 23.4579 65.2609 23.5608 65.642 23.5608C65.9278 23.5608 66.2136 23.4579 66.4995 23.3551C66.7853 23.2523 66.9758 23.0467 67.1663 22.8411C67.3569 22.6355 67.4522 22.4299 67.5474 22.1215C67.6427 21.8131 67.738 21.5047 67.738 21.1963C67.738 20.8879 67.6427 20.5794 67.5474 20.271C67.4522 19.9626 67.3569 19.757 67.1663 19.5514C66.9758 19.3458 66.7853 19.1402 66.4995 19.0374C66.2136 18.9346 66.0231 18.8318 65.642 18.8318ZM73.8353 17.3925C74.3117 17.3925 74.6928 17.4953 75.0739 17.7009C75.455 17.9065 75.7408 18.1122 76.0266 18.4206C76.3124 18.729 76.5029 19.1402 76.6935 19.5514C76.884 19.9626 76.884 20.4766 76.884 21.0935C76.884 21.1963 76.884 21.2991 76.884 21.4019C76.884 21.5047 76.884 21.6075 76.884 21.7103H72.0252C72.0252 22.0187 72.1205 22.3271 72.311 22.5327C72.4063 22.7383 72.5968 22.9439 72.7874 23.0467C72.9779 23.1495 73.1684 23.2523 73.359 23.3551C73.5495 23.4579 73.8353 23.4579 74.0259 23.4579C74.3117 23.4579 74.6928 23.3551 74.9786 23.2523C75.2644 23.1495 75.6455 22.9439 75.9313 22.7383L76.5982 23.8692C76.2171 24.2804 75.7408 24.486 75.3597 24.6916C74.8833 24.7944 74.407 24.8972 73.9306 24.8972C73.4543 24.8972 72.9779 24.7944 72.5968 24.5888C72.2157 24.3832 71.8346 24.1776 71.5488 23.8692C71.263 23.5607 70.9772 23.1495 70.8819 22.7383C70.6914 22.3271 70.5961 21.8131 70.5961 21.1963C70.5961 20.6822 70.6914 20.1682 70.8819 19.6542C71.0725 19.243 71.263 18.8318 71.5488 18.4206C71.8346 18.1122 72.2157 17.8037 72.5968 17.7009C72.8826 17.4953 73.359 17.3925 73.8353 17.3925ZM73.7401 18.8318C73.4543 18.8318 73.2637 18.8318 73.0732 18.9346C72.8826 19.0374 72.6921 19.1402 72.5968 19.3458C72.4063 19.5514 72.311 19.6542 72.2157 19.8598C72.1205 20.0654 72.0252 20.271 72.0252 20.5794H75.455C75.3597 20.0654 75.1691 19.5514 74.8833 19.243C74.5975 18.9346 74.2164 18.8318 73.7401 18.8318Z" fill="#F59E1F"/>
<path d="M12.017 10.7027H10.377V2.18018L7.48302 9.61261H5.74662L2.75615 2.18018V10.6036H1.11621V0.297298H3.62435L6.51835 7.72973L9.41235 0.297298H11.9205V10.7027H12.017ZM20.6025 10.7027H19.059V9.81081C18.8661 10.1081 18.4802 10.4054 18.1908 10.6036C17.805 10.8018 17.4191 10.9009 16.9368 10.9009C16.4544 10.9009 15.9721 10.8018 15.5862 10.6036C15.2004 10.4054 14.8145 10.2072 14.5251 9.81081C14.2357 9.51351 13.9463 9.11712 13.7534 8.62162C13.5604 8.12613 13.464 7.63063 13.464 7.13514C13.464 6.63964 13.5604 6.04504 13.7534 5.64865C13.9463 5.15315 14.1392 4.75676 14.5251 4.45946C14.8145 4.16216 15.2004 3.86486 15.5862 3.66667C15.9721 3.46847 16.4544 3.36937 16.9368 3.36937C17.4191 3.36937 17.9014 3.46847 18.1908 3.66667C18.5767 3.86486 18.8661 4.06306 19.059 4.45946V3.56757H20.6025V10.7027ZM17.1297 4.85586C16.8403 4.85586 16.5509 4.95495 16.2615 5.05405C15.9721 5.15315 15.7792 5.35135 15.5862 5.54955C15.3933 5.74775 15.2968 5.94595 15.2004 6.24324C15.1039 6.54054 15.1039 6.83784 15.1039 7.13514C15.1039 7.43243 15.1039 7.72973 15.2004 8.02703C15.2968 8.32432 15.3933 8.52252 15.5862 8.72072C15.7792 8.91892 15.9721 9.11712 16.2615 9.21622C16.5509 9.31532 16.8403 9.41441 17.1297 9.41441C17.4191 9.41441 17.7085 9.31532 17.9979 9.21622C18.2873 9.11712 18.4802 8.91892 18.6732 8.72072C18.8661 8.52252 18.9626 8.32432 19.059 8.02703C19.1555 7.72973 19.252 7.43243 19.252 7.13514C19.252 6.83784 19.1555 6.54054 19.059 6.24324C18.9626 5.94595 18.7696 5.74775 18.6732 5.54955C18.4802 5.35135 18.2873 5.15315 17.9979 5.05405C17.7085 4.85586 17.4191 4.85586 17.1297 4.85586ZM27.5481 5.35135C27.4516 5.25225 27.3552 5.25225 27.1622 5.15315C26.9693 5.05405 26.8728 5.05405 26.6799 4.95495C26.487 4.85585 26.294 4.85586 26.1011 4.85586C25.9082 4.85586 25.7152 4.75676 25.4258 4.75676C25.04 4.75676 24.6541 4.85585 24.4612 4.95495C24.2682 5.15315 24.0753 5.35135 24.0753 5.54955C24.0753 5.64865 24.0753 5.74775 24.1718 5.84685C24.2682 5.94595 24.2682 6.04504 24.4612 6.04504C24.5576 6.14414 24.6541 6.14414 24.847 6.14414C24.9435 6.14414 25.1364 6.24324 25.3294 6.24324L26.0046 6.34234C26.7764 6.44144 27.3552 6.63964 27.741 7.03604C28.1269 7.33333 28.4163 7.82883 28.4163 8.42342C28.4163 8.72072 28.3198 9.11712 28.2234 9.31532C28.1269 9.61261 27.8375 9.81081 27.6446 10.009C27.3552 10.2072 27.0658 10.4054 26.6799 10.5045C26.294 10.6036 25.8117 10.7027 25.3294 10.7027C25.1364 10.7027 24.9435 10.7027 24.7506 10.7027C24.5576 10.7027 24.2682 10.6036 23.9788 10.6036C23.6894 10.5045 23.4 10.4054 23.2071 10.3063C22.9177 10.2072 22.6283 10.009 22.4354 9.81081L23.1106 8.62162C23.2071 8.72072 23.4 8.81982 23.4965 8.91892C23.6894 9.01802 23.7859 9.11712 23.9788 9.11712C24.1718 9.21622 24.3647 9.21622 24.5576 9.31532C24.7506 9.31532 25.04 9.41441 25.3294 9.41441C25.8117 9.41441 26.1976 9.31532 26.487 9.21622C26.7764 9.01802 26.8728 8.81982 26.8728 8.62162C26.8728 8.42342 26.7764 8.22523 26.5834 8.12613C26.3905 8.02703 26.1011 7.92793 25.7152 7.82883L25.04 7.72973C24.2682 7.63063 23.6894 7.43243 23.3036 7.03604C22.9177 6.63964 22.7248 6.24324 22.7248 5.64865C22.7248 5.25225 22.8212 4.95496 22.9177 4.65766C23.0142 4.36036 23.2071 4.16216 23.4965 3.96396C23.7859 3.76577 24.0753 3.66667 24.3647 3.46847C24.7506 3.36937 25.1364 3.27027 25.5223 3.27027C26.1011 3.27027 26.5834 3.36937 27.0658 3.46847C27.5481 3.56757 27.934 3.76577 28.3198 4.06306L27.5481 5.35135ZM34.6866 4.95495H32.082V8.02703C32.082 8.22522 32.082 8.42342 32.1785 8.62162C32.275 8.81982 32.275 8.91892 32.3714 9.01802C32.4679 9.11712 32.5644 9.21622 32.7573 9.21622C32.8538 9.21622 33.0467 9.31532 33.1432 9.31532C33.3361 9.31532 33.6255 9.31532 33.8185 9.21622C34.1078 9.11712 34.3008 9.01802 34.4937 8.91892L35.0725 10.1081C34.7831 10.3063 34.4937 10.5045 34.1078 10.6036C33.722 10.7027 33.3361 10.8018 32.9502 10.8018C32.1785 10.8018 31.5997 10.6036 31.1174 10.1081C30.635 9.61261 30.4421 8.91892 30.4421 8.02703V4.85586H29.0916V3.46847H30.4421V1.28829H31.9856V3.46847H34.5902V4.95495H34.6866ZM39.3171 3.36937C39.7994 3.36937 40.2817 3.46847 40.6676 3.66667C41.0535 3.86486 41.4393 4.06306 41.7287 4.45946C42.0181 4.75676 42.2111 5.15315 42.404 5.64865C42.5969 6.14414 42.6934 6.63964 42.6934 7.13514C42.6934 7.23423 42.6934 7.33333 42.6934 7.43243C42.6934 7.53153 42.6934 7.63063 42.6934 7.72973H37.5807C37.5807 8.02703 37.6771 8.32432 37.8701 8.52252C37.9665 8.72072 38.1595 8.91892 38.3524 9.11712C38.5453 9.21622 38.7383 9.41441 38.9312 9.41441C39.1241 9.51351 39.4135 9.51351 39.6065 9.51351C39.9923 9.51351 40.2817 9.41442 40.6676 9.31532C41.0535 9.21622 41.3429 9.01802 41.6323 8.72072L42.404 9.81081C42.0181 10.2072 41.5358 10.4054 41.0535 10.6036C40.5711 10.7027 40.0888 10.8018 39.51 10.8018C39.0277 10.8018 38.5453 10.7027 38.063 10.5045C37.6771 10.3063 37.2912 10.1081 36.9054 9.71171C36.616 9.41442 36.3266 9.01802 36.1337 8.52252C35.9407 8.02703 35.8442 7.53153 35.8442 7.03604C35.8442 6.44144 35.9407 5.94595 36.1337 5.54955C36.3266 5.05405 36.5195 4.65766 36.8089 4.36036C37.0983 4.06306 37.4842 3.76577 37.8701 3.56757C38.3524 3.46847 38.8347 3.36937 39.3171 3.36937ZM39.3171 4.75676C39.0277 4.75676 38.8347 4.75676 38.6418 4.85586C38.4489 4.95496 38.2559 5.05405 38.063 5.25225C37.8701 5.45045 37.7736 5.54955 37.6771 5.84685C37.5807 6.04505 37.4842 6.34234 37.4842 6.54054H41.0535C40.957 5.94595 40.7641 5.54955 40.4747 5.25225C40.1853 4.85586 39.7994 4.75676 39.3171 4.75676ZM47.8061 3.36937C47.9991 3.36937 48.2885 3.36937 48.3849 3.36937C48.5779 3.36937 48.7708 3.46847 48.9637 3.56757L48.5779 5.05405C48.3849 4.95495 48.192 4.95496 47.9991 4.85586C47.8061 4.85586 47.6132 4.75676 47.4203 4.75676C47.2273 4.75676 46.9379 4.75676 46.745 4.85586C46.5521 4.95496 46.3591 5.05405 46.2627 5.25225C46.1662 5.45045 45.9733 5.64865 45.8768 5.84685C45.7803 6.04505 45.7803 6.34234 45.7803 6.63964V10.5045H44.2369V3.36937H45.6839V4.16216C45.8768 3.86486 46.1662 3.56757 46.5521 3.36937C47.0344 3.46847 47.4203 3.36937 47.8061 3.36937ZM53.0153 3.36937C53.4977 3.36937 53.98 3.46847 54.4623 3.66667C54.9447 3.86486 55.3305 4.16216 55.6199 4.55856L54.6553 5.64865C54.3659 5.45045 54.1729 5.25225 53.8835 5.05405C53.5941 4.95495 53.3047 4.85586 53.0153 4.85586C52.7259 4.85586 52.4365 4.95495 52.2436 5.05405C51.9542 5.15315 51.7613 5.35135 51.5683 5.54955C51.3754 5.74775 51.2789 5.94595 51.1825 6.24324C51.086 6.54054 50.9895 6.83784 50.9895 7.13514C50.9895 7.43243 51.086 7.72973 51.1825 8.02703C51.2789 8.32432 51.4719 8.52252 51.5683 8.72072C51.7613 8.91892 51.9542 9.11712 52.2436 9.21622C52.533 9.31532 52.7259 9.41441 53.0153 9.41441C53.3047 9.41441 53.6906 9.31532 53.98 9.21622C54.2694 9.11712 54.5588 8.91892 54.7517 8.72072L55.7164 9.81081C55.427 10.2072 55.0411 10.5045 54.5588 10.7027C54.0765 10.9009 53.5941 11 53.1118 11C52.533 11 52.0507 10.9009 51.6648 10.7027C51.1825 10.5045 50.7966 10.2072 50.5072 9.90991C50.2178 9.61261 49.9284 9.21622 49.7355 8.72072C49.5425 8.22523 49.4461 7.72973 49.4461 7.23423C49.4461 6.73874 49.5425 6.24324 49.7355 5.74775C49.9284 5.25225 50.1213 4.85586 50.5072 4.55856C50.7966 4.26126 51.1825 3.96396 51.6648 3.76577C51.9542 3.46847 52.4365 3.36937 53.0153 3.36937ZM63.6267 10.7027H62.0832V9.81081C61.8903 10.1081 61.5044 10.4054 61.215 10.6036C60.8291 10.8018 60.4433 10.9009 59.9609 10.9009C59.4786 10.9009 58.9963 10.8018 58.6104 10.6036C58.2245 10.4054 57.8387 10.2072 57.5493 9.81081C57.2599 9.51351 56.9705 9.11712 56.7775 8.62162C56.5846 8.12613 56.4881 7.63063 56.4881 7.13514C56.4881 6.63964 56.5846 6.04504 56.7775 5.64865C56.9705 5.15315 57.1634 4.75676 57.5493 4.45946C57.8387 4.16216 58.2245 3.86486 58.6104 3.66667C58.9963 3.46847 59.4786 3.36937 59.9609 3.36937C60.4433 3.36937 60.9256 3.46847 61.215 3.66667C61.6009 3.86486 61.8903 4.06306 62.0832 4.45946V3.56757H63.6267V10.7027ZM60.1539 4.85586C59.8645 4.85586 59.5751 4.95495 59.2857 5.05405C58.9963 5.15315 58.8033 5.35135 58.6104 5.54955C58.4175 5.74775 58.321 5.94595 58.2245 6.24324C58.1281 6.54054 58.1281 6.83784 58.1281 7.13514C58.1281 7.43243 58.2245 7.72973 58.2245 8.02703C58.321 8.32432 58.4175 8.52252 58.6104 8.72072C58.8033 8.91892 58.9963 9.11712 59.2857 9.21622C59.5751 9.31532 59.8645 9.41441 60.1539 9.41441C60.4433 9.41441 60.7327 9.31532 61.0221 9.21622C61.3115 9.11712 61.5044 8.91892 61.6973 8.72072C61.8903 8.52252 61.9868 8.32432 62.0832 8.02703C62.1797 7.72973 62.2761 7.43243 62.2761 7.13514C62.2761 6.83784 62.1797 6.54054 62.0832 6.24324C61.9868 5.94595 61.7938 5.74775 61.6973 5.54955C61.5044 5.35135 61.3115 5.15315 61.0221 5.05405C60.7327 4.85586 60.4433 4.85586 60.1539 4.85586ZM69.3182 3.36937C69.5112 3.36937 69.8006 3.36937 69.897 3.36937C70.09 3.36937 70.2829 3.46847 70.4758 3.56757L70.09 5.05405C69.897 4.95495 69.7041 4.95496 69.5112 4.85586C69.3182 4.85586 69.1253 4.75676 68.9324 4.75676C68.7394 4.75676 68.45 4.75676 68.2571 4.85586C68.0641 4.95496 67.8712 5.05405 67.7747 5.25225C67.6783 5.45045 67.4854 5.64865 67.3889 5.84685C67.2924 6.04505 67.2924 6.34234 67.2924 6.63964V10.5045H65.7489V3.36937H67.196V4.16216C67.3889 3.86486 67.6783 3.56757 68.0642 3.36937C68.5465 3.46847 68.9324 3.36937 69.3182 3.36937ZM74.3345 3.36937C74.8168 3.36937 75.2992 3.46847 75.5886 3.66667C75.9744 3.86486 76.2638 4.06306 76.4568 4.45946V0H78.0002V10.7027H76.4568V9.81081C76.2638 10.1081 75.878 10.4054 75.5886 10.6036C75.2027 10.8018 74.8168 10.9009 74.3345 10.9009C73.8522 10.9009 73.3698 10.8018 72.984 10.6036C72.5981 10.4054 72.2122 10.2072 71.9228 9.81081C71.6334 9.51351 71.344 9.11712 71.1511 8.62162C70.9582 8.12613 70.8617 7.63063 70.8617 7.13514C70.8617 6.63964 70.9582 6.04504 71.1511 5.64865C71.344 5.15315 71.537 4.75676 71.9228 4.45946C72.2122 4.16216 72.5981 3.86486 72.984 3.66667C73.3698 3.46847 73.8522 3.36937 74.3345 3.36937ZM74.5274 4.85586C74.238 4.85586 73.9486 4.95495 73.6592 5.05405C73.3698 5.15315 73.1769 5.35135 72.984 5.54955C72.791 5.74775 72.6946 5.94595 72.5981 6.24324C72.4052 6.54054 72.4052 6.83784 72.4052 7.13514C72.4052 7.43243 72.5016 7.72973 72.5016 8.02703C72.5981 8.32432 72.6946 8.52252 72.8875 8.72072C73.0804 8.91892 73.2734 9.11712 73.5628 9.21622C73.8522 9.31532 74.1416 9.41441 74.431 9.41441C74.7204 9.41441 75.0098 9.31532 75.2992 9.21622C75.5886 9.11712 75.7815 8.91892 75.9744 8.72072C76.1674 8.52252 76.2638 8.32432 76.3603 8.02703C76.4568 7.72973 76.5532 7.43243 76.5532 7.13514C76.5532 6.83784 76.4568 6.54054 76.3603 6.24324C76.2638 5.94595 76.0709 5.74775 75.9744 5.54955C75.7815 5.35135 75.5886 5.15315 75.2992 5.05405C75.1062 4.85586 74.8168 4.85586 74.5274 4.85586Z" fill="#E41522"/>
</svg>
