<svg width="49" height="29" viewBox="0 0 49 29" fill="none" xmlns="http://www.w3.org/2000/svg">
<path d="M48.9997 14.5C48.9997 22.4564 42.4412 29 34.2997 29C26.2335 29 19.5996 22.4564 19.5996 14.5C19.5996 6.54359 26.1581 0 34.2243 0C42.4412 0 48.9997 6.54359 48.9997 14.5Z" fill="#F9B50B"/>
<path d="M29.3247 14.5744C29.3247 13.5333 29.174 12.4923 29.0232 11.5256H19.977C20.0524 11.0051 20.2032 10.559 20.3539 9.9641H28.4201C28.2693 9.44359 28.0432 8.92308 27.817 8.40256H20.957C21.1832 7.88205 21.4847 7.4359 21.7862 6.84103H26.9878C26.6863 6.32051 26.3093 5.8 25.857 5.27949H22.9924C23.4447 4.75897 23.897 4.31282 24.5001 3.79231C21.937 1.41282 18.4693 0 14.6247 0C6.63387 0.223077 0 6.54359 0 14.5C0 22.4564 6.55849 29 14.7001 29C18.5447 29 21.937 27.5128 24.5755 25.2077C25.1032 24.7615 25.5555 24.241 26.0832 23.6462H23.0678C22.6909 23.2 22.3139 22.6795 22.0124 22.159H27.1386C27.4401 21.7128 27.7416 21.1923 27.9678 20.5974H21.1078C20.8816 20.1513 20.6555 19.6308 20.5047 19.0359H28.5709C29.0232 17.6974 29.3247 16.2103 29.3247 14.5744Z" fill="#C8191C"/>
<path d="M19.9012 18.2178L20.1274 16.8794C20.052 16.8794 19.9012 16.9537 19.7504 16.9537C19.2227 16.9537 19.1473 16.6563 19.2227 16.5076L19.675 13.8307H20.5043L20.7304 12.3435H19.9766L20.1274 11.4512H18.5443C18.5443 11.4512 17.6396 16.5076 17.6396 17.1025C17.6396 17.9948 18.1673 18.4409 18.9212 18.4409C19.3735 18.4409 19.7504 18.2922 19.9012 18.2178Z" fill="white"/>
<path d="M20.4297 15.763C20.4297 17.9194 21.9374 18.4399 23.1435 18.4399C24.2743 18.4399 24.802 18.2168 24.802 18.2168L25.1036 16.7296C25.1036 16.7296 24.2743 17.1014 23.4451 17.1014C21.7112 17.1014 22.0128 15.8373 22.0128 15.8373H25.1789C25.1789 15.8373 25.4051 14.8707 25.4051 14.4245C25.4051 13.4578 24.8774 12.1937 23.1435 12.1937C21.6358 12.1194 20.4297 13.8296 20.4297 15.763ZM23.1435 13.5322C23.9728 13.5322 23.822 14.4989 23.822 14.5732H22.0882C22.1635 14.4989 22.3143 13.5322 23.1435 13.5322Z" fill="white"/>
<path d="M33.0186 18.2183L33.3202 16.508C33.3202 16.508 32.5663 16.8798 31.9632 16.8798C30.9078 16.8798 30.3801 16.0619 30.3801 15.0952C30.3801 13.2362 31.2848 12.2695 32.4155 12.2695C33.1694 12.2695 33.8479 12.7157 33.8479 12.7157L34.074 11.0798C34.074 11.0798 33.1694 10.708 32.2648 10.708C30.4555 10.708 28.7217 12.2695 28.7217 15.1695C28.7217 17.1029 29.6263 18.367 31.5109 18.367C32.1894 18.4413 33.0186 18.2183 33.0186 18.2183Z" fill="white"/>
<path d="M11.3834 12.1211C10.328 12.1211 9.49875 12.4185 9.49875 12.4185L9.27259 13.757C9.27259 13.757 9.95106 13.4596 11.0064 13.4596C11.5341 13.4596 11.9864 13.5339 11.9864 13.9801C11.9864 14.2775 11.9111 14.3519 11.9111 14.3519H11.2326C9.87567 14.3519 8.44336 14.8724 8.44336 16.657C8.44336 18.0698 9.34798 18.3672 9.95106 18.3672C11.0064 18.3672 11.5341 17.698 11.6095 17.698L11.5341 18.2929H12.8157L13.4188 14.0544C13.4188 12.1955 11.9111 12.1211 11.3834 12.1211ZM11.6849 15.5416C11.6849 15.7647 11.5341 17.0288 10.6295 17.0288C10.1772 17.0288 10.0264 16.657 10.0264 16.4339C10.0264 16.0621 10.2526 15.5416 11.4588 15.5416C11.6095 15.5416 11.6849 15.5416 11.6849 15.5416Z" fill="white"/>
<path d="M14.9256 18.3664C15.3026 18.3664 17.2626 18.4408 17.2626 16.3587C17.2626 14.4254 15.3779 14.7972 15.3779 14.0536C15.3779 13.6818 15.6795 13.5331 16.2072 13.5331C16.4333 13.5331 17.2626 13.6074 17.2626 13.6074L17.4887 12.1946C17.4887 12.1946 16.961 12.0459 15.981 12.0459C14.8503 12.0459 13.6441 12.4921 13.6441 14.0536C13.6441 15.8382 15.6041 15.6895 15.6041 16.3587C15.6041 16.8049 15.0764 16.8792 14.6995 16.8792C14.021 16.8792 13.2672 16.6562 13.2672 16.6562L13.041 18.069C13.1918 18.2177 13.6441 18.3664 14.9256 18.3664Z" fill="white"/>
<path d="M45.9843 10.9316L45.6828 13.0137C45.6828 13.0137 45.0797 12.2701 44.1751 12.2701C42.7428 12.2701 41.5366 13.9804 41.5366 15.9881C41.5366 17.2522 42.1397 18.5163 43.4966 18.5163C44.4012 18.5163 45.0043 17.9214 45.0043 17.9214L44.9289 18.4419H46.512L47.6428 11.0804L45.9843 10.9316ZM45.2305 14.947C45.2305 15.765 44.8536 16.8804 43.9489 16.8804C43.4212 16.8804 43.1197 16.4342 43.1197 15.6163C43.1197 14.3522 43.6474 13.6086 44.4012 13.6086C44.9289 13.6829 45.2305 14.0547 45.2305 14.947Z" fill="white"/>
<path d="M2.86512 18.2932L3.76974 12.7906L3.92051 18.2932H4.9759L7.01129 12.7906L6.18205 18.2932H7.84052L9.12207 10.9316H6.55898L4.9759 15.4675L4.90051 10.9316H2.63897L1.35742 18.2932H2.86512Z" fill="white"/>
<path d="M26.9882 18.2936C27.4406 15.7654 27.5159 13.6833 28.6467 14.0551C28.7975 13.0885 29.0236 12.6423 29.1744 12.2705H28.8729C28.1944 12.2705 27.5913 13.1628 27.5913 13.1628L27.7421 12.3449H26.2344L25.2544 18.2936H26.9882Z" fill="white"/>
<path d="M36.6368 12.1211C35.5814 12.1211 34.7522 12.4185 34.7522 12.4185L34.526 13.757C34.526 13.757 35.2045 13.4596 36.2599 13.4596C36.7876 13.4596 37.2399 13.5339 37.2399 13.9801C37.2399 14.2775 37.1645 14.3519 37.1645 14.3519H36.486C35.1291 14.3519 33.6968 14.8724 33.6968 16.657C33.6968 18.0698 34.6014 18.3672 35.2045 18.3672C36.2599 18.3672 36.7876 17.698 36.8629 17.698L36.7876 18.2929H38.2199L38.823 14.0544C38.823 12.1955 37.1645 12.1211 36.6368 12.1211ZM37.0137 15.5416C37.0137 15.7647 36.8629 17.0288 35.9583 17.0288C35.506 17.0288 35.3552 16.657 35.3552 16.4339C35.3552 16.0621 35.5814 15.5416 36.7876 15.5416C36.9383 15.5416 36.9383 15.5416 37.0137 15.5416Z" fill="white"/>
<path d="M40.0298 18.2936C40.4821 15.7654 40.5574 13.6833 41.6882 14.0551C41.839 13.0885 42.0651 12.6423 42.2159 12.2705H41.9144C41.2359 12.2705 40.6328 13.1628 40.6328 13.1628L40.7836 12.3449H39.2759L38.2959 18.2936H40.0298Z" fill="white"/>
</svg>
