<svg width="50" height="29" viewBox="0 0 50 29" fill="none" xmlns="http://www.w3.org/2000/svg">
<path d="M22.3262 17.1272L23.6562 8.56348H25.7464L24.4163 17.1272H22.3262Z" fill="#074784"/>
<path d="M16.1507 8.56348H19.4759C21.566 8.56348 22.136 9.82857 21.851 11.2883C21.661 12.5534 20.8059 13.3319 19.6659 13.6238L21.756 17.1272H19.0008L17.3857 13.7211L16.9107 17.1272H14.7256L16.1507 8.56348ZM18.0508 10.2178L17.6707 12.3587H18.3358C18.9058 12.3587 19.4759 11.8722 19.5709 11.2883C19.6659 10.7044 19.2858 10.2178 18.6208 10.2178H18.0508Z" fill="#074784"/>
<path d="M32.1113 17.1272L33.4414 8.56348H35.6265L34.2964 17.1272H32.1113Z" fill="#074784"/>
<path d="M39.1423 10.4125L38.8573 11.8722H41.3274L41.0424 13.7211H38.5723L38.3822 15.2782H40.9474L40.6624 17.1272H35.9121L37.2422 8.56348H41.9924L41.7074 10.4125H39.1423Z" fill="#074784"/>
<path d="M11.9714 10.4125L11.7814 11.8722H14.2515L13.9665 13.7211H11.4964L11.2113 15.2782H13.7765L13.4915 17.1272H8.74121L10.0713 8.56348H14.8215L14.5365 10.4125H11.9714Z" fill="#074784"/>
<path d="M29.2614 10.4125L29.0714 11.8722H31.4466L31.1615 13.7211H28.7864L28.2164 17.1272H26.0312L27.3613 8.56348H32.2066L31.9216 10.4125H29.2614Z" fill="#074784"/>
<path d="M46.0777 8.56348H43.2275L41.8975 17.1272H44.7476C47.4078 17.1272 49.5929 15.2782 49.9729 12.8453C50.1629 11.191 49.4029 8.56348 46.0777 8.56348ZM47.6928 12.748C47.4078 14.305 46.3627 15.2782 44.9376 15.2782C44.7476 15.2782 44.5576 15.2782 44.3676 15.2782L45.1276 10.4125C45.3177 10.4125 45.4127 10.4125 45.6027 10.4125C47.2178 10.4125 47.8828 11.5802 47.6928 12.748Z" fill="#074784"/>
<path d="M0 7.39591H3.99022L4.46525 13.624C7.12539 8.95294 9.78554 4.47647 12.5407 0H13.8708C11.0206 5.64424 8.17045 11.3858 5.4153 17.1274H2.47014L1.71009 10.218C1.52008 8.56368 1.23507 7.78516 0 7.68785V7.39591Z" fill="#074784"/>
<path d="M5.41475 9.24483L8.54992 3.79522V3.60059H1.51953V3.79522L4.93972 5.35225L5.22474 9.24483H5.41475Z" fill="#F09C11"/>
<path d="M17.8611 21.8957C17.2911 21.8957 16.816 22.1877 16.436 22.5769L16.9111 19.1709H15.486L14.4409 26.6641H15.866L15.961 26.0802C16.246 26.4695 16.626 26.7614 17.1961 26.7614C18.3361 26.7614 19.3812 25.691 19.5712 24.3286C19.7612 22.9662 19.0012 21.8957 17.8611 21.8957ZM18.0511 24.3286C17.9561 24.9125 17.4811 25.399 17.0061 25.399C16.531 25.399 16.151 24.9125 16.246 24.3286C16.341 23.7447 16.816 23.2581 17.2911 23.2581C17.7661 23.2581 18.1461 23.7447 18.0511 24.3286Z" fill="#074784"/>
<path d="M23.5614 21.9941H25.1765L20.9012 29.0008H19.2861L21.0912 26.0814L19.6662 21.9941H21.2812L22.0413 24.427L23.5614 21.9941Z" fill="#074784"/>
<path d="M34.7715 26.6641H32.7764L35.0565 19.1709H37.0516L34.7715 26.6641Z" fill="#074784"/>
<path d="M31.9217 19.1709L29.2616 24.0366L29.0716 19.1709H25.6514V19.4628C26.7914 19.4628 26.9814 19.6575 27.1715 20.5333L27.8365 26.6641H29.9266L34.1068 19.1709H31.9217Z" fill="#074784"/>
<path d="M44.9375 25.5937L44.4625 26.6641H42.2773L46.2676 19.1709H48.9277L49.5927 26.6641H48.0727H47.4076L47.3126 25.5937H44.9375ZM45.6025 24.1339H47.3126L47.1226 20.6306L45.6025 24.1339Z" fill="#074784"/>
<path d="M39.1422 26.859C37.7171 26.859 36.7671 26.3725 36.1021 25.9832L37.0521 24.5235C37.6221 24.9128 38.0972 25.302 39.2372 25.302C39.6172 25.302 39.9023 25.2047 40.0923 24.9128C40.3773 24.4262 39.9973 24.1342 39.2372 23.745L38.8572 23.3557C37.7171 22.5772 37.1471 21.7987 37.7171 20.4363C38.0972 19.5604 38.9522 18.9766 40.4723 18.9766C41.5173 18.9766 42.4674 19.4631 43.0374 19.8524L41.8974 21.1175C41.3273 20.6309 40.8523 20.4363 40.3773 20.4363C39.9973 20.4363 39.6172 20.6309 39.5222 20.8255C39.3322 21.2148 39.6172 21.5067 40.1873 21.896L40.6623 22.1879C42.0874 23.0638 42.3724 24.0369 42.0874 24.9128C41.6124 26.5671 40.3773 26.859 39.1422 26.859Z" fill="#074784"/>
</svg>
