<svg width="68" height="21" viewBox="0 0 68 21" fill="none" xmlns="http://www.w3.org/2000/svg">
<path d="M63.4266 0.299805H59.1518C57.8594 0.299805 56.8652 0.699805 56.2687 1.9998L48.1167 20.6998H53.8828C53.8828 20.6998 54.8769 18.1998 55.0758 17.5998C55.6723 17.5998 61.3389 17.5998 62.1342 17.5998C62.3331 18.2998 62.8301 20.5998 62.8301 20.5998H67.9997L63.4266 0.299805ZM56.6664 13.3998C57.1635 12.1998 58.8535 7.6998 58.8535 7.6998C58.8535 7.7998 59.3506 6.4998 59.5494 5.7998L59.9471 7.5998C59.9471 7.5998 61.0407 12.4998 61.2395 13.4998H56.6664V13.3998Z" fill="#3362AB"/>
<path d="M48.5145 14C48.5145 18.2 44.7368 21 38.8713 21C36.3859 21 33.9999 20.5 32.7075 19.9L33.5028 15.3L34.1987 15.6C35.9882 16.4 37.1812 16.7 39.3683 16.7C40.959 16.7 42.649 16.1 42.649 14.7C42.649 13.8 41.9531 13.2 39.766 12.2C37.6783 11.2 34.8947 9.6 34.8947 6.7C34.8947 2.7 38.7718 0 44.2397 0C46.3274 0 48.1169 0.4 49.2104 0.9L48.4151 5.3L48.0175 4.9C47.0233 4.5 45.7309 4.1 43.842 4.1C41.7543 4.2 40.7601 5.1 40.7601 5.9C40.7601 6.8 41.9531 7.5 43.842 8.4C47.0233 9.9 48.5145 11.6 48.5145 14Z" fill="#3362AB"/>
<path d="M0 0.499609L0.0994152 0.0996094H8.64912C9.8421 0.0996094 10.7368 0.499609 11.0351 1.79961L12.924 10.7996C11.0351 5.99961 6.66082 2.09961 0 0.499609Z" fill="#F9B50B"/>
<path d="M24.9532 0.300195L16.304 20.6002H10.4385L5.46777 3.6002C9.04672 5.9002 12.0292 9.5002 13.1227 12.0002L13.7192 14.1002L19.0877 0.200195H24.9532V0.300195Z" fill="#3362AB"/>
<path d="M27.2398 0.200195H32.7076L29.2281 20.6002H23.7603L27.2398 0.200195Z" fill="#3362AB"/>
</svg>
