<svg width="30" height="29" viewBox="0 0 30 29" fill="none" xmlns="http://www.w3.org/2000/svg">
<path d="M19 13.9396L15.7857 10.5072L12.2143 13.5894L15.4286 17.0918L19 13.9396Z" fill="#137ABE"/>
<path d="M9.64286 7.70531L12.8571 11.1377L16.4286 8.05556L13.2143 4.62319L9.64286 7.70531Z" fill="#137ABE"/>
<path d="M21.5 19.8937L18.2857 16.4614L14.7143 19.6135L17.9286 23.0459L21.5 19.8937Z" fill="#137ABE"/>
<path d="M17.7857 25.6377L11.9286 19.2633L13.5714 17.8623L9.42857 13.3792L11.0714 11.9783L6.92857 7.49517L13.4286 1.82126L15.5 3.99275L19.0714 0.980676L21.1429 3.08213L22.5 1.8913C22.2143 1.75121 21.8571 1.54106 21.5714 1.40097C19.5 0.560386 17.2857 0 14.9286 0C6.71429 0 0 6.51449 0 14.5C0 22.4855 6.71429 29 15 29C17.7143 29 20.2143 28.2995 22.3571 27.1087C23.0714 26.6884 23.7143 26.2681 24.3571 25.8478L21.3571 22.5556L17.7857 25.6377Z" fill="#137ABE"/>
<path d="M16.2143 6.02415L18.5714 8.61594L21.2857 6.30435L18.8571 3.71256L16.2143 6.02415Z" fill="#137ABE"/>
<path d="M23.7143 11.4879L21.2857 8.89614L18.6429 11.2778L21.0714 13.7995L23.7143 11.4879Z" fill="#137ABE"/>
<path d="M26 16.9517L23.5714 14.3599L20.9286 16.6715L23.3571 19.3333L26 16.9517Z" fill="#137ABE"/>
<path d="M26.1429 8.4058L24.3571 9.94686L26 11.6981L27.7143 10.157L26.1429 8.4058Z" fill="#137ABE"/>
<path d="M26.6429 15.0604L28.2143 16.8116L30 15.2705L28.3571 13.5193L26.6429 15.0604Z" fill="#137ABE"/>
<path d="M22.0714 4.83333L23.7143 6.58454L25.4286 5.04348L23.8571 3.29227L22.0714 4.83333Z" fill="#137ABE"/>
<path d="M23.2857 21.9251L25.7143 24.5169L28.3571 22.2053L25.9286 19.6135L23.2857 21.9251Z" fill="#137ABE"/>
</svg>
